<?xml version="1.0" encoding="UTF-8" standalone="no"?><!DOCTYPE svg PUBLIC "-//W3C//DTD SVG 1.1//EN" "http://www.w3.org/Graphics/SVG/1.1/DTD/svg11.dtd"><svg width="100%" height="100%" viewBox="0 0 551 272" version="1.1" xmlns="http://www.w3.org/2000/svg" xmlns:xlink="http://www.w3.org/1999/xlink" xml:space="preserve" xmlns:serif="http://www.serif.com/" style="fill-rule:evenodd;clip-rule:evenodd;stroke-linejoin:round;stroke-miterlimit:2;"><path d="M169.635,111.827c0.338,-0.074 0.654,-0.232 0.992,-0.307c1.226,-0.27 1.225,-0.24 114.931,-0.24c203.738,0 203.779,-0.054 205.874,0.439c2.408,0.567 2.392,0.568 4.845,0.788c3.055,0.275 13.01,3.818 16.506,5.548c0.167,0.082 4.556,2.573 5.113,3.013c0.055,0.043 2.51,1.497 4.44,2.914c1.246,0.915 3.663,2.96 3.916,3.13c0.318,0.214 0.294,0.233 2.434,2.358c1.207,1.198 1.192,1.182 2.397,2.395c2.742,2.758 3.323,3.449 3.525,3.661c0.184,0.193 1.185,1.649 1.515,2.205c0.148,0.249 2.265,3.286 2.447,3.578c0.328,0.528 1.402,1.624 1.916,2.679c0.983,2.018 1.874,3.366 2.469,4.745c0.685,1.587 1.956,3.783 2.312,4.825c0.196,0.573 1.228,3.591 2.337,7.2c0.661,2.15 1.455,8.736 1.547,9.501c0.22,1.824 0.345,19.977 0.113,20.46c-0.122,0.253 -3.24,14.892 -3.947,16.682c-0.354,0.897 -3.318,6.727 -3.537,7.211c-0.656,1.449 -1.819,3.244 -2.516,4.717c-0.091,0.193 -4.937,6.613 -5.137,6.825c-4.113,4.362 -7.67,7.713 -8.358,8.361c-1.721,1.621 -5.712,4.609 -6.826,5.138c-0.125,0.059 -3.974,2.174 -4.721,2.509c-2.284,1.024 -10.08,4.553 -11.922,5.016c-2.422,0.609 -6.676,1.499 -8.481,2.024c-2.085,0.607 -10.294,0.539 -13.139,0.539c-353.418,0.014 -361.46,0.051 -361.51,0.048c0.237,-0.411 2.352,-0.999 2.588,-1.411c0.163,-0.284 11.171,-7.916 14.157,-11.054c0.455,0.248 1.205,0.984 1.205,0.984c0,0 344.855,0.157 348.344,0.074c27.532,-0.653 46.014,-21.795 50.958,-41.881c9.342,-37.954 -15.416,-70.652 -47.409,-73.55c-4.73,-0.428 -323.898,-0.066 -329.147,-0.197c-2.219,-0.055 8.36,-9.104 9.767,-10.927Z" style="fill:#f0922d;fill-opacity:1;"/><path d="M148.809,132.679c4.187,-2.264 8.823,-10.005 10.996,-9.927c0.021,0.001 324.48,-0.229 329.21,0.199c31.992,2.898 56.75,35.596 47.409,73.55c-4.944,20.086 -23.426,41.228 -50.958,41.881c-3.489,0.083 -347.339,0.473 -348.344,-0.074c-0.455,-0.248 -0.749,-0.736 -1.205,-0.984c26.511,-25.866 29.078,-64.512 15.978,-91.164c-4.864,-9.896 -6.691,-9.716 -5.484,-11.989c0.287,-0.541 0.403,-0.413 2.398,-1.492Z" style="fill:#fcec14;"/><path d="M132.325,12.011l2.41,0.026c0.366,0.459 0.981,0.676 1.347,1.135c0.218,0.273 0.171,0.687 0.347,0.988c0.139,0.238 0.426,0.362 0.579,0.592c1.865,2.797 -0.334,4.901 -0.636,5.19c-3.285,3.144 -6.685,-1.067 -6.864,-1.137c-1.096,-0.428 -3.937,0.734 -4.259,0.865c-1.064,0.435 -6.599,2.7 -9.782,10.521c-1.066,2.619 -2.127,4.969 -0.053,5.361c1.245,0.235 17.702,-3.49 34.768,6.831c25.497,15.419 30.766,46.051 20.437,66.854c-0.712,1.435 -0.559,1.469 -0.986,2.59c-1.407,1.823 -3.226,5.05 -6.435,9.129c-3.73,4.358 -10.205,9.46 -14.392,11.723c-1.995,1.079 -2.111,0.951 -2.398,1.492c-1.207,2.273 0.619,2.093 5.484,11.989c13.101,26.653 10.533,65.298 -15.978,91.164c-2.987,3.139 -15.334,12.396 -16.822,13.013c-1.976,0.819 -14.49,7.079 -20.878,7.942c-9.786,1.322 -20.38,2.378 -29.927,1.197c-6.62,-0.819 -22.258,-5.847 -26.622,-8.3c-2.137,-1.201 -2.084,-3.938 -2.595,-10.263c-0.752,-9.313 0.476,-9.974 -2.236,-12.292c-0.307,-0.262 -3.577,-3.056 -3.885,-3.217c-0.144,-0.075 -1.283,-0.671 -2.024,0.207c-0.194,0.229 -0.561,1.902 -0.599,2.07c-0.208,0.945 -2.55,11.592 -2.629,11.812c-0.053,0.146 -1.326,0.835 -1.651,0.836c-0.09,0 -1.49,-1.491 -1.635,-1.604c-4.276,-3.319 -19.496,-26.412 -22.771,-39.651c-2.792,-11.287 -1.401,-25.888 -0.377,-34.879c0.76,-6.674 5.885,-17.688 6.52,-19.067c2.051,-4.455 6.716,-11.408 8.819,-14.033c1.27,-1.586 8.58,-10.713 18.664,-17.217c14.443,-9.315 25.075,-11.537 34.85,-12.805c3.326,-0.431 2.761,-1.653 2.102,-4.951c-0.578,-2.888 -1.112,-12.042 0.035,-18.046c2.805,-14.681 10.227,-22.8 10.436,-23.104c1.057,-1.533 1.799,-3.114 -4.999,-10.749c-8.879,-9.971 -11.525,-7.194 -12.437,-6.982c-1.669,0.389 -3.947,-0.297 -4.745,-2.22c-1.655,-3.992 2.484,-6.266 4.698,-5.627c3.044,0.879 2.362,3.127 4.93,4.325c8.498,3.964 10.544,6.159 15.946,12.921c1.961,2.454 2.665,1.784 5.122,-0.182c9.063,-7.25 12.602,-6.986 16.036,-8.97c2.501,-1.444 0.888,-6.935 8.195,-14.572c6.162,-6.44 11.649,-6.905 13.091,-7.464c2.519,-0.976 2.432,-1.992 2.529,-2.124c0.361,-0.493 0.907,-0.829 1.268,-1.322Z" style="fill:#1c060f;fill-opacity:1;"/><path d="M94.341,130.345c2.911,1.645 3.881,2.512 7.943,4.309c13.887,6.145 24.07,4.232 26.407,4.066c9.43,-0.668 9.472,-2.459 11.681,-1.4c1.824,0.874 10.867,16.488 12.995,31.854c2.201,15.892 -0.258,20.849 -0.219,23.952c0.012,0.981 0.058,4.642 -2.566,11.996c-8.797,24.649 -27.887,36.778 -27.948,36.823c-9.451,6.981 -21.86,10.798 -24.919,11.422c-4.242,0.865 -17.832,2 -24.045,1.954c-4.472,-0.033 -11.682,-1.778 -13.228,-2.232c-7.528,-2.211 -12.145,-4.393 -13.16,-4.873c-3.702,-1.75 -3.019,-4.323 -2.773,-8.375c-0.213,-2.728 -0.223,-3.428 -0.227,-3.726c-0.155,-11.646 -1.83,-59.58 38.534,-106.888c1.87,-2.192 2.873,-3.917 4.09,-4.004c1.555,-0.11 1.248,0.858 7.434,5.122Zm27.589,18.447c-0.048,0.392 -0.131,0.779 -0.179,1.172c-0.957,7.869 4.052,14.911 9.412,15.199c7.395,0.397 9.56,-8.966 7.343,-15.28c-3.322,-9.461 -12.636,-10.34 -15.782,-3.543c-0.77,1.663 -0.559,1.726 -0.795,2.453Zm9.578,68.016c1.111,0.699 2.719,1.679 5.738,0.448c9.719,-3.965 17.63,-29.408 7.077,-28.785c-7.532,0.445 -17.7,18.404 -13.362,27.398c0.157,0.326 0.39,0.613 0.547,0.939Zm-64.478,-40.478c-0.036,1.634 -0.298,3.876 0.744,7.105c5.684,17.61 31.513,15.023 33.665,-3.54c1.296,-11.176 -9.525,-21.698 -21.885,-18.363c-3.906,1.054 -6.741,3.7 -7.079,3.969c-0.312,0.248 -1.576,1.256 -3.147,3.859c-1.478,2.448 -2.193,6.392 -2.298,6.97Zm39.608,57.27c0.136,-0.362 0.29,-0.718 0.427,-1.08c3.728,-9.916 -6.89,-16.981 -16.629,-16.866c-10.486,0.124 -18.121,7.372 -16.979,14.528c1.106,6.928 7.982,9.613 9.026,10.166c1.773,0.616 4.351,1.702 9.14,1.51c5.519,-0.221 8.694,-2.117 9.865,-2.882c4.319,-2.823 3.806,-3.365 5.151,-5.375Zm-30.744,-124.123c-9.262,1.145 -13.156,2.84 -14.228,3.307c-1.22,0.531 -0.942,1.042 -1.128,1.249c-0.486,-0.313 -0.821,-0.828 -1.307,-1.141c-3.861,-2.489 -18.512,4.354 -20.608,8.212c-0.169,0.311 -1.037,2.753 -1.072,2.995c-0.023,0.157 0.275,0.246 0.252,0.402c-2.418,1.069 -2.434,1.081 -6.431,4.635c-8.866,7.883 -16.553,17.41 -20.161,35.133c-0.053,0.26 -0.575,3.917 -0.569,4.839c0.006,0.992 -0.052,0.962 -0.104,1.947c-2.035,1.882 -2.945,1.664 -3.743,8.851c-0.045,0.403 -0.499,6.174 0.286,9.458c0.576,2.409 0.42,2.417 0.893,4.832c0.644,3.288 2.011,5.377 2.408,5.767c2.318,2.277 5.764,-1.662 5.771,-11.711c0.005,-8.638 -2.472,-13.502 -2.614,-13.914c0.082,-0.085 1.144,-0.159 1.556,-1.606c1.682,-5.9 1.998,-8.068 5.551,-14.439c1.92,1.301 1.86,1.341 3.599,2.845c9.703,8.391 28.037,-5.6 24.753,-19.686c-0.894,-3.834 -3.793,-6.373 -6.355,-7.319c-0.42,-0.155 -0.888,-0.179 -1.286,-0.382c-0.484,-0.248 -0.839,-0.705 -1.323,-0.953c4.613,-4.978 10.37,-7.316 10.414,-7.378c0.085,-0.119 -0.044,-0.108 -0.683,-1.692c4.725,-1.359 6.052,-3.095 6.3,-3.285c0.146,0.018 0.256,0.164 0.402,0.182c2.209,0.27 2.137,-0.22 4.082,-1.285c9.173,-5.022 16.683,-5.349 17.086,-6.395c0.17,-0.442 -0.224,-0.977 -0.053,-1.419l1.192,2.468c1.87,2.727 2.704,3.223 0.491,5.661c-0.615,0.677 -18.771,18.738 -33.774,48.509c-14.208,28.195 -20.57,60.178 -21.07,60.634c-0.864,0.787 -1.905,0.036 -2.038,-0.059c-0.274,-0.198 -5.829,-7.94 -6.84,-9.68c-1.738,-2.994 -3.609,-5.89 -8.752,-20.061c-1.487,-4.096 -1.114,-4.186 -2.148,-8.431c-0.447,-1.838 -0.83,-11.246 0.507,-17.898c1.909,-9.502 3.938,-29.676 26.455,-49.267c1.75,-1.522 3.429,-2.748 5.984,-5.027c7.843,-6.994 15.818,-8.118 24.125,-10.301c1.169,-0.307 11.898,-2.732 13.155,-1.217c0.215,0.26 0.743,2.115 1.025,2.62Zm50.015,15.152c-1.468,0.242 -6.291,0.144 -9.16,-0.949c-2.965,-1.129 -8.632,-5.828 -8.632,-5.828c0,0 -1.818,-1.514 -2.066,-2.631c-0.42,-1.887 0.442,-1.897 2.353,-1.611c3.46,0.519 5.741,1.035 7.869,3.29c2.089,2.213 2.687,0.946 5.319,1.823c2.238,0.746 3.74,3.143 3.965,3.502c1.064,1.698 1.151,2.271 0.352,2.403Z" style="fill:#d3202d;"/><path d="M132.433,41.663c40.436,7.949 51.904,61.922 15.239,85.172c-19.468,12.345 -52.308,8.898 -66.389,-20.18c-6.456,-13.331 -8.425,-40.916 16.515,-58.189c4.886,-3.384 11.877,-5.861 15.305,-6.582c11.191,-2.353 18.085,-0.426 19.329,-0.221Zm21.665,66.449c0.126,-0.183 0.473,-0.11 0.6,-0.293c0.082,-0.119 1.083,-1.573 -0.817,-1.609c-0.445,-0.008 -0.749,0.608 -1.194,0.6c-1.756,0.621 -14.158,4.46 -26.335,4.36c-10.571,-0.087 -17.385,-3.877 -23.932,-7.928c-0.17,-0.105 -1.025,-0.634 -1.826,-1.706c-0.356,-0.477 -0.821,-2.589 -4.532,0.174c-0.225,0.168 -1.265,0.942 -2.212,2.73c-0.741,1.398 -0.396,1.911 1.199,1.893c0.171,-0.002 0.089,-0.341 0.197,-0.474c3.808,-4.683 1.357,4.874 11.572,14.573c1.075,1.021 5.483,5.848 15.904,7.042c14.712,1.686 22.415,-6.185 23.814,-7.615c3.317,-3.389 4.716,-6.372 5.008,-6.995c0.576,-1.227 0.571,-1.202 1.121,-2.431c0.705,-1.576 1.315,-2.128 1.434,-2.321Zm1.465,-31.307c-0.359,-1.229 -3.078,-10.534 -7.87,-13.934c-1.797,-1.275 -4.079,-0.685 -2.386,2.17c0.723,1.219 1.211,1.287 0.495,2.509c-0.442,0.754 -0.87,0.338 -1.245,1.127c-1.253,2.642 7.415,19.694 11.033,14.592c0.87,-1.226 0.059,-5.954 -0.028,-6.464Zm-32.09,6.221c-0.319,-1.056 -2.776,-9.186 -6.741,-12.037c-3.628,-2.609 -4.785,0.043 -4.416,1.055c0.175,0.481 0.628,0.828 0.802,1.309c0.366,1.016 0.336,1.182 -0.602,1.734c-1.292,0.76 -1.773,0.39 -2.04,1.764c-0.178,0.915 0.619,4.39 0.705,4.766c2.531,11.043 10.956,18.079 12.827,9.683c0.74,-3.32 -0.435,-7.747 -0.535,-8.274Zm-73.709,40.702c0.639,1.583 0.768,1.573 0.683,1.692c-0.044,0.062 -5.802,2.4 -10.414,7.378c-5.552,1.647 -8.346,1.056 -13.365,6.04c-7.912,7.856 -6.056,15.619 -5.91,17.126c0.16,1.657 -0.096,1.973 -0.113,2.329c-3.554,6.371 -3.869,8.539 -5.551,14.439c-0.412,1.446 -1.474,1.521 -1.556,1.606c-1.325,-1.811 -1.342,-1.786 -3.001,-3.283c0.053,-0.985 0.11,-0.955 0.104,-1.947c-0.006,-0.922 0.517,-4.58 0.569,-4.839c3.609,-17.723 11.295,-27.249 20.161,-35.133c3.997,-3.554 4.012,-3.566 6.431,-4.635c5.949,1.627 6.085,1.15 11.962,-0.773Zm26.129,-14.25c0.952,0.931 0.887,0.966 1.686,2.048c-0.17,0.442 0.224,0.977 0.053,1.419c-0.403,1.046 -7.912,1.373 -17.086,6.395c-1.945,1.065 -1.873,1.554 -4.082,1.285c-0.146,-0.018 -0.256,-0.164 -0.402,-0.182c2.368,-2.029 2.729,-1.7 3.822,-3.78c0.811,-1.543 0.599,-2.416 0.652,-2.63c0.186,-0.206 -0.093,-0.717 1.128,-1.249c1.071,-0.466 4.966,-2.162 14.228,-3.307Z" style="fill:#fefefe;"/><path d="M200.523,155.238c1.997,0.275 4.535,0.158 8.395,3.118c4.177,3.203 5.045,13.51 0.773,17.628c-0.415,0.4 -0.743,0.322 -0.722,1.491c0.047,2.545 3.135,0.123 6.472,5.708c2.628,4.399 2.785,14.361 -4.147,18.16c-5.869,3.216 -9.986,2.894 -26.289,2.884c-0.295,-0 -3.324,-0.002 -3.683,-0.097c-1.496,-0.394 -1.561,-2.434 -1.569,-2.682c-0.104,-3.257 -0.008,-3.24 -0.005,-40.73c0,-0.294 0,-3.465 0.039,-3.673c0.364,-1.944 0.86,-1.78 2.835,-1.888c4.158,-0.228 16.469,0.048 17.901,0.08Zm-2.392,28.745c-0.28,-0.006 -3.338,-0.07 -3.5,-0.032c-1.516,0.348 -1.621,0.445 -2.006,1.959c-0.017,0.066 -0.091,6.262 0.09,6.982c0.609,2.429 7.036,1.269 9.097,0.232c2.723,-1.369 2.445,-4.911 1.983,-5.924c-1.372,-3.014 -4.812,-3.063 -5.664,-3.217Zm-2.305,-18.938c-0.436,0.06 -0.883,-0.103 -1.318,-0.043c-1.441,0.198 -1.5,0.375 -1.884,1.762c-0.023,0.083 -0.023,2.148 -0.022,2.335c0,0.39 0.001,4.22 0.762,4.818c1.447,1.136 8.898,-0.301 7.022,-5.945c-0.896,-2.697 -4.305,-2.861 -4.56,-2.926Zm98.104,4.612c3.164,0.471 3.259,0.127 6.15,1.503c2.243,1.067 2.065,1.359 2.27,1.42c0.336,0.101 1.451,-0.489 1.579,-0.877c0.072,-0.22 -0.041,-14.229 0.031,-14.527c0.509,-2.108 0.98,-2.007 3.152,-2.02c5.674,-0.034 7.44,-0.131 8.284,0.837c0.499,0.572 0.438,0.694 0.438,40.637c-0,2.607 0.209,6.082 -0.604,6.936c-0.843,0.886 -4.38,0.661 -6.926,0.66c-0.289,-0 -2.971,-0.001 -3.583,-0.427c-0.724,-0.504 -0.422,-0.794 -1.136,-1.287c-0.341,-0.235 -0.657,-0.575 -1.067,-0.635c-0.256,-0.038 0.151,0.602 -2.606,1.912c-8.05,3.826 -19.653,-0.195 -22.45,-12.017c-0.216,-0.915 -0.926,-8.224 1.385,-12.868c1.472,-2.96 3.693,-4.927 4.093,-5.281c4.744,-4.202 10.588,-3.931 10.99,-3.967Zm2.38,25.111c0.137,-0.011 7.004,0.542 7.765,-6.463c1.163,-10.706 -15.681,-10.961 -14.744,-0.072c0.036,0.42 0.253,2.944 2.26,4.754c1.936,1.746 2.16,1.346 4.719,1.781Zm193.966,-25.105c2.044,0.117 3.811,0.14 5.858,0.932c2.502,0.969 3.167,1.836 3.761,1.844c1.249,0.017 1.16,-1.638 4.733,-1.67c6.709,-0.059 8.504,-0.488 8.55,3.114c0.029,2.278 0.003,24.232 0.001,26.34c-0.004,3.357 -0.4,3.994 -3.763,4.004c-4.444,0.014 -6.863,0.246 -7.958,-0.958c-0.718,-0.79 -0.625,-1.101 -1.699,-0.989c-0.075,0.008 -4.119,3.253 -9.511,2.931c-13.565,-0.81 -19.367,-16.087 -13.994,-26.357c4.794,-9.163 13.314,-9.08 14.021,-9.193Zm3.561,25.11c0.2,-0.019 4.282,0.36 6.657,-3.261c2.499,-3.809 0.613,-12.324 -7.779,-11.277c-7.949,0.992 -8.121,13.252 -0.141,14.446c0.417,0.062 0.845,0.029 1.262,0.092Zm-125.689,-25.124c5.073,0.478 8.222,0.457 14.344,5.466c5.688,4.653 8.37,18.405 -1.444,25.937c-11.218,8.609 -33.982,3.776 -33.575,-14.005c0.079,-3.469 1.062,-4.209 1.868,-6.97c0.878,-3.011 4.564,-7.224 10.274,-9.078c3.099,-1.006 3.541,-1.113 8.534,-1.35Zm0.047,25.109c0.41,-0.082 0.836,-0.06 1.245,-0.142c7.72,-1.552 7.4,-14.002 -1.303,-14.448c-8.639,-0.442 -10.498,9.934 -4.54,13.67c2.046,1.284 2.2,0.784 4.599,0.92Zm103.849,-24.008c0.005,0.26 0.129,0.509 0.134,0.77c0.019,0.91 -0.061,0.914 -0.691,1.421c-1.905,1.532 -7.04,6.288 -7.642,6.846c-5.58,5.17 -7.433,5.804 -4.802,8.549c6.501,6.784 12.096,12.127 13.173,13.155c0.992,0.947 1.656,0.973 0.92,2.117c-0.62,0.964 -0.814,0.766 -1.962,0.65c-1.947,-0.197 -10.947,0.012 -12.079,-0.21c-1.354,-0.266 -1.451,-0.256 -7.119,-6.242c-4.792,-5.061 -4.493,-5.359 -5.027,-5.643c-0.317,-0.169 -1.597,-0.098 -1.701,0.017c-0.416,0.461 0.063,5.896 -0.071,9.269c-0.121,3.043 -1.672,2.801 -8.794,2.711c-1.962,-0.025 -2.392,0.214 -3.046,-1.653c-0.074,-0.212 -0.065,-0.223 -0.065,-32.212c0,-13.517 -0.388,-14.443 1.975,-14.988c0.107,-0.025 7.098,-0.016 7.112,-0.015c3.071,0.163 2.824,1.147 2.824,4.229c0.004,18.702 -0.184,18.687 -0.158,20.312c0.016,1 -0.1,1.327 0.897,1.385c0.939,0.055 0.947,-0.062 1.573,-0.772c0.552,-0.625 5.091,-5.049 5.537,-5.484c3.206,-3.124 3.517,-4.17 7.302,-4.193c9.861,-0.06 9.855,-0.185 10.712,-0.18c0.337,0.002 0.66,0.158 0.997,0.16Zm-215.22,-1.105c2.407,0.204 12.229,-0.045 16.505,10.332c1.225,2.972 1.42,8.618 0.166,9.223c-1.293,0.624 -21.215,-0.239 -22.471,0.549c-2.466,1.546 1.266,8.439 8.151,6.702c2.826,-0.713 2.619,-2.587 6.01,-2.71c3.009,-0.11 2.99,0.028 5.999,-0.102c5.939,-0.256 0.078,7.094 -3.561,9.009c-12.628,6.648 -31.483,0.567 -29.388,-17.923c1.007,-8.884 8.08,-14.462 16.155,-14.945l2.435,-0.135Zm3.748,8.766c-0.502,-0.167 -3.345,-2.009 -7.439,0.089c-1.955,1.002 -4.236,4.168 0.075,4.167c8.943,-0.002 9.07,0.143 9.567,-0.441c1.112,-1.306 -1.141,-3.115 -1.364,-3.294c-0.257,-0.206 -0.582,-0.316 -0.839,-0.522Zm144.497,-4.867c0.564,-0.611 0.499,-0.651 1.123,-1.217c5.479,-4.967 17.617,-3.002 19.727,5.052c0.8,3.055 0.922,3.073 0.875,22.843c-0.001,0.256 -0.006,2.533 -0.494,3.164c-0.715,0.926 -3.161,0.804 -7.87,0.774c-3.786,-0.024 -3.467,-1.339 -3.472,-5.136c-0.019,-14.812 0.812,-19.15 -4.864,-19.709c-6.439,-0.634 -6.529,6.918 -6.538,7.727c-0.181,15.25 0.383,15.562 -0.792,16.633c-0.491,0.447 -0.848,0.773 -8.286,0.481c-3.492,-0.137 -2.855,-1.966 -2.846,-9.921c0.026,-21.947 -0.097,-22.076 0.477,-22.737c0.662,-0.761 3.112,-0.791 8.364,-0.731c3.472,0.04 2.837,1.703 3.373,2.21c0.326,0.308 0.896,0.256 1.222,0.564Zm-77.611,-2.775c0.373,0 4.475,0.006 4.666,0.078c1.193,0.452 1.251,0.55 1.415,1.81c0.144,1.108 -0.082,1.549 1.052,1.554c0.98,0.004 0.886,-0.244 1.563,-0.929c2.278,-2.306 9.572,-4.175 10.534,-1.826c0.496,1.211 0.181,6.621 0.059,7.226c-0.076,0.379 -0.271,0.727 -0.347,1.106c-0.045,0.225 0.131,0.508 -0.009,0.689c-0.739,0.954 -0.967,0.413 -3.34,0.212c-6.958,-0.589 -8.437,4.314 -8.669,5.084c-1.42,4.71 0.102,16.261 -1.246,17.758c-0.556,0.617 -1.879,0.679 -2.052,0.688c-0.12,0.006 -6.963,0.03 -7.285,-0.031c-1.893,-0.357 -1.882,-2.488 -1.9,-2.783c-0.241,-3.86 -0.024,-25.311 -0.002,-27.512c0.039,-3.876 1.68,-2.987 5.562,-3.123Zm-100.555,0.171c3.099,-0.002 6.092,-0.238 6.784,0.835c0.484,0.751 0.383,3.12 0.378,8.097c-0.026,22.935 -0.009,22.987 -0.432,23.594c-0.682,0.977 -3.108,0.844 -7.933,0.816c-2.718,-0.016 -3.377,-0.135 -3.468,-2.866c-0.003,-0.104 -0.002,-27.515 -0.002,-27.526c0.047,-3.402 1.269,-3.059 4.673,-2.948Zm7.704,-11.463c-0.144,1.468 0.385,2.237 -1.629,4.912c-2.388,3.173 -9.482,2.876 -11.087,-2.4c-2.393,-7.869 9.039,-11.702 12.115,-4.822c0.532,1.191 0.598,2.299 0.601,2.31Z" style="fill:#e02130;"/><path d="M154.948,98.513c0.023,0.913 0.976,2.957 -1.987,5.077c-2.247,1.608 -4.689,1.465 -5.113,1.44c-8.545,-0.5 -4.994,-12.161 3.799,-9.495c2.911,0.883 2.902,2.269 3.302,2.977Zm-7.941,1.811c0.295,-0.067 0.597,0.233 0.891,0.166c1.919,-0.439 1.591,-1.99 1.546,-2.2c-0.109,-0.515 -2.32,-1.06 -2.724,0.193c-0.299,0.93 -0.256,1.211 -0.239,1.317c0.063,0.405 0.463,0.122 0.526,0.525Z" style="fill:#9e1a27;"/></svg>