<svg xmlns="http://www.w3.org/2000/svg" xml:space="preserve" fill-rule="evenodd" stroke-linejoin="round" stroke-miterlimit="2" clip-rule="evenodd" viewBox="0 0 15 15"><path fill="#090909" fill-opacity=".75" d="M7.252 14.221C5.828 11.81 1.727 4.871.61 2.974a.283.283 0 0 1 .093-.383C1.763 1.987 4.462.639 7.498.639s5.735 1.348 6.8 1.951a.286.286 0 0 1 .091.385L7.744 14.22a.285.285 0 0 1-.492 0Z"/><path fill="#f4f4f4" fill-opacity=".75" d="M6.761 14.511a.855.855 0 0 0 1.474 0L14.88 3.266a.857.857 0 0 0-.291-1.168l-.008-.005C13.479 1.469 10.663.067 7.498.067S1.516 1.469.416 2.097l-.007.004a.853.853 0 0 0-.29 1.162C1.236 5.161 5.337 12.1 6.761 14.51Zm.492-.29C5.829 11.81 1.728 4.871.611 2.974a.283.283 0 0 1 .093-.383C1.764 1.987 4.463.639 7.499.639s5.735 1.348 6.8 1.951a.286.286 0 0 1 .091.385L7.745 14.22a.285.285 0 0 1-.492 0Z"/></svg>