<svg xmlns="http://www.w3.org/2000/svg" xml:space="preserve" fill-rule="evenodd" stroke-linejoin="round" stroke-miterlimit="2" clip-rule="evenodd" viewBox="0 0 15 15"><path fill="#090909" fill-opacity=".75" d="M7.25 14.22.61 2.97a.3.3 0 0 1 .1-.38C1.75 2 4.45.64 7.5.64s5.73 1.35 6.8 1.95a.3.3 0 0 1 .09.39L7.74 14.22a.28.28 0 0 1-.49 0"/><path fill="#f4f4f4" fill-opacity=".75" d="M6.76 14.51a.86.86 0 0 0 1.48 0l6.64-11.24a.86.86 0 0 0-.3-1.17C13.48 1.46 10.66.06 7.5.06S1.52 1.47.42 2.1H.4a.85.85 0 0 0-.3 1.16zm.5-.29L.6 2.97a.3.3 0 0 1 .1-.38C1.75 2 4.45.64 7.5.64s5.73 1.35 6.8 1.95a.3.3 0 0 1 .09.39L7.75 14.22a.28.28 0 0 1-.5 0"/></svg>