<svg version="1.2" baseProfile="tiny-ps" xmlns="http://www.w3.org/2000/svg" viewBox="0 0 1633 576" width="1633" height="576">
	<title>resize-svg</title>
	<style>
		tspan { white-space:pre }
		.shp0 { fill: #ffffff } 
		.shp1 { fill: #e62925 } 
		.shp2 { fill: #0f9a49 } 
	</style>
	<g id="#ffffffff">
		<path id="Layer" class="shp0" d="M568.4 42.43C568.71 27.9 584.68 19 597.84 21.45C589.2 29.86 578.85 36.47 568.4 42.43Z" />
	</g>
	<g id="#e62925ff">
		<path id="Layer" fill-rule="evenodd" class="shp1" d="M253.49 0.47C315.02 0.47 376.54 0.52 438.07 0.45C438.9 8.5 438.82 16.62 438.92 24.73C438.87 205.71 438.9 386.7 438.92 567.66C379.64 567.81 320.36 567.68 261.05 567.74C261.07 552.51 261.1 537.31 261.02 522.09C237.7 548.77 206.02 568.72 170.57 573.77C133.58 578.91 93.05 573.59 62.51 550.68C33.92 528.98 17.88 494.89 9.26 460.83C-0.83 422.08 -0.26 381.67 1.39 341.96C5.6 294.92 20.82 245.71 56.91 213.25C88.25 184.99 131.88 176.04 172.95 176.4C202.02 177.74 230.32 188.04 253.49 205.66C253.46 137.26 253.44 68.85 253.49 0.47ZM210.38 328.72C185.46 333.59 168.36 358.93 169.7 383.65C171.12 395.63 175.4 407.6 183.71 416.55C195.73 430.26 216.08 436.96 233.57 430.69C259.22 423.03 274.44 393.15 267.63 367.66C262.31 342.6 236.08 323.09 210.38 328.72Z" />
		<path id="Layer" class="shp1" d="M994.69 182C1026.11 174.08 1059.44 174.85 1090.73 182.85C1115.63 189.33 1138.56 204.81 1151.43 227.39C1164.36 249.6 1168.38 275.64 1169.57 300.93C1169.7 389.85 1169.59 478.79 1169.62 567.71C1107.81 567.76 1046 567.71 984.19 567.74C984.16 494.3 984.13 420.86 984.21 347.45C984.47 340.43 982.66 332.43 976.39 328.43C964.89 321.57 949.56 321.62 938.01 328.31C931.64 332.3 929.86 340.43 930.06 347.48C930.09 420.89 930.09 494.33 930.09 567.74C868.28 567.71 806.46 567.74 744.68 567.74C744.65 440.24 744.7 312.75 744.65 185.25C804.01 185.2 863.4 185.25 922.76 185.22C922.71 200.96 922.66 216.7 922.76 232.44C939.32 207.21 965.53 189.38 994.69 182Z" />
		<path id="Layer" fill-rule="evenodd" class="shp1" d="M1415.55 177.28C1490.8 171.37 1568.3 210.46 1606.51 276.03C1630.19 314.84 1637.57 362.29 1629.7 406.8C1621.21 453.09 1594.28 495.33 1557 523.84C1520.06 552.62 1473.18 567.79 1426.46 567.43C1389.11 566.58 1351.75 556.51 1319.89 536.77C1279.03 512.16 1247.17 472.5 1233.31 426.72C1219.23 381.62 1223.51 331.32 1244.56 289.03C1275.96 224.55 1344.14 180.79 1415.55 177.28ZM1415.27 321.03C1391.95 326.6 1373.09 348.66 1373.94 373.07C1374.14 400.63 1399.3 424.17 1426.46 424.6C1449.96 426.18 1473.83 411.01 1481.15 388.38C1490.11 365.8 1478.21 338.42 1457.34 327.04C1444.83 319.33 1429.38 318.11 1415.27 321.03Z" />
		<path id="Layer" class="shp1" d="M501.59 186.64C507.75 187.13 515.21 185.64 519.72 191.06C555.07 226.38 616.05 230.23 656.27 201.02C661.66 197.22 665.94 192.04 671.44 188.35C676.55 187.55 681.76 187.91 686.94 187.93C686.84 314.53 686.92 441.09 686.89 567.66C625.05 567.84 563.22 567.63 501.38 567.76C501.48 440.73 501.1 313.67 501.59 186.64Z" />
	</g>
	<g id="#0f9a49ff">
		<path id="Layer" fill-rule="evenodd" class="shp2" d="M610.43 3.8C650.54 -1.67 693.26 21.6 708.3 59.61C719.16 86.55 715.66 119.09 698.22 142.49C675.23 174.9 630.29 188.79 592.81 176.09C568.61 168.43 547.53 150.65 537.08 127.35C525.94 103.45 527 74.24 539.79 51.2C553.8 25.11 581.2 7.33 610.43 3.8ZM568.4 42.43C578.85 36.47 589.2 29.86 597.84 21.45C584.68 19 568.71 27.9 568.4 42.43Z" />
	</g>
</svg>