<svg xmlns="http://www.w3.org/2000/svg" xml:space="preserve" fill-rule="evenodd" stroke-linejoin="round" stroke-miterlimit="2" clip-rule="evenodd" viewBox="0 0 15 15"><path fill="#e5c200" d="m-.236.017-.197-.128a.12.12 0 0 1-.035-.166.12.12 0 0 1 .166-.035l.197.128.061-.227a.12.12 0 0 1 .232.062l-.061.227.234-.012a.12.12 0 0 1 .013.239L.14.117l.084.219A.12.12 0 1 1 0 .422L-.084.203l-.182.148A.12.12 0 0 1-.435.333.12.12 0 0 1-.417.164l.182-.148Zm1.5 0-.197-.128a.12.12 0 0 1-.035-.166.12.12 0 0 1 .166-.035l.197.128.061-.227a.12.12 0 0 1 .232.062l-.061.227.234-.012a.12.12 0 0 1 .013.239L1.64.117l.084.219A.12.12 0 1 1 1.5.422L1.416.203l-.182.148a.12.12 0 0 1-.169-.018.12.12 0 0 1 .018-.169l.182-.148Zm1.5 0-.197-.128a.12.12 0 0 1-.035-.166.12.12 0 0 1 .166-.035l.197.128.061-.227a.12.12 0 0 1 .232.062l-.061.227.234-.012a.12.12 0 0 1 .013.239L3.14.117l.084.219A.12.12 0 1 1 3 .422L2.916.203l-.182.148a.12.12 0 0 1-.169-.018.12.12 0 0 1 .018-.169l.182-.148Zm1.5 0-.197-.128a.12.12 0 0 1-.035-.166.12.12 0 0 1 .166-.035l.197.128.061-.227a.12.12 0 0 1 .232.062l-.061.227.234-.012a.12.12 0 0 1 .013.239L4.64.117l.084.219A.12.12 0 1 1 4.5.422L4.416.203l-.182.148a.12.12 0 0 1-.169-.018.12.12 0 0 1 .018-.169l.182-.148Zm1.5 0-.197-.128a.12.12 0 0 1-.035-.166.12.12 0 0 1 .166-.035l.197.128.061-.227a.12.12 0 0 1 .232.062l-.061.227.234-.012a.12.12 0 0 1 .013.239L6.14.117l.084.219A.12.12 0 1 1 6 .422L5.916.203l-.182.148a.12.12 0 0 1-.169-.018.12.12 0 0 1 .018-.169l.182-.148Zm1.5 0-.197-.128a.12.12 0 0 1-.035-.166.12.12 0 0 1 .166-.035l.197.128.061-.227a.12.12 0 0 1 .232.062l-.061.227.234-.012a.12.12 0 0 1 .013.239L7.64.117l.084.219A.12.12 0 1 1 7.5.422L7.416.203l-.182.148a.12.12 0 0 1-.169-.018.12.12 0 0 1 .018-.169l.182-.148Zm1.5 0-.197-.128a.12.12 0 0 1-.035-.166.12.12 0 0 1 .166-.035l.197.128.061-.227a.12.12 0 0 1 .232.062l-.061.227.234-.012a.12.12 0 0 1 .013.239L9.14.117l.084.219A.12.12 0 1 1 9 .422L8.916.203l-.182.148a.12.12 0 0 1-.169-.018.12.12 0 0 1 .018-.169l.182-.148Zm1.5 0-.197-.128a.12.12 0 0 1-.035-.166.12.12 0 0 1 .166-.035l.197.128.061-.227a.12.12 0 0 1 .232.062l-.061.227.234-.012a.12.12 0 0 1 .013.239l-.234.012.084.219a.12.12 0 1 1-.224.086l-.084-.219-.182.148a.12.12 0 0 1-.169-.018.12.12 0 0 1 .018-.169l.182-.148Zm1.5 0-.197-.128a.12.12 0 0 1-.035-.166.12.12 0 0 1 .166-.035l.197.128.061-.227a.12.12 0 0 1 .232.062l-.061.227.234-.012a.12.12 0 0 1 .013.239l-.234.012.084.219A.12.12 0 1 1 12 .422l-.084-.219-.182.148a.12.12 0 0 1-.169-.018.12.12 0 0 1 .018-.169l.182-.148Zm1.5 0-.197-.128a.12.12 0 0 1-.035-.166.12.12 0 0 1 .166-.035l.197.128.061-.227a.12.12 0 0 1 .232.062l-.061.227.234-.012a.12.12 0 0 1 .013.239l-.234.012.084.219a.12.12 0 1 1-.224.086l-.084-.219-.182.148a.12.12 0 0 1-.169-.018.12.12 0 0 1 .018-.169l.182-.148Zm1.5 0-.197-.128a.12.12 0 0 1-.035-.166.12.12 0 0 1 .166-.035l.197.128.061-.227a.12.12 0 0 1 .232.062l-.061.227.234-.012a.12.12 0 0 1 .013.239l-.234.012.084.219A.12.12 0 1 1 15 .422l-.084-.219-.182.148a.12.12 0 0 1-.169-.018.12.12 0 0 1 .018-.169l.182-.148Z"/><path fill="#e5c200" d="m-.236.017-.197-.128a.12.12 0 0 1-.035-.166.12.12 0 0 1 .166-.035l.197.128.061-.227a.12.12 0 0 1 .232.062l-.061.227.234-.012a.12.12 0 0 1 .013.239L.14.117l.084.219A.12.12 0 1 1 0 .422L-.084.203l-.182.148A.12.12 0 0 1-.435.333.12.12 0 0 1-.417.164l.182-.148Zm1.5 0-.197-.128a.12.12 0 0 1-.035-.166.12.12 0 0 1 .166-.035l.197.128.061-.227a.12.12 0 0 1 .232.062l-.061.227.234-.012a.12.12 0 0 1 .013.239L1.64.117l.084.219A.12.12 0 1 1 1.5.422L1.416.203l-.182.148a.12.12 0 0 1-.169-.018.12.12 0 0 1 .018-.169l.182-.148Zm1.5 0-.197-.128a.12.12 0 0 1-.035-.166.12.12 0 0 1 .166-.035l.197.128.061-.227a.12.12 0 0 1 .232.062l-.061.227.234-.012a.12.12 0 0 1 .013.239L3.14.117l.084.219A.12.12 0 1 1 3 .422L2.916.203l-.182.148a.12.12 0 0 1-.169-.018.12.12 0 0 1 .018-.169l.182-.148Zm1.5 0-.197-.128a.12.12 0 0 1-.035-.166.12.12 0 0 1 .166-.035l.197.128.061-.227a.12.12 0 0 1 .232.062l-.061.227.234-.012a.12.12 0 0 1 .013.239L4.64.117l.084.219A.12.12 0 1 1 4.5.422L4.416.203l-.182.148a.12.12 0 0 1-.169-.018.12.12 0 0 1 .018-.169l.182-.148Zm1.5 0-.197-.128a.12.12 0 0 1-.035-.166.12.12 0 0 1 .166-.035l.197.128.061-.227a.12.12 0 0 1 .232.062l-.061.227.234-.012a.12.12 0 0 1 .013.239L6.14.117l.084.219A.12.12 0 1 1 6 .422L5.916.203l-.182.148a.12.12 0 0 1-.169-.018.12.12 0 0 1 .018-.169l.182-.148Zm1.5 0-.197-.128a.12.12 0 0 1-.035-.166.12.12 0 0 1 .166-.035l.197.128.061-.227a.12.12 0 0 1 .232.062l-.061.227.234-.012a.12.12 0 0 1 .013.239L7.64.117l.084.219A.12.12 0 1 1 7.5.422L7.416.203l-.182.148a.12.12 0 0 1-.169-.018.12.12 0 0 1 .018-.169l.182-.148Zm1.5 0-.197-.128a.12.12 0 0 1-.035-.166.12.12 0 0 1 .166-.035l.197.128.061-.227a.12.12 0 0 1 .232.062l-.061.227.234-.012a.12.12 0 0 1 .013.239L9.14.117l.084.219A.12.12 0 1 1 9 .422L8.916.203l-.182.148a.12.12 0 0 1-.169-.018.12.12 0 0 1 .018-.169l.182-.148Zm1.5 0-.197-.128a.12.12 0 0 1-.035-.166.12.12 0 0 1 .166-.035l.197.128.061-.227a.12.12 0 0 1 .232.062l-.061.227.234-.012a.12.12 0 0 1 .013.239l-.234.012.084.219a.12.12 0 1 1-.224.086l-.084-.219-.182.148a.12.12 0 0 1-.169-.018.12.12 0 0 1 .018-.169l.182-.148Zm1.5 0-.197-.128a.12.12 0 0 1-.035-.166.12.12 0 0 1 .166-.035l.197.128.061-.227a.12.12 0 0 1 .232.062l-.061.227.234-.012a.12.12 0 0 1 .013.239l-.234.012.084.219A.12.12 0 1 1 12 .422l-.084-.219-.182.148a.12.12 0 0 1-.169-.018.12.12 0 0 1 .018-.169l.182-.148Zm1.5 0-.197-.128a.12.12 0 0 1-.035-.166.12.12 0 0 1 .166-.035l.197.128.061-.227a.12.12 0 0 1 .232.062l-.061.227.234-.012a.12.12 0 0 1 .013.239l-.234.012.084.219a.12.12 0 1 1-.224.086l-.084-.219-.182.148a.12.12 0 0 1-.169-.018.12.12 0 0 1 .018-.169l.182-.148Zm1.5 0-.197-.128a.12.12 0 0 1-.035-.166.12.12 0 0 1 .166-.035l.197.128.061-.227a.12.12 0 0 1 .232.062l-.061.227.234-.012a.12.12 0 0 1 .013.239l-.234.012.084.219A.12.12 0 1 1 15 .422l-.084-.219-.182.148a.12.12 0 0 1-.169-.018.12.12 0 0 1 .018-.169l.182-.148ZM.251 1.016.054.888A.12.12 0 0 1 .019.722.12.12 0 0 1 .185.687l.197.128.061-.227A.12.12 0 0 1 .675.65L.614.877.848.865a.12.12 0 0 1 .013.239l-.234.012.084.219a.12.12 0 1 1-.224.086l-.084-.219-.182.148a.12.12 0 0 1-.169-.018.12.12 0 0 1 .018-.169zm1.5 0L1.554.888a.12.12 0 0 1-.035-.166.12.12 0 0 1 .166-.035l.197.128.061-.227a.12.12 0 0 1 .232.062l-.061.227.234-.012a.12.12 0 0 1 .013.239l-.234.012.084.219a.12.12 0 1 1-.224.086l-.084-.219-.182.148a.12.12 0 0 1-.169-.018.12.12 0 0 1 .018-.169zm1.5 0L3.054.888a.12.12 0 0 1-.035-.166.12.12 0 0 1 .166-.035l.197.128.061-.227a.12.12 0 0 1 .232.062l-.061.227.234-.012a.12.12 0 0 1 .013.239l-.234.012.084.219a.12.12 0 1 1-.224.086l-.084-.219-.182.148a.12.12 0 0 1-.169-.018.12.12 0 0 1 .018-.169zm1.5 0L4.554.888a.12.12 0 0 1-.035-.166.12.12 0 0 1 .166-.035l.197.128.061-.227a.12.12 0 0 1 .232.062l-.061.227.234-.012a.12.12 0 0 1 .013.239l-.234.012.084.219a.12.12 0 1 1-.224.086l-.084-.219-.182.148a.12.12 0 0 1-.169-.018.12.12 0 0 1 .018-.169l.182-.148Zm1.5 0L6.054.888a.12.12 0 0 1-.035-.166.12.12 0 0 1 .166-.035l.197.128.061-.227a.12.12 0 0 1 .232.062l-.061.227.234-.012a.12.12 0 0 1 .013.239l-.234.012.084.219a.12.12 0 1 1-.224.086l-.084-.219-.182.148a.12.12 0 0 1-.169-.018.12.12 0 0 1 .018-.169l.182-.148Zm1.5 0L7.554.888a.12.12 0 0 1-.035-.166.12.12 0 0 1 .166-.035l.197.128.061-.227a.12.12 0 0 1 .232.062l-.061.227.234-.012a.12.12 0 0 1 .013.239l-.234.012.084.219a.12.12 0 1 1-.224.086l-.084-.219-.182.148a.12.12 0 0 1-.169-.018.12.12 0 0 1 .018-.169zm1.5 0L9.054.888a.12.12 0 0 1-.035-.166.12.12 0 0 1 .166-.035l.197.128.061-.227a.12.12 0 0 1 .232.062l-.061.227.234-.012a.12.12 0 0 1 .013.239l-.234.012.084.219a.12.12 0 1 1-.224.086l-.084-.219-.182.148a.12.12 0 0 1-.169-.018.12.12 0 0 1 .018-.169l.182-.148Zm1.5 0-.197-.128a.12.12 0 0 1-.035-.166.12.12 0 0 1 .166-.035l.197.128.061-.227a.12.12 0 0 1 .232.062l-.061.227.234-.012a.12.12 0 0 1 .013.239l-.234.012.084.219a.12.12 0 1 1-.224.086l-.084-.219-.182.148a.12.12 0 0 1-.169-.018.12.12 0 0 1 .018-.169l.182-.148Zm1.5 0-.197-.128a.12.12 0 0 1-.035-.166.12.12 0 0 1 .166-.035l.197.128.061-.227a.12.12 0 0 1 .232.062l-.061.227.234-.012a.12.12 0 0 1 .013.239l-.234.012.084.219a.12.12 0 1 1-.224.086l-.084-.219-.182.148a.12.12 0 0 1-.169-.018.12.12 0 0 1 .018-.169l.182-.148Zm1.5 0-.197-.128a.12.12 0 0 1-.035-.166.12.12 0 0 1 .166-.035l.197.128.061-.227a.12.12 0 0 1 .232.062l-.061.227.234-.012a.12.12 0 0 1 .013.239l-.234.012.084.219a.12.12 0 1 1-.224.086l-.084-.219-.182.148a.12.12 0 0 1-.169-.018.12.12 0 0 1 .018-.169l.182-.148Z"/><path fill="#e5c200" d="M.251 1.016.054.888A.12.12 0 0 1 .019.722.12.12 0 0 1 .185.687l.197.128.061-.227A.12.12 0 0 1 .675.65L.614.877.848.865a.12.12 0 0 1 .013.239l-.234.012.084.219a.12.12 0 1 1-.224.086l-.084-.219-.182.148a.12.12 0 0 1-.169-.018.12.12 0 0 1 .018-.169zm1.5 0L1.554.888a.12.12 0 0 1-.035-.166.12.12 0 0 1 .166-.035l.197.128.061-.227a.12.12 0 0 1 .232.062l-.061.227.234-.012a.12.12 0 0 1 .013.239l-.234.012.084.219a.12.12 0 1 1-.224.086l-.084-.219-.182.148a.12.12 0 0 1-.169-.018.12.12 0 0 1 .018-.169zm1.5 0L3.054.888a.12.12 0 0 1-.035-.166.12.12 0 0 1 .166-.035l.197.128.061-.227a.12.12 0 0 1 .232.062l-.061.227.234-.012a.12.12 0 0 1 .013.239l-.234.012.084.219a.12.12 0 1 1-.224.086l-.084-.219-.182.148a.12.12 0 0 1-.169-.018.12.12 0 0 1 .018-.169zm1.5 0L4.554.888a.12.12 0 0 1-.035-.166.12.12 0 0 1 .166-.035l.197.128.061-.227a.12.12 0 0 1 .232.062l-.061.227.234-.012a.12.12 0 0 1 .013.239l-.234.012.084.219a.12.12 0 1 1-.224.086l-.084-.219-.182.148a.12.12 0 0 1-.169-.018.12.12 0 0 1 .018-.169l.182-.148Zm1.5 0L6.054.888a.12.12 0 0 1-.035-.166.12.12 0 0 1 .166-.035l.197.128.061-.227a.12.12 0 0 1 .232.062l-.061.227.234-.012a.12.12 0 0 1 .013.239l-.234.012.084.219a.12.12 0 1 1-.224.086l-.084-.219-.182.148a.12.12 0 0 1-.169-.018.12.12 0 0 1 .018-.169l.182-.148Zm1.5 0L7.554.888a.12.12 0 0 1-.035-.166.12.12 0 0 1 .166-.035l.197.128.061-.227a.12.12 0 0 1 .232.062l-.061.227.234-.012a.12.12 0 0 1 .013.239l-.234.012.084.219a.12.12 0 1 1-.224.086l-.084-.219-.182.148a.12.12 0 0 1-.169-.018.12.12 0 0 1 .018-.169zm1.5 0L9.054.888a.12.12 0 0 1-.035-.166.12.12 0 0 1 .166-.035l.197.128.061-.227a.12.12 0 0 1 .232.062l-.061.227.234-.012a.12.12 0 0 1 .013.239l-.234.012.084.219a.12.12 0 1 1-.224.086l-.084-.219-.182.148a.12.12 0 0 1-.169-.018.12.12 0 0 1 .018-.169l.182-.148Zm1.5 0-.197-.128a.12.12 0 0 1-.035-.166.12.12 0 0 1 .166-.035l.197.128.061-.227a.12.12 0 0 1 .232.062l-.061.227.234-.012a.12.12 0 0 1 .013.239l-.234.012.084.219a.12.12 0 1 1-.224.086l-.084-.219-.182.148a.12.12 0 0 1-.169-.018.12.12 0 0 1 .018-.169l.182-.148Zm1.5 0-.197-.128a.12.12 0 0 1-.035-.166.12.12 0 0 1 .166-.035l.197.128.061-.227a.12.12 0 0 1 .232.062l-.061.227.234-.012a.12.12 0 0 1 .013.239l-.234.012.084.219a.12.12 0 1 1-.224.086l-.084-.219-.182.148a.12.12 0 0 1-.169-.018.12.12 0 0 1 .018-.169l.182-.148Zm1.5 0-.197-.128a.12.12 0 0 1-.035-.166.12.12 0 0 1 .166-.035l.197.128.061-.227a.12.12 0 0 1 .232.062l-.061.227.234-.012a.12.12 0 0 1 .013.239l-.234.012.084.219a.12.12 0 1 1-.224.086l-.084-.219-.182.148a.12.12 0 0 1-.169-.018.12.12 0 0 1 .018-.169l.182-.148ZM.738 2.015l-.197-.128a.12.12 0 0 1-.035-.166.12.12 0 0 1 .166-.035l.197.128.061-.227a.12.12 0 0 1 .232.062l-.061.227.234-.012a.12.12 0 0 1 .013.239l-.234.012.084.219a.12.12 0 1 1-.224.086L.89 2.201l-.182.148a.12.12 0 0 1-.169-.018.12.12 0 0 1 .018-.169zm1.5 0-.197-.128a.12.12 0 0 1-.035-.166.12.12 0 0 1 .166-.035l.197.128.061-.227a.12.12 0 0 1 .232.062l-.061.227.234-.012a.12.12 0 0 1 .013.239l-.234.012.084.219a.12.12 0 1 1-.224.086l-.084-.219-.182.148a.12.12 0 0 1-.169-.018.12.12 0 0 1 .018-.169zm1.5 0-.197-.128a.12.12 0 0 1-.035-.166.12.12 0 0 1 .166-.035l.197.128.061-.227a.12.12 0 0 1 .232.062l-.061.227.234-.012a.12.12 0 0 1 .013.239l-.234.012.084.219a.12.12 0 1 1-.224.086l-.084-.219-.182.148a.12.12 0 0 1-.169-.018.12.12 0 0 1 .018-.169zm1.5 0-.197-.128a.12.12 0 0 1-.035-.166.12.12 0 0 1 .166-.035l.197.128.061-.227a.12.12 0 0 1 .232.062l-.061.227.234-.012a.12.12 0 0 1 .013.239l-.234.012.084.219a.12.12 0 1 1-.224.086l-.084-.219-.182.148a.12.12 0 0 1-.169-.018.12.12 0 0 1 .018-.169zm1.5 0-.197-.128a.12.12 0 0 1-.035-.166.12.12 0 0 1 .166-.035l.197.128.061-.227a.12.12 0 0 1 .232.062l-.061.227.234-.012a.12.12 0 0 1 .013.239l-.234.012.084.219a.12.12 0 1 1-.224.086l-.084-.219-.182.148a.12.12 0 0 1-.169-.018.12.12 0 0 1 .018-.169zm1.5 0-.197-.128a.12.12 0 0 1-.035-.166.12.12 0 0 1 .166-.035l.197.128.061-.227a.12.12 0 0 1 .232.062l-.061.227.234-.012a.12.12 0 0 1 .013.239l-.234.012.084.219a.12.12 0 1 1-.224.086l-.084-.219-.182.148a.12.12 0 0 1-.169-.018.12.12 0 0 1 .018-.169zm1.5 0-.197-.128a.12.12 0 0 1-.035-.166.12.12 0 0 1 .166-.035l.197.128.061-.227a.12.12 0 0 1 .232.062l-.061.227.234-.012a.12.12 0 0 1 .013.239l-.234.012.084.219a.12.12 0 1 1-.224.086l-.084-.219-.182.148a.12.12 0 0 1-.169-.018.12.12 0 0 1 .018-.169zm1.5 0-.197-.128a.12.12 0 0 1-.035-.166.12.12 0 0 1 .166-.035l.197.128.061-.227a.12.12 0 0 1 .232.062l-.061.227.234-.012a.12.12 0 0 1 .013.239l-.234.012.084.219a.12.12 0 1 1-.224.086l-.084-.219-.182.148a.12.12 0 0 1-.169-.018.12.12 0 0 1 .018-.169zm1.5 0-.197-.128a.12.12 0 0 1-.035-.166.12.12 0 0 1 .166-.035l.197.128.061-.227a.12.12 0 0 1 .232.062l-.061.227.234-.012a.12.12 0 0 1 .013.239l-.234.012.084.219a.12.12 0 1 1-.224.086l-.084-.219-.182.148a.12.12 0 0 1-.169-.018.12.12 0 0 1 .018-.169zm1.5 0-.197-.128a.12.12 0 0 1-.035-.166.12.12 0 0 1 .166-.035l.197.128.061-.227a.12.12 0 0 1 .232.062l-.061.227.234-.012a.12.12 0 0 1 .013.239l-.234.012.084.219a.12.12 0 1 1-.224.086l-.084-.219-.182.148a.12.12 0 0 1-.169-.018.12.12 0 0 1 .018-.169z"/><path fill="#e5c200" d="m.738 2.015-.197-.128a.12.12 0 0 1-.035-.166.12.12 0 0 1 .166-.035l.197.128.061-.227a.12.12 0 0 1 .232.062l-.061.227.234-.012a.12.12 0 0 1 .013.239l-.234.012.084.219a.12.12 0 1 1-.224.086L.89 2.201l-.182.148a.12.12 0 0 1-.169-.018.12.12 0 0 1 .018-.169zm1.5 0-.197-.128a.12.12 0 0 1-.035-.166.12.12 0 0 1 .166-.035l.197.128.061-.227a.12.12 0 0 1 .232.062l-.061.227.234-.012a.12.12 0 0 1 .013.239l-.234.012.084.219a.12.12 0 1 1-.224.086l-.084-.219-.182.148a.12.12 0 0 1-.169-.018.12.12 0 0 1 .018-.169zm1.5 0-.197-.128a.12.12 0 0 1-.035-.166.12.12 0 0 1 .166-.035l.197.128.061-.227a.12.12 0 0 1 .232.062l-.061.227.234-.012a.12.12 0 0 1 .013.239l-.234.012.084.219a.12.12 0 1 1-.224.086l-.084-.219-.182.148a.12.12 0 0 1-.169-.018.12.12 0 0 1 .018-.169zm1.5 0-.197-.128a.12.12 0 0 1-.035-.166.12.12 0 0 1 .166-.035l.197.128.061-.227a.12.12 0 0 1 .232.062l-.061.227.234-.012a.12.12 0 0 1 .013.239l-.234.012.084.219a.12.12 0 1 1-.224.086l-.084-.219-.182.148a.12.12 0 0 1-.169-.018.12.12 0 0 1 .018-.169zm1.5 0-.197-.128a.12.12 0 0 1-.035-.166.12.12 0 0 1 .166-.035l.197.128.061-.227a.12.12 0 0 1 .232.062l-.061.227.234-.012a.12.12 0 0 1 .013.239l-.234.012.084.219a.12.12 0 1 1-.224.086l-.084-.219-.182.148a.12.12 0 0 1-.169-.018.12.12 0 0 1 .018-.169zm1.5 0-.197-.128a.12.12 0 0 1-.035-.166.12.12 0 0 1 .166-.035l.197.128.061-.227a.12.12 0 0 1 .232.062l-.061.227.234-.012a.12.12 0 0 1 .013.239l-.234.012.084.219a.12.12 0 1 1-.224.086l-.084-.219-.182.148a.12.12 0 0 1-.169-.018.12.12 0 0 1 .018-.169zm1.5 0-.197-.128a.12.12 0 0 1-.035-.166.12.12 0 0 1 .166-.035l.197.128.061-.227a.12.12 0 0 1 .232.062l-.061.227.234-.012a.12.12 0 0 1 .013.239l-.234.012.084.219a.12.12 0 1 1-.224.086l-.084-.219-.182.148a.12.12 0 0 1-.169-.018.12.12 0 0 1 .018-.169zm1.5 0-.197-.128a.12.12 0 0 1-.035-.166.12.12 0 0 1 .166-.035l.197.128.061-.227a.12.12 0 0 1 .232.062l-.061.227.234-.012a.12.12 0 0 1 .013.239l-.234.012.084.219a.12.12 0 1 1-.224.086l-.084-.219-.182.148a.12.12 0 0 1-.169-.018.12.12 0 0 1 .018-.169zm1.5 0-.197-.128a.12.12 0 0 1-.035-.166.12.12 0 0 1 .166-.035l.197.128.061-.227a.12.12 0 0 1 .232.062l-.061.227.234-.012a.12.12 0 0 1 .013.239l-.234.012.084.219a.12.12 0 1 1-.224.086l-.084-.219-.182.148a.12.12 0 0 1-.169-.018.12.12 0 0 1 .018-.169zm1.5 0-.197-.128a.12.12 0 0 1-.035-.166.12.12 0 0 1 .166-.035l.197.128.061-.227a.12.12 0 0 1 .232.062l-.061.227.234-.012a.12.12 0 0 1 .013.239l-.234.012.084.219a.12.12 0 1 1-.224.086l-.084-.219-.182.148a.12.12 0 0 1-.169-.018.12.12 0 0 1 .018-.169zm-14.513.999-.197-.128a.12.12 0 0 1-.035-.166.12.12 0 0 1 .166-.035l.197.128.061-.227a.12.12 0 0 1 .232.062l-.061.227.234-.012a.12.12 0 0 1 .013.239l-.234.012.084.219a.12.12 0 1 1-.224.086L-.123 3.2l-.182.148a.12.12 0 0 1-.169-.018.12.12 0 0 1 .018-.169l.182-.148Zm1.5 0-.197-.128a.12.12 0 0 1-.035-.166.12.12 0 0 1 .166-.035l.197.128.061-.227a.12.12 0 0 1 .232.062l-.061.227.234-.012a.12.12 0 0 1 .013.239l-.234.012.084.219a.12.12 0 1 1-.224.086L1.377 3.2l-.182.148a.12.12 0 0 1-.169-.018.12.12 0 0 1 .018-.169zm1.5 0-.197-.128a.12.12 0 0 1-.035-.166.12.12 0 0 1 .166-.035l.197.128.061-.227a.12.12 0 0 1 .232.062l-.061.227.234-.012a.12.12 0 0 1 .013.239l-.234.012.084.219a.12.12 0 1 1-.224.086L2.877 3.2l-.182.148a.12.12 0 0 1-.169-.018.12.12 0 0 1 .018-.169zm1.5 0-.197-.128a.12.12 0 0 1-.035-.166.12.12 0 0 1 .166-.035l.197.128.061-.227a.12.12 0 0 1 .232.062l-.061.227.234-.012a.12.12 0 0 1 .013.239l-.234.012.084.219a.12.12 0 1 1-.224.086L4.377 3.2l-.182.148a.12.12 0 0 1-.169-.018.12.12 0 0 1 .018-.169l.182-.148Zm1.5 0-.197-.128a.12.12 0 0 1-.035-.166.12.12 0 0 1 .166-.035l.197.128.061-.227a.12.12 0 0 1 .232.062l-.061.227.234-.012a.12.12 0 0 1 .013.239l-.234.012.084.219a.12.12 0 1 1-.224.086L5.877 3.2l-.182.148a.12.12 0 0 1-.169-.018.12.12 0 0 1 .018-.169l.182-.148Zm1.5 0-.197-.128a.12.12 0 0 1-.035-.166.12.12 0 0 1 .166-.035l.197.128.061-.227a.12.12 0 0 1 .232.062l-.061.227.234-.012a.12.12 0 0 1 .013.239l-.234.012.084.219a.12.12 0 1 1-.224.086L7.377 3.2l-.182.148a.12.12 0 0 1-.169-.018.12.12 0 0 1 .018-.169l.182-.148Zm1.5 0-.197-.128a.12.12 0 0 1-.035-.166.12.12 0 0 1 .166-.035l.197.128.061-.227a.12.12 0 0 1 .232.062l-.061.227.234-.012a.12.12 0 0 1 .013.239l-.234.012.084.219a.12.12 0 1 1-.224.086L8.877 3.2l-.182.148a.12.12 0 0 1-.169-.018.12.12 0 0 1 .018-.169l.182-.148Zm1.5 0-.197-.128a.12.12 0 0 1-.035-.166.12.12 0 0 1 .166-.035l.197.128.061-.227a.12.12 0 0 1 .232.062l-.061.227.234-.012a.12.12 0 0 1 .013.239l-.234.012.084.219a.12.12 0 1 1-.224.086l-.084-.219-.182.148a.12.12 0 0 1-.169-.018.12.12 0 0 1 .018-.169zm1.5 0-.197-.128a.12.12 0 0 1-.035-.166.12.12 0 0 1 .166-.035l.197.128.061-.227a.12.12 0 0 1 .232.062l-.061.227.234-.012a.12.12 0 0 1 .013.239l-.234.012.084.219a.12.12 0 1 1-.224.086l-.084-.219-.182.148a.12.12 0 0 1-.169-.018.12.12 0 0 1 .018-.169zm1.5 0-.197-.128a.12.12 0 0 1-.035-.166.12.12 0 0 1 .166-.035l.197.128.061-.227a.12.12 0 0 1 .232.062l-.061.227.234-.012a.12.12 0 0 1 .013.239l-.234.012.084.219a.12.12 0 1 1-.224.086l-.084-.219-.182.148a.12.12 0 0 1-.169-.018.12.12 0 0 1 .018-.169zm1.5 0-.197-.128a.12.12 0 0 1-.035-.166.12.12 0 0 1 .166-.035l.197.128.061-.227a.12.12 0 0 1 .232.062l-.061.227.234-.012a.12.12 0 0 1 .013.239l-.234.012.084.219a.12.12 0 1 1-.224.086l-.084-.219-.182.148a.12.12 0 0 1-.169-.018.12.12 0 0 1 .018-.169z"/><path fill="#e5c200" d="m-.275 3.014-.197-.128a.12.12 0 0 1-.035-.166.12.12 0 0 1 .166-.035l.197.128.061-.227a.12.12 0 0 1 .232.062l-.061.227.234-.012a.12.12 0 0 1 .013.239l-.234.012.084.219a.12.12 0 1 1-.224.086L-.123 3.2l-.182.148a.12.12 0 0 1-.169-.018.12.12 0 0 1 .018-.169l.182-.148Zm1.5 0-.197-.128a.12.12 0 0 1-.035-.166.12.12 0 0 1 .166-.035l.197.128.061-.227a.12.12 0 0 1 .232.062l-.061.227.234-.012a.12.12 0 0 1 .013.239l-.234.012.084.219a.12.12 0 1 1-.224.086L1.377 3.2l-.182.148a.12.12 0 0 1-.169-.018.12.12 0 0 1 .018-.169zm1.5 0-.197-.128a.12.12 0 0 1-.035-.166.12.12 0 0 1 .166-.035l.197.128.061-.227a.12.12 0 0 1 .232.062l-.061.227.234-.012a.12.12 0 0 1 .013.239l-.234.012.084.219a.12.12 0 1 1-.224.086L2.877 3.2l-.182.148a.12.12 0 0 1-.169-.018.12.12 0 0 1 .018-.169zm1.5 0-.197-.128a.12.12 0 0 1-.035-.166.12.12 0 0 1 .166-.035l.197.128.061-.227a.12.12 0 0 1 .232.062l-.061.227.234-.012a.12.12 0 0 1 .013.239l-.234.012.084.219a.12.12 0 1 1-.224.086L4.377 3.2l-.182.148a.12.12 0 0 1-.169-.018.12.12 0 0 1 .018-.169l.182-.148Zm1.5 0-.197-.128a.12.12 0 0 1-.035-.166.12.12 0 0 1 .166-.035l.197.128.061-.227a.12.12 0 0 1 .232.062l-.061.227.234-.012a.12.12 0 0 1 .013.239l-.234.012.084.219a.12.12 0 1 1-.224.086L5.877 3.2l-.182.148a.12.12 0 0 1-.169-.018.12.12 0 0 1 .018-.169l.182-.148Zm1.5 0-.197-.128a.12.12 0 0 1-.035-.166.12.12 0 0 1 .166-.035l.197.128.061-.227a.12.12 0 0 1 .232.062l-.061.227.234-.012a.12.12 0 0 1 .013.239l-.234.012.084.219a.12.12 0 1 1-.224.086L7.377 3.2l-.182.148a.12.12 0 0 1-.169-.018.12.12 0 0 1 .018-.169l.182-.148Zm1.5 0-.197-.128a.12.12 0 0 1-.035-.166.12.12 0 0 1 .166-.035l.197.128.061-.227a.12.12 0 0 1 .232.062l-.061.227.234-.012a.12.12 0 0 1 .013.239l-.234.012.084.219a.12.12 0 1 1-.224.086L8.877 3.2l-.182.148a.12.12 0 0 1-.169-.018.12.12 0 0 1 .018-.169l.182-.148Zm1.5 0-.197-.128a.12.12 0 0 1-.035-.166.12.12 0 0 1 .166-.035l.197.128.061-.227a.12.12 0 0 1 .232.062l-.061.227.234-.012a.12.12 0 0 1 .013.239l-.234.012.084.219a.12.12 0 1 1-.224.086l-.084-.219-.182.148a.12.12 0 0 1-.169-.018.12.12 0 0 1 .018-.169l.182-.148Zm1.5 0-.197-.128a.12.12 0 0 1-.035-.166.12.12 0 0 1 .166-.035l.197.128.061-.227a.12.12 0 0 1 .232.062l-.061.227.234-.012a.12.12 0 0 1 .013.239l-.234.012.084.219a.12.12 0 1 1-.224.086l-.084-.219-.182.148a.12.12 0 0 1-.169-.018.12.12 0 0 1 .018-.169l.182-.148Zm1.5 0-.197-.128a.12.12 0 0 1-.035-.166.12.12 0 0 1 .166-.035l.197.128.061-.227a.12.12 0 0 1 .232.062l-.061.227.234-.012a.12.12 0 0 1 .013.239l-.234.012.084.219a.12.12 0 1 1-.224.086l-.084-.219-.182.148a.12.12 0 0 1-.169-.018.12.12 0 0 1 .018-.169l.182-.148Zm1.5 0-.197-.128a.12.12 0 0 1-.035-.166.12.12 0 0 1 .166-.035l.197.128.061-.227a.12.12 0 0 1 .232.062l-.061.227.234-.012a.12.12 0 0 1 .013.239l-.234.012.084.219a.12.12 0 1 1-.224.086l-.084-.219-.182.148a.12.12 0 0 1-.169-.018.12.12 0 0 1 .018-.169l.182-.148ZM.271 4.013l-.197-.128a.12.12 0 0 1-.035-.166.12.12 0 0 1 .166-.035l.197.128.061-.227a.12.12 0 0 1 .232.062l-.061.227.234-.012a.12.12 0 0 1 .013.239l-.234.012.084.219a.12.12 0 1 1-.224.086l-.084-.219-.182.148a.12.12 0 0 1-.169-.018.12.12 0 0 1 .018-.169zm1.5 0-.197-.128a.12.12 0 0 1-.035-.166.12.12 0 0 1 .166-.035l.197.128.061-.227a.12.12 0 0 1 .232.062l-.061.227.234-.012a.12.12 0 0 1 .013.239l-.234.012.084.219a.12.12 0 1 1-.224.086l-.084-.219-.182.148a.12.12 0 0 1-.169-.018.12.12 0 0 1 .018-.169zm1.5 0-.197-.128a.12.12 0 0 1-.035-.166.12.12 0 0 1 .166-.035l.197.128.061-.227a.12.12 0 0 1 .232.062l-.061.227.234-.012a.12.12 0 0 1 .013.239l-.234.012.084.219a.12.12 0 1 1-.224.086l-.084-.219-.182.148a.12.12 0 0 1-.169-.018.12.12 0 0 1 .018-.169zm1.5 0-.197-.128a.12.12 0 0 1-.035-.166.12.12 0 0 1 .166-.035l.197.128.061-.227a.12.12 0 0 1 .232.062l-.061.227.234-.012a.12.12 0 0 1 .013.239l-.234.012.084.219a.12.12 0 1 1-.224.086l-.084-.219-.182.148a.12.12 0 0 1-.169-.018.12.12 0 0 1 .018-.169l.182-.148Zm1.5 0-.197-.128a.12.12 0 0 1-.035-.166.12.12 0 0 1 .166-.035l.197.128.061-.227a.12.12 0 0 1 .232.062l-.061.227.234-.012a.12.12 0 0 1 .013.239l-.234.012.084.219a.12.12 0 1 1-.224.086l-.084-.219-.182.148a.12.12 0 0 1-.169-.018.12.12 0 0 1 .018-.169l.182-.148Zm1.5 0-.197-.128a.12.12 0 0 1-.035-.166.12.12 0 0 1 .166-.035l.197.128.061-.227a.12.12 0 0 1 .232.062l-.061.227.234-.012a.12.12 0 0 1 .013.239l-.234.012.084.219a.12.12 0 1 1-.224.086l-.084-.219-.182.148a.12.12 0 0 1-.169-.018.12.12 0 0 1 .018-.169l.182-.148Zm1.5 0-.197-.128a.12.12 0 0 1-.035-.166.12.12 0 0 1 .166-.035l.197.128.061-.227a.12.12 0 0 1 .232.062l-.061.227.234-.012a.12.12 0 0 1 .013.239l-.234.012.084.219a.12.12 0 1 1-.224.086l-.084-.219-.182.148a.12.12 0 0 1-.169-.018.12.12 0 0 1 .018-.169zm1.5 0-.197-.128a.12.12 0 0 1-.035-.166.12.12 0 0 1 .166-.035l.197.128.061-.227a.12.12 0 0 1 .232.062l-.061.227.234-.012a.12.12 0 0 1 .013.239l-.234.012.084.219a.12.12 0 1 1-.224.086l-.084-.219-.182.148a.12.12 0 0 1-.169-.018.12.12 0 0 1 .018-.169zm1.5 0-.197-.128a.12.12 0 0 1-.035-.166.12.12 0 0 1 .166-.035l.197.128.061-.227a.12.12 0 0 1 .232.062l-.061.227.234-.012a.12.12 0 0 1 .013.239l-.234.012.084.219a.12.12 0 1 1-.224.086l-.084-.219-.182.148a.12.12 0 0 1-.169-.018.12.12 0 0 1 .018-.169zm1.5 0-.197-.128a.12.12 0 0 1-.035-.166.12.12 0 0 1 .166-.035l.197.128.061-.227a.12.12 0 0 1 .232.062l-.061.227.234-.012a.12.12 0 0 1 .013.239l-.234.012.084.219a.12.12 0 1 1-.224.086l-.084-.219-.182.148a.12.12 0 0 1-.169-.018.12.12 0 0 1 .018-.169z"/><path fill="#e5c200" d="m.271 4.013-.197-.128a.12.12 0 0 1-.035-.166.12.12 0 0 1 .166-.035l.197.128.061-.227a.12.12 0 0 1 .232.062l-.061.227.234-.012a.12.12 0 0 1 .013.239l-.234.012.084.219a.12.12 0 1 1-.224.086l-.084-.219-.182.148a.12.12 0 0 1-.169-.018.12.12 0 0 1 .018-.169zm1.5 0-.197-.128a.12.12 0 0 1-.035-.166.12.12 0 0 1 .166-.035l.197.128.061-.227a.12.12 0 0 1 .232.062l-.061.227.234-.012a.12.12 0 0 1 .013.239l-.234.012.084.219a.12.12 0 1 1-.224.086l-.084-.219-.182.148a.12.12 0 0 1-.169-.018.12.12 0 0 1 .018-.169zm1.5 0-.197-.128a.12.12 0 0 1-.035-.166.12.12 0 0 1 .166-.035l.197.128.061-.227a.12.12 0 0 1 .232.062l-.061.227.234-.012a.12.12 0 0 1 .013.239l-.234.012.084.219a.12.12 0 1 1-.224.086l-.084-.219-.182.148a.12.12 0 0 1-.169-.018.12.12 0 0 1 .018-.169zm1.5 0-.197-.128a.12.12 0 0 1-.035-.166.12.12 0 0 1 .166-.035l.197.128.061-.227a.12.12 0 0 1 .232.062l-.061.227.234-.012a.12.12 0 0 1 .013.239l-.234.012.084.219a.12.12 0 1 1-.224.086l-.084-.219-.182.148a.12.12 0 0 1-.169-.018.12.12 0 0 1 .018-.169l.182-.148Zm1.5 0-.197-.128a.12.12 0 0 1-.035-.166.12.12 0 0 1 .166-.035l.197.128.061-.227a.12.12 0 0 1 .232.062l-.061.227.234-.012a.12.12 0 0 1 .013.239l-.234.012.084.219a.12.12 0 1 1-.224.086l-.084-.219-.182.148a.12.12 0 0 1-.169-.018.12.12 0 0 1 .018-.169l.182-.148Zm1.5 0-.197-.128a.12.12 0 0 1-.035-.166.12.12 0 0 1 .166-.035l.197.128.061-.227a.12.12 0 0 1 .232.062l-.061.227.234-.012a.12.12 0 0 1 .013.239l-.234.012.084.219a.12.12 0 1 1-.224.086l-.084-.219-.182.148a.12.12 0 0 1-.169-.018.12.12 0 0 1 .018-.169l.182-.148Zm1.5 0-.197-.128a.12.12 0 0 1-.035-.166.12.12 0 0 1 .166-.035l.197.128.061-.227a.12.12 0 0 1 .232.062l-.061.227.234-.012a.12.12 0 0 1 .013.239l-.234.012.084.219a.12.12 0 1 1-.224.086l-.084-.219-.182.148a.12.12 0 0 1-.169-.018.12.12 0 0 1 .018-.169zm1.5 0-.197-.128a.12.12 0 0 1-.035-.166.12.12 0 0 1 .166-.035l.197.128.061-.227a.12.12 0 0 1 .232.062l-.061.227.234-.012a.12.12 0 0 1 .013.239l-.234.012.084.219a.12.12 0 1 1-.224.086l-.084-.219-.182.148a.12.12 0 0 1-.169-.018.12.12 0 0 1 .018-.169zm1.5 0-.197-.128a.12.12 0 0 1-.035-.166.12.12 0 0 1 .166-.035l.197.128.061-.227a.12.12 0 0 1 .232.062l-.061.227.234-.012a.12.12 0 0 1 .013.239l-.234.012.084.219a.12.12 0 1 1-.224.086l-.084-.219-.182.148a.12.12 0 0 1-.169-.018.12.12 0 0 1 .018-.169zm1.5 0-.197-.128a.12.12 0 0 1-.035-.166.12.12 0 0 1 .166-.035l.197.128.061-.227a.12.12 0 0 1 .232.062l-.061.227.234-.012a.12.12 0 0 1 .013.239l-.234.012.084.219a.12.12 0 1 1-.224.086l-.084-.219-.182.148a.12.12 0 0 1-.169-.018.12.12 0 0 1 .018-.169zM.758 5.012l-.197-.128a.12.12 0 0 1-.035-.166.12.12 0 0 1 .166-.035l.197.128.061-.227a.12.12 0 0 1 .232.062l-.061.227.234-.012a.12.12 0 0 1 .013.239l-.234.012.084.219a.12.12 0 1 1-.224.086L.91 5.198l-.182.148a.12.12 0 0 1-.169-.018.12.12 0 0 1 .018-.169zm1.5 0-.197-.128a.12.12 0 0 1-.035-.166.12.12 0 0 1 .166-.035l.197.128.061-.227a.12.12 0 0 1 .232.062l-.061.227.234-.012a.12.12 0 0 1 .013.239l-.234.012.084.219a.12.12 0 1 1-.224.086l-.084-.219-.182.148a.12.12 0 0 1-.169-.018.12.12 0 0 1 .018-.169zm1.5 0-.197-.128a.12.12 0 0 1-.035-.166.12.12 0 0 1 .166-.035l.197.128.061-.227a.12.12 0 0 1 .232.062l-.061.227.234-.012a.12.12 0 0 1 .013.239l-.234.012.084.219a.12.12 0 1 1-.224.086l-.084-.219-.182.148a.12.12 0 0 1-.169-.018.12.12 0 0 1 .018-.169zm1.5 0-.197-.128a.12.12 0 0 1-.035-.166.12.12 0 0 1 .166-.035l.197.128.061-.227a.12.12 0 0 1 .232.062l-.061.227.234-.012a.12.12 0 0 1 .013.239l-.234.012.084.219a.12.12 0 1 1-.224.086l-.084-.219-.182.148a.12.12 0 0 1-.169-.018.12.12 0 0 1 .018-.169zm1.5 0-.197-.128a.12.12 0 0 1-.035-.166.12.12 0 0 1 .166-.035l.197.128.061-.227a.12.12 0 0 1 .232.062l-.061.227.234-.012a.12.12 0 0 1 .013.239l-.234.012.084.219a.12.12 0 1 1-.224.086l-.084-.219-.182.148a.12.12 0 0 1-.169-.018.12.12 0 0 1 .018-.169zm1.5 0-.197-.128a.12.12 0 0 1-.035-.166.12.12 0 0 1 .166-.035l.197.128.061-.227a.12.12 0 0 1 .232.062l-.061.227.234-.012a.12.12 0 0 1 .013.239l-.234.012.084.219a.12.12 0 1 1-.224.086l-.084-.219-.182.148a.12.12 0 0 1-.169-.018.12.12 0 0 1 .018-.169zm1.5 0-.197-.128a.12.12 0 0 1-.035-.166.12.12 0 0 1 .166-.035l.197.128.061-.227a.12.12 0 0 1 .232.062l-.061.227.234-.012a.12.12 0 0 1 .013.239l-.234.012.084.219a.12.12 0 1 1-.224.086l-.084-.219-.182.148a.12.12 0 0 1-.169-.018.12.12 0 0 1 .018-.169zm1.5 0-.197-.128a.12.12 0 0 1-.035-.166.12.12 0 0 1 .166-.035l.197.128.061-.227a.12.12 0 0 1 .232.062l-.061.227.234-.012a.12.12 0 0 1 .013.239l-.234.012.084.219a.12.12 0 1 1-.224.086l-.084-.219-.182.148a.12.12 0 0 1-.169-.018.12.12 0 0 1 .018-.169zm1.5 0-.197-.128a.12.12 0 0 1-.035-.166.12.12 0 0 1 .166-.035l.197.128.061-.227a.12.12 0 0 1 .232.062l-.061.227.234-.012a.12.12 0 0 1 .013.239l-.234.012.084.219a.12.12 0 1 1-.224.086l-.084-.219-.182.148a.12.12 0 0 1-.169-.018.12.12 0 0 1 .018-.169zm1.5 0-.197-.128a.12.12 0 0 1-.035-.166.12.12 0 0 1 .166-.035l.197.128.061-.227a.12.12 0 0 1 .232.062l-.061.227.234-.012a.12.12 0 0 1 .013.239l-.234.012.084.219a.12.12 0 1 1-.224.086l-.084-.219-.182.148a.12.12 0 0 1-.169-.018.12.12 0 0 1 .018-.169z"/><path fill="#e5c200" d="m.758 5.012-.197-.128a.12.12 0 0 1-.035-.166.12.12 0 0 1 .166-.035l.197.128.061-.227a.12.12 0 0 1 .232.062l-.061.227.234-.012a.12.12 0 0 1 .013.239l-.234.012.084.219a.12.12 0 1 1-.224.086L.91 5.198l-.182.148a.12.12 0 0 1-.169-.018.12.12 0 0 1 .018-.169zm1.5 0-.197-.128a.12.12 0 0 1-.035-.166.12.12 0 0 1 .166-.035l.197.128.061-.227a.12.12 0 0 1 .232.062l-.061.227.234-.012a.12.12 0 0 1 .013.239l-.234.012.084.219a.12.12 0 1 1-.224.086l-.084-.219-.182.148a.12.12 0 0 1-.169-.018.12.12 0 0 1 .018-.169zm1.5 0-.197-.128a.12.12 0 0 1-.035-.166.12.12 0 0 1 .166-.035l.197.128.061-.227a.12.12 0 0 1 .232.062l-.061.227.234-.012a.12.12 0 0 1 .013.239l-.234.012.084.219a.12.12 0 1 1-.224.086l-.084-.219-.182.148a.12.12 0 0 1-.169-.018.12.12 0 0 1 .018-.169zm1.5 0-.197-.128a.12.12 0 0 1-.035-.166.12.12 0 0 1 .166-.035l.197.128.061-.227a.12.12 0 0 1 .232.062l-.061.227.234-.012a.12.12 0 0 1 .013.239l-.234.012.084.219a.12.12 0 1 1-.224.086l-.084-.219-.182.148a.12.12 0 0 1-.169-.018.12.12 0 0 1 .018-.169l.182-.148Zm1.5 0-.197-.128a.12.12 0 0 1-.035-.166.12.12 0 0 1 .166-.035l.197.128.061-.227a.12.12 0 0 1 .232.062l-.061.227.234-.012a.12.12 0 0 1 .013.239l-.234.012.084.219a.12.12 0 1 1-.224.086l-.084-.219-.182.148a.12.12 0 0 1-.169-.018.12.12 0 0 1 .018-.169l.182-.148Zm1.5 0-.197-.128a.12.12 0 0 1-.035-.166.12.12 0 0 1 .166-.035l.197.128.061-.227a.12.12 0 0 1 .232.062l-.061.227.234-.012a.12.12 0 0 1 .013.239l-.234.012.084.219a.12.12 0 1 1-.224.086l-.084-.219-.182.148a.12.12 0 0 1-.169-.018.12.12 0 0 1 .018-.169zm1.5 0-.197-.128a.12.12 0 0 1-.035-.166.12.12 0 0 1 .166-.035l.197.128.061-.227a.12.12 0 0 1 .232.062l-.061.227.234-.012a.12.12 0 0 1 .013.239l-.234.012.084.219a.12.12 0 1 1-.224.086l-.084-.219-.182.148a.12.12 0 0 1-.169-.018.12.12 0 0 1 .018-.169zm1.5 0-.197-.128a.12.12 0 0 1-.035-.166.12.12 0 0 1 .166-.035l.197.128.061-.227a.12.12 0 0 1 .232.062l-.061.227.234-.012a.12.12 0 0 1 .013.239l-.234.012.084.219a.12.12 0 1 1-.224.086l-.084-.219-.182.148a.12.12 0 0 1-.169-.018.12.12 0 0 1 .018-.169zm1.5 0-.197-.128a.12.12 0 0 1-.035-.166.12.12 0 0 1 .166-.035l.197.128.061-.227a.12.12 0 0 1 .232.062l-.061.227.234-.012a.12.12 0 0 1 .013.239l-.234.012.084.219a.12.12 0 1 1-.224.086l-.084-.219-.182.148a.12.12 0 0 1-.169-.018.12.12 0 0 1 .018-.169zm1.5 0-.197-.128a.12.12 0 0 1-.035-.166.12.12 0 0 1 .166-.035l.197.128.061-.227a.12.12 0 0 1 .232.062l-.061.227.234-.012a.12.12 0 0 1 .013.239l-.234.012.084.219a.12.12 0 1 1-.224.086l-.084-.219-.182.148a.12.12 0 0 1-.169-.018.12.12 0 0 1 .018-.169zm-13.013.999-.197-.128a.12.12 0 0 1-.035-.166.12.12 0 0 1 .166-.035l.197.128.061-.227a.12.12 0 0 1 .232.062l-.061.227.234-.012a.12.12 0 0 1 .013.239l-.234.012.084.219a.12.12 0 1 1-.224.086l-.084-.219-.182.148a.12.12 0 0 1-.169-.018.12.12 0 0 1 .018-.169zm1.5 0-.197-.128a.12.12 0 0 1-.035-.166.12.12 0 0 1 .166-.035l.197.128.061-.227a.12.12 0 0 1 .232.062l-.061.227.234-.012a.12.12 0 0 1 .013.239l-.234.012.084.219a.12.12 0 1 1-.224.086l-.084-.219-.182.148a.12.12 0 0 1-.169-.018.12.12 0 0 1 .018-.169zm1.5 0-.197-.128a.12.12 0 0 1-.035-.166.12.12 0 0 1 .166-.035l.197.128.061-.227a.12.12 0 0 1 .232.062l-.061.227.234-.012a.12.12 0 0 1 .013.239l-.234.012.084.219a.12.12 0 1 1-.224.086l-.084-.219-.182.148a.12.12 0 0 1-.169-.018.12.12 0 0 1 .018-.169l.182-.148Zm1.5 0-.197-.128a.12.12 0 0 1-.035-.166.12.12 0 0 1 .166-.035l.197.128.061-.227a.12.12 0 0 1 .232.062l-.061.227.234-.012a.12.12 0 0 1 .013.239l-.234.012.084.219a.12.12 0 1 1-.224.086l-.084-.219-.182.148a.12.12 0 0 1-.169-.018.12.12 0 0 1 .018-.169l.182-.148Zm1.5 0-.197-.128a.12.12 0 0 1-.035-.166.12.12 0 0 1 .166-.035l.197.128.061-.227a.12.12 0 0 1 .232.062l-.061.227.234-.012a.12.12 0 0 1 .013.239l-.234.012.084.219a.12.12 0 1 1-.224.086l-.084-.219-.182.148a.12.12 0 0 1-.169-.018.12.12 0 0 1 .018-.169l.182-.148Zm1.5 0-.197-.128a.12.12 0 0 1-.035-.166.12.12 0 0 1 .166-.035l.197.128.061-.227a.12.12 0 0 1 .232.062l-.061.227.234-.012a.12.12 0 0 1 .013.239l-.234.012.084.219a.12.12 0 1 1-.224.086l-.084-.219-.182.148a.12.12 0 0 1-.169-.018.12.12 0 0 1 .018-.169zm1.5 0-.197-.128a.12.12 0 0 1-.035-.166.12.12 0 0 1 .166-.035l.197.128.061-.227a.12.12 0 0 1 .232.062l-.061.227.234-.012a.12.12 0 0 1 .013.239l-.234.012.084.219a.12.12 0 1 1-.224.086l-.084-.219-.182.148a.12.12 0 0 1-.169-.018.12.12 0 0 1 .018-.169zm1.5 0-.197-.128a.12.12 0 0 1-.035-.166.12.12 0 0 1 .166-.035l.197.128.061-.227a.12.12 0 0 1 .232.062l-.061.227.234-.012a.12.12 0 0 1 .013.239l-.234.012.084.219a.12.12 0 1 1-.224.086l-.084-.219-.182.148a.12.12 0 0 1-.169-.018.12.12 0 0 1 .018-.169zm1.5 0-.197-.128a.12.12 0 0 1-.035-.166.12.12 0 0 1 .166-.035l.197.128.061-.227a.12.12 0 0 1 .232.062l-.061.227.234-.012a.12.12 0 0 1 .013.239l-.234.012.084.219a.12.12 0 1 1-.224.086l-.084-.219-.182.148a.12.12 0 0 1-.169-.018.12.12 0 0 1 .018-.169zm1.5 0-.197-.128a.12.12 0 0 1-.035-.166.12.12 0 0 1 .166-.035l.197.128.061-.227a.12.12 0 0 1 .232.062l-.061.227.234-.012a.12.12 0 0 1 .013.239l-.234.012.084.219a.12.12 0 1 1-.224.086l-.084-.219-.182.148a.12.12 0 0 1-.169-.018.12.12 0 0 1 .018-.169z"/><path fill="#e5c200" d="m1.245 6.011-.197-.128a.12.12 0 0 1-.035-.166.12.12 0 0 1 .166-.035l.197.128.061-.227a.12.12 0 0 1 .232.062l-.061.227.234-.012a.12.12 0 0 1 .013.239l-.234.012.084.219a.12.12 0 1 1-.224.086l-.084-.219-.182.148a.12.12 0 0 1-.169-.018.12.12 0 0 1 .018-.169z"/><path fill="#e5c200" d="m1.245 6.011-.197-.128a.12.12 0 0 1-.035-.166.12.12 0 0 1 .166-.035l.197.128.061-.227a.12.12 0 0 1 .232.062l-.061.227.234-.012a.12.12 0 0 1 .013.239l-.234.012.084.219a.12.12 0 1 1-.224.086l-.084-.219-.182.148a.12.12 0 0 1-.169-.018.12.12 0 0 1 .018-.169zm1.5 0-.197-.128a.12.12 0 0 1-.035-.166.12.12 0 0 1 .166-.035l.197.128.061-.227a.12.12 0 0 1 .232.062l-.061.227.234-.012a.12.12 0 0 1 .013.239l-.234.012.084.219a.12.12 0 1 1-.224.086l-.084-.219-.182.148a.12.12 0 0 1-.169-.018.12.12 0 0 1 .018-.169zm-3 .003-.197-.128a.12.12 0 0 1-.035-.166.12.12 0 0 1 .166-.035l.197.128.061-.227a.12.12 0 0 1 .232.062l-.061.227.234-.012a.12.12 0 0 1 .013.239l-.234.012.084.219a.12.12 0 1 1-.224.086L-.103 6.2l-.182.148a.12.12 0 0 1-.169-.018.12.12 0 0 1 .018-.169l.182-.148Zm0 3-.197-.128a.12.12 0 0 1-.035-.166.12.12 0 0 1 .166-.035l.197.128.061-.227a.12.12 0 0 1 .232.062l-.061.227.234-.012a.12.12 0 0 1 .013.239l-.234.012.084.219a.12.12 0 1 1-.224.086L-.103 9.2l-.182.148a.12.12 0 0 1-.169-.018.12.12 0 0 1 .018-.169l.182-.148Zm0 3-.197-.128a.12.12 0 0 1-.035-.166.12.12 0 0 1 .166-.035l.197.128.061-.227a.12.12 0 0 1 .232.062l-.061.227.234-.012a.12.12 0 0 1 .013.239l-.234.012.084.219a.12.12 0 1 1-.224.086l-.084-.219-.182.148a.12.12 0 0 1-.169-.018.12.12 0 0 1 .018-.169l.182-.148Zm4.5-6.003-.197-.128a.12.12 0 0 1-.035-.166.12.12 0 0 1 .166-.035l.197.128.061-.227a.12.12 0 0 1 .232.062l-.061.227.234-.012a.12.12 0 0 1 .013.239l-.234.012.084.219a.12.12 0 1 1-.224.086l-.084-.219-.182.148a.12.12 0 0 1-.169-.018.12.12 0 0 1 .018-.169l.182-.148Zm1.5 0-.197-.128a.12.12 0 0 1-.035-.166.12.12 0 0 1 .166-.035l.197.128.061-.227a.12.12 0 0 1 .232.062l-.061.227.234-.012a.12.12 0 0 1 .013.239l-.234.012.084.219a.12.12 0 1 1-.224.086l-.084-.219-.182.148a.12.12 0 0 1-.169-.018.12.12 0 0 1 .018-.169l.182-.148Zm1.5 0-.197-.128a.12.12 0 0 1-.035-.166.12.12 0 0 1 .166-.035l.197.128.061-.227a.12.12 0 0 1 .232.062l-.061.227.234-.012a.12.12 0 0 1 .013.239l-.234.012.084.219a.12.12 0 1 1-.224.086l-.084-.219-.182.148a.12.12 0 0 1-.169-.018.12.12 0 0 1 .018-.169l.182-.148Zm1.5 0-.197-.128a.12.12 0 0 1-.035-.166.12.12 0 0 1 .166-.035l.197.128.061-.227a.12.12 0 0 1 .232.062l-.061.227.234-.012a.12.12 0 0 1 .013.239l-.234.012.084.219a.12.12 0 1 1-.224.086l-.084-.219-.182.148a.12.12 0 0 1-.169-.018.12.12 0 0 1 .018-.169zm1.5 0-.197-.128a.12.12 0 0 1-.035-.166.12.12 0 0 1 .166-.035l.197.128.061-.227a.12.12 0 0 1 .232.062l-.061.227.234-.012a.12.12 0 0 1 .013.239l-.234.012.084.219a.12.12 0 1 1-.224.086l-.084-.219-.182.148a.12.12 0 0 1-.169-.018.12.12 0 0 1 .018-.169zm1.5 0-.197-.128a.12.12 0 0 1-.035-.166.12.12 0 0 1 .166-.035l.197.128.061-.227a.12.12 0 0 1 .232.062l-.061.227.234-.012a.12.12 0 0 1 .013.239l-.234.012.084.219a.12.12 0 1 1-.224.086l-.084-.219-.182.148a.12.12 0 0 1-.169-.018.12.12 0 0 1 .018-.169zm1.5 0-.197-.128a.12.12 0 0 1-.035-.166.12.12 0 0 1 .166-.035l.197.128.061-.227a.12.12 0 0 1 .232.062l-.061.227.234-.012a.12.12 0 0 1 .013.239l-.234.012.084.219a.12.12 0 1 1-.224.086l-.084-.219-.182.148a.12.12 0 0 1-.169-.018.12.12 0 0 1 .018-.169zm1.5 0-.197-.128a.12.12 0 0 1-.035-.166.12.12 0 0 1 .166-.035l.197.128.061-.227a.12.12 0 0 1 .232.062l-.061.227.234-.012a.12.12 0 0 1 .013.239l-.234.012.084.219a.12.12 0 1 1-.224.086l-.084-.219-.182.148a.12.12 0 0 1-.169-.018.12.12 0 0 1 .018-.169zM.232 7.01l-.197-.128A.12.12 0 0 1 0 6.716a.12.12 0 0 1 .166-.035l.197.128.061-.227a.12.12 0 0 1 .232.062l-.061.227.234-.012a.12.12 0 0 1 .013.239l-.234.012.084.219a.12.12 0 1 1-.224.086l-.084-.219-.182.148a.12.12 0 0 1-.169-.018.12.12 0 0 1 .018-.169zm1.5 0-.197-.128a.12.12 0 0 1-.035-.166.12.12 0 0 1 .166-.035l.197.128.061-.227a.12.12 0 0 1 .232.062l-.061.227.234-.012a.12.12 0 0 1 .013.239l-.234.012.084.219a.12.12 0 1 1-.224.086l-.084-.219-.182.148a.12.12 0 0 1-.169-.018.12.12 0 0 1 .018-.169zm1.5 0-.197-.128A.12.12 0 0 1 3 6.716a.12.12 0 0 1 .166-.035l.197.128.061-.227a.12.12 0 0 1 .232.062l-.061.227.234-.012a.12.12 0 0 1 .013.239l-.234.012.084.219a.12.12 0 1 1-.224.086l-.084-.219-.182.148a.12.12 0 0 1-.169-.018.12.12 0 0 1 .018-.169zm1.5 0-.197-.128a.12.12 0 0 1-.035-.166.12.12 0 0 1 .166-.035l.197.128.061-.227a.12.12 0 0 1 .232.062l-.061.227.234-.012a.12.12 0 0 1 .013.239l-.234.012.084.219a.12.12 0 1 1-.224.086l-.084-.219-.182.148a.12.12 0 0 1-.169-.018.12.12 0 0 1 .018-.169zm1.5 0-.197-.128A.12.12 0 0 1 6 6.716a.12.12 0 0 1 .166-.035l.197.128.061-.227a.12.12 0 0 1 .232.062l-.061.227.234-.012a.12.12 0 0 1 .013.239l-.234.012.084.219a.12.12 0 1 1-.224.086l-.084-.219-.182.148a.12.12 0 0 1-.169-.018.12.12 0 0 1 .018-.169l.182-.148Zm1.5 0-.197-.128a.12.12 0 0 1-.035-.166.12.12 0 0 1 .166-.035l.197.128.061-.227a.12.12 0 0 1 .232.062l-.061.227.234-.012a.12.12 0 0 1 .013.239l-.234.012.084.219a.12.12 0 1 1-.224.086l-.084-.219-.182.148a.12.12 0 0 1-.169-.018.12.12 0 0 1 .018-.169zm1.5 0-.197-.128A.12.12 0 0 1 9 6.716a.12.12 0 0 1 .166-.035l.197.128.061-.227a.12.12 0 0 1 .232.062l-.061.227.234-.012a.12.12 0 0 1 .013.239l-.234.012.084.219a.12.12 0 1 1-.224.086l-.084-.219-.182.148a.12.12 0 0 1-.169-.018.12.12 0 0 1 .018-.169zm1.5 0-.197-.128a.12.12 0 0 1-.035-.166.12.12 0 0 1 .166-.035l.197.128.061-.227a.12.12 0 0 1 .232.062l-.061.227.234-.012a.12.12 0 0 1 .013.239l-.234.012.084.219a.12.12 0 1 1-.224.086l-.084-.219-.182.148a.12.12 0 0 1-.169-.018.12.12 0 0 1 .018-.169zm1.5 0-.197-.128A.12.12 0 0 1 12 6.716a.12.12 0 0 1 .166-.035l.197.128.061-.227a.12.12 0 0 1 .232.062l-.061.227.234-.012a.12.12 0 0 1 .013.239l-.234.012.084.219a.12.12 0 1 1-.224.086l-.084-.219-.182.148a.12.12 0 0 1-.169-.018.12.12 0 0 1 .018-.169zm1.5 0-.197-.128a.12.12 0 0 1-.035-.166.12.12 0 0 1 .166-.035l.197.128.061-.227a.12.12 0 0 1 .232.062l-.061.227.234-.012a.12.12 0 0 1 .013.239l-.234.012.084.219a.12.12 0 1 1-.224.086l-.084-.219-.182.148a.12.12 0 0 1-.169-.018.12.12 0 0 1 .018-.169z"/><path fill="#e5c200" d="m.232 7.01-.197-.128A.12.12 0 0 1 0 6.716a.12.12 0 0 1 .166-.035l.197.128.061-.227a.12.12 0 0 1 .232.062l-.061.227.234-.012a.12.12 0 0 1 .013.239l-.234.012.084.219a.12.12 0 1 1-.224.086l-.084-.219-.182.148a.12.12 0 0 1-.169-.018.12.12 0 0 1 .018-.169zm1.5 0-.197-.128a.12.12 0 0 1-.035-.166.12.12 0 0 1 .166-.035l.197.128.061-.227a.12.12 0 0 1 .232.062l-.061.227.234-.012a.12.12 0 0 1 .013.239l-.234.012.084.219a.12.12 0 1 1-.224.086l-.084-.219-.182.148a.12.12 0 0 1-.169-.018.12.12 0 0 1 .018-.169zm1.5 0-.197-.128A.12.12 0 0 1 3 6.716a.12.12 0 0 1 .166-.035l.197.128.061-.227a.12.12 0 0 1 .232.062l-.061.227.234-.012a.12.12 0 0 1 .013.239l-.234.012.084.219a.12.12 0 1 1-.224.086l-.084-.219-.182.148a.12.12 0 0 1-.169-.018.12.12 0 0 1 .018-.169zm1.5 0-.197-.128a.12.12 0 0 1-.035-.166.12.12 0 0 1 .166-.035l.197.128.061-.227a.12.12 0 0 1 .232.062l-.061.227.234-.012a.12.12 0 0 1 .013.239l-.234.012.084.219a.12.12 0 1 1-.224.086l-.084-.219-.182.148a.12.12 0 0 1-.169-.018.12.12 0 0 1 .018-.169l.182-.148Zm1.5 0-.197-.128A.12.12 0 0 1 6 6.716a.12.12 0 0 1 .166-.035l.197.128.061-.227a.12.12 0 0 1 .232.062l-.061.227.234-.012a.12.12 0 0 1 .013.239l-.234.012.084.219a.12.12 0 1 1-.224.086l-.084-.219-.182.148a.12.12 0 0 1-.169-.018.12.12 0 0 1 .018-.169l.182-.148Zm1.5 0-.197-.128a.12.12 0 0 1-.035-.166.12.12 0 0 1 .166-.035l.197.128.061-.227a.12.12 0 0 1 .232.062l-.061.227.234-.012a.12.12 0 0 1 .013.239l-.234.012.084.219a.12.12 0 1 1-.224.086l-.084-.219-.182.148a.12.12 0 0 1-.169-.018.12.12 0 0 1 .018-.169zm1.5 0-.197-.128A.12.12 0 0 1 9 6.716a.12.12 0 0 1 .166-.035l.197.128.061-.227a.12.12 0 0 1 .232.062l-.061.227.234-.012a.12.12 0 0 1 .013.239l-.234.012.084.219a.12.12 0 1 1-.224.086l-.084-.219-.182.148a.12.12 0 0 1-.169-.018.12.12 0 0 1 .018-.169zm1.5 0-.197-.128a.12.12 0 0 1-.035-.166.12.12 0 0 1 .166-.035l.197.128.061-.227a.12.12 0 0 1 .232.062l-.061.227.234-.012a.12.12 0 0 1 .013.239l-.234.012.084.219a.12.12 0 1 1-.224.086l-.084-.219-.182.148a.12.12 0 0 1-.169-.018.12.12 0 0 1 .018-.169zm1.5 0-.197-.128A.12.12 0 0 1 12 6.716a.12.12 0 0 1 .166-.035l.197.128.061-.227a.12.12 0 0 1 .232.062l-.061.227.234-.012a.12.12 0 0 1 .013.239l-.234.012.084.219a.12.12 0 1 1-.224.086l-.084-.219-.182.148a.12.12 0 0 1-.169-.018.12.12 0 0 1 .018-.169zm1.5 0-.197-.128a.12.12 0 0 1-.035-.166.12.12 0 0 1 .166-.035l.197.128.061-.227a.12.12 0 0 1 .232.062l-.061.227.234-.012a.12.12 0 0 1 .013.239l-.234.012.084.219a.12.12 0 1 1-.224.086l-.084-.219-.182.148a.12.12 0 0 1-.169-.018.12.12 0 0 1 .018-.169zM.758 8.012l-.197-.128a.12.12 0 0 1-.035-.166.12.12 0 0 1 .166-.035l.197.128.061-.227a.12.12 0 0 1 .232.062l-.061.227.234-.012a.12.12 0 0 1 .013.239l-.234.012.084.219a.12.12 0 1 1-.224.086L.91 8.198l-.182.148a.12.12 0 0 1-.169-.018.12.12 0 0 1 .018-.169l.182-.148Zm1.5 0-.197-.128a.12.12 0 0 1-.035-.166.12.12 0 0 1 .166-.035l.197.128.061-.227a.12.12 0 0 1 .232.062l-.061.227.234-.012a.12.12 0 0 1 .013.239l-.234.012.084.219a.12.12 0 1 1-.224.086l-.084-.219-.182.148a.12.12 0 0 1-.169-.018.12.12 0 0 1 .018-.169zm1.5 0-.197-.128a.12.12 0 0 1-.035-.166.12.12 0 0 1 .166-.035l.197.128.061-.227a.12.12 0 0 1 .232.062l-.061.227.234-.012a.12.12 0 0 1 .013.239l-.234.012.084.219a.12.12 0 1 1-.224.086l-.084-.219-.182.148a.12.12 0 0 1-.169-.018.12.12 0 0 1 .018-.169zm1.5 0-.197-.128a.12.12 0 0 1-.035-.166.12.12 0 0 1 .166-.035l.197.128.061-.227a.12.12 0 0 1 .232.062l-.061.227.234-.012a.12.12 0 0 1 .013.239l-.234.012.084.219a.12.12 0 1 1-.224.086l-.084-.219-.182.148a.12.12 0 0 1-.169-.018.12.12 0 0 1 .018-.169zm1.5 0-.197-.128a.12.12 0 0 1-.035-.166.12.12 0 0 1 .166-.035l.197.128.061-.227a.12.12 0 0 1 .232.062l-.061.227.234-.012a.12.12 0 0 1 .013.239l-.234.012.084.219a.12.12 0 1 1-.224.086l-.084-.219-.182.148a.12.12 0 0 1-.169-.018.12.12 0 0 1 .018-.169zm1.5 0-.197-.128a.12.12 0 0 1-.035-.166.12.12 0 0 1 .166-.035l.197.128.061-.227a.12.12 0 0 1 .232.062l-.061.227.234-.012a.12.12 0 0 1 .013.239l-.234.012.084.219a.12.12 0 1 1-.224.086l-.084-.219-.182.148a.12.12 0 0 1-.169-.018.12.12 0 0 1 .018-.169zm1.5 0-.197-.128a.12.12 0 0 1-.035-.166.12.12 0 0 1 .166-.035l.197.128.061-.227a.12.12 0 0 1 .232.062l-.061.227.234-.012a.12.12 0 0 1 .013.239l-.234.012.084.219a.12.12 0 1 1-.224.086l-.084-.219-.182.148a.12.12 0 0 1-.169-.018.12.12 0 0 1 .018-.169zm1.5 0-.197-.128a.12.12 0 0 1-.035-.166.12.12 0 0 1 .166-.035l.197.128.061-.227a.12.12 0 0 1 .232.062l-.061.227.234-.012a.12.12 0 0 1 .013.239l-.234.012.084.219a.12.12 0 1 1-.224.086l-.084-.219-.182.148a.12.12 0 0 1-.169-.018.12.12 0 0 1 .018-.169zm1.5 0-.197-.128a.12.12 0 0 1-.035-.166.12.12 0 0 1 .166-.035l.197.128.061-.227a.12.12 0 0 1 .232.062l-.061.227.234-.012a.12.12 0 0 1 .013.239l-.234.012.084.219a.12.12 0 1 1-.224.086l-.084-.219-.182.148a.12.12 0 0 1-.169-.018.12.12 0 0 1 .018-.169zm1.5 0-.197-.128a.12.12 0 0 1-.035-.166.12.12 0 0 1 .166-.035l.197.128.061-.227a.12.12 0 0 1 .232.062l-.061.227.234-.012a.12.12 0 0 1 .013.239l-.234.012.084.219a.12.12 0 1 1-.224.086l-.084-.219-.182.148a.12.12 0 0 1-.169-.018.12.12 0 0 1 .018-.169z"/><path fill="#e5c200" d="m.758 8.012-.197-.128a.12.12 0 0 1-.035-.166.12.12 0 0 1 .166-.035l.197.128.061-.227a.12.12 0 0 1 .232.062l-.061.227.234-.012a.12.12 0 0 1 .013.239l-.234.012.084.219a.12.12 0 1 1-.224.086L.91 8.198l-.182.148a.12.12 0 0 1-.169-.018.12.12 0 0 1 .018-.169l.182-.148Zm1.5 0-.197-.128a.12.12 0 0 1-.035-.166.12.12 0 0 1 .166-.035l.197.128.061-.227a.12.12 0 0 1 .232.062l-.061.227.234-.012a.12.12 0 0 1 .013.239l-.234.012.084.219a.12.12 0 1 1-.224.086l-.084-.219-.182.148a.12.12 0 0 1-.169-.018.12.12 0 0 1 .018-.169zm1.5 0-.197-.128a.12.12 0 0 1-.035-.166.12.12 0 0 1 .166-.035l.197.128.061-.227a.12.12 0 0 1 .232.062l-.061.227.234-.012a.12.12 0 0 1 .013.239l-.234.012.084.219a.12.12 0 1 1-.224.086l-.084-.219-.182.148a.12.12 0 0 1-.169-.018.12.12 0 0 1 .018-.169zm1.5 0-.197-.128a.12.12 0 0 1-.035-.166.12.12 0 0 1 .166-.035l.197.128.061-.227a.12.12 0 0 1 .232.062l-.061.227.234-.012a.12.12 0 0 1 .013.239l-.234.012.084.219a.12.12 0 1 1-.224.086l-.084-.219-.182.148a.12.12 0 0 1-.169-.018.12.12 0 0 1 .018-.169l.182-.148Zm1.5 0-.197-.128a.12.12 0 0 1-.035-.166.12.12 0 0 1 .166-.035l.197.128.061-.227a.12.12 0 0 1 .232.062l-.061.227.234-.012a.12.12 0 0 1 .013.239l-.234.012.084.219a.12.12 0 1 1-.224.086l-.084-.219-.182.148a.12.12 0 0 1-.169-.018.12.12 0 0 1 .018-.169l.182-.148Zm1.5 0-.197-.128a.12.12 0 0 1-.035-.166.12.12 0 0 1 .166-.035l.197.128.061-.227a.12.12 0 0 1 .232.062l-.061.227.234-.012a.12.12 0 0 1 .013.239l-.234.012.084.219a.12.12 0 1 1-.224.086l-.084-.219-.182.148a.12.12 0 0 1-.169-.018.12.12 0 0 1 .018-.169zm1.5 0-.197-.128a.12.12 0 0 1-.035-.166.12.12 0 0 1 .166-.035l.197.128.061-.227a.12.12 0 0 1 .232.062l-.061.227.234-.012a.12.12 0 0 1 .013.239l-.234.012.084.219a.12.12 0 1 1-.224.086l-.084-.219-.182.148a.12.12 0 0 1-.169-.018.12.12 0 0 1 .018-.169zm1.5 0-.197-.128a.12.12 0 0 1-.035-.166.12.12 0 0 1 .166-.035l.197.128.061-.227a.12.12 0 0 1 .232.062l-.061.227.234-.012a.12.12 0 0 1 .013.239l-.234.012.084.219a.12.12 0 1 1-.224.086l-.084-.219-.182.148a.12.12 0 0 1-.169-.018.12.12 0 0 1 .018-.169zm1.5 0-.197-.128a.12.12 0 0 1-.035-.166.12.12 0 0 1 .166-.035l.197.128.061-.227a.12.12 0 0 1 .232.062l-.061.227.234-.012a.12.12 0 0 1 .013.239l-.234.012.084.219a.12.12 0 1 1-.224.086l-.084-.219-.182.148a.12.12 0 0 1-.169-.018.12.12 0 0 1 .018-.169zm1.5 0-.197-.128a.12.12 0 0 1-.035-.166.12.12 0 0 1 .166-.035l.197.128.061-.227a.12.12 0 0 1 .232.062l-.061.227.234-.012a.12.12 0 0 1 .013.239l-.234.012.084.219a.12.12 0 1 1-.224.086l-.084-.219-.182.148a.12.12 0 0 1-.169-.018.12.12 0 0 1 .018-.169zm-13.013.999-.197-.128a.12.12 0 0 1-.035-.166.12.12 0 0 1 .166-.035l.197.128.061-.227a.12.12 0 0 1 .232.062l-.061.227.234-.012a.12.12 0 0 1 .013.239l-.234.012.084.219a.12.12 0 1 1-.224.086l-.084-.219-.182.148a.12.12 0 0 1-.169-.018.12.12 0 0 1 .018-.169zm1.5 0-.197-.128a.12.12 0 0 1-.035-.166.12.12 0 0 1 .166-.035l.197.128.061-.227a.12.12 0 0 1 .232.062l-.061.227.234-.012a.12.12 0 0 1 .013.239l-.234.012.084.219a.12.12 0 1 1-.224.086l-.084-.219-.182.148a.12.12 0 0 1-.169-.018.12.12 0 0 1 .018-.169zm1.5 0-.197-.128a.12.12 0 0 1-.035-.166.12.12 0 0 1 .166-.035l.197.128.061-.227a.12.12 0 0 1 .232.062l-.061.227.234-.012a.12.12 0 0 1 .013.239l-.234.012.084.219a.12.12 0 1 1-.224.086l-.084-.219-.182.148a.12.12 0 0 1-.169-.018.12.12 0 0 1 .018-.169zm1.5 0-.197-.128a.12.12 0 0 1-.035-.166.12.12 0 0 1 .166-.035l.197.128.061-.227a.12.12 0 0 1 .232.062l-.061.227.234-.012a.12.12 0 0 1 .013.239l-.234.012.084.219a.12.12 0 1 1-.224.086l-.084-.219-.182.148a.12.12 0 0 1-.169-.018.12.12 0 0 1 .018-.169zm1.5 0-.197-.128a.12.12 0 0 1-.035-.166.12.12 0 0 1 .166-.035l.197.128.061-.227a.12.12 0 0 1 .232.062l-.061.227.234-.012a.12.12 0 0 1 .013.239l-.234.012.084.219a.12.12 0 1 1-.224.086l-.084-.219-.182.148a.12.12 0 0 1-.169-.018.12.12 0 0 1 .018-.169zm1.5 0-.197-.128a.12.12 0 0 1-.035-.166.12.12 0 0 1 .166-.035l.197.128.061-.227a.12.12 0 0 1 .232.062l-.061.227.234-.012a.12.12 0 0 1 .013.239l-.234.012.084.219a.12.12 0 1 1-.224.086l-.084-.219-.182.148a.12.12 0 0 1-.169-.018.12.12 0 0 1 .018-.169zm1.5 0-.197-.128a.12.12 0 0 1-.035-.166.12.12 0 0 1 .166-.035l.197.128.061-.227a.12.12 0 0 1 .232.062l-.061.227.234-.012a.12.12 0 0 1 .013.239l-.234.012.084.219a.12.12 0 1 1-.224.086l-.084-.219-.182.148a.12.12 0 0 1-.169-.018.12.12 0 0 1 .018-.169zm1.5 0-.197-.128a.12.12 0 0 1-.035-.166.12.12 0 0 1 .166-.035l.197.128.061-.227a.12.12 0 0 1 .232.062l-.061.227.234-.012a.12.12 0 0 1 .013.239l-.234.012.084.219a.12.12 0 1 1-.224.086l-.084-.219-.182.148a.12.12 0 0 1-.169-.018.12.12 0 0 1 .018-.169zm1.5 0-.197-.128a.12.12 0 0 1-.035-.166.12.12 0 0 1 .166-.035l.197.128.061-.227a.12.12 0 0 1 .232.062l-.061.227.234-.012a.12.12 0 0 1 .013.239l-.234.012.084.219a.12.12 0 1 1-.224.086l-.084-.219-.182.148a.12.12 0 0 1-.169-.018.12.12 0 0 1 .018-.169zm1.5 0-.197-.128a.12.12 0 0 1-.035-.166.12.12 0 0 1 .166-.035l.197.128.061-.227a.12.12 0 0 1 .232.062l-.061.227.234-.012a.12.12 0 0 1 .013.239l-.234.012.084.219a.12.12 0 1 1-.224.086l-.084-.219-.182.148a.12.12 0 0 1-.169-.018.12.12 0 0 1 .018-.169z"/><path fill="#e5c200" d="m1.245 9.011-.197-.128a.12.12 0 0 1-.035-.166.12.12 0 0 1 .166-.035l.197.128.061-.227a.12.12 0 0 1 .232.062l-.061.227.234-.012a.12.12 0 0 1 .013.239l-.234.012.084.219a.12.12 0 1 1-.224.086l-.084-.219-.182.148a.12.12 0 0 1-.169-.018.12.12 0 0 1 .018-.169l.182-.148Zm1.5 0-.197-.128a.12.12 0 0 1-.035-.166.12.12 0 0 1 .166-.035l.197.128.061-.227a.12.12 0 0 1 .232.062l-.061.227.234-.012a.12.12 0 0 1 .013.239l-.234.012.084.219a.12.12 0 1 1-.224.086l-.084-.219-.182.148a.12.12 0 0 1-.169-.018.12.12 0 0 1 .018-.169l.182-.148Zm1.5 0-.197-.128a.12.12 0 0 1-.035-.166.12.12 0 0 1 .166-.035l.197.128.061-.227a.12.12 0 0 1 .232.062l-.061.227.234-.012a.12.12 0 0 1 .013.239l-.234.012.084.219a.12.12 0 1 1-.224.086l-.084-.219-.182.148a.12.12 0 0 1-.169-.018.12.12 0 0 1 .018-.169l.182-.148Zm1.5 0-.197-.128a.12.12 0 0 1-.035-.166.12.12 0 0 1 .166-.035l.197.128.061-.227a.12.12 0 0 1 .232.062l-.061.227.234-.012a.12.12 0 0 1 .013.239l-.234.012.084.219a.12.12 0 1 1-.224.086l-.084-.219-.182.148a.12.12 0 0 1-.169-.018.12.12 0 0 1 .018-.169l.182-.148Zm1.5 0-.197-.128a.12.12 0 0 1-.035-.166.12.12 0 0 1 .166-.035l.197.128.061-.227a.12.12 0 0 1 .232.062l-.061.227.234-.012a.12.12 0 0 1 .013.239l-.234.012.084.219a.12.12 0 1 1-.224.086l-.084-.219-.182.148a.12.12 0 0 1-.169-.018.12.12 0 0 1 .018-.169l.182-.148Zm1.5 0-.197-.128a.12.12 0 0 1-.035-.166.12.12 0 0 1 .166-.035l.197.128.061-.227a.12.12 0 0 1 .232.062l-.061.227.234-.012a.12.12 0 0 1 .013.239l-.234.012.084.219a.12.12 0 1 1-.224.086l-.084-.219-.182.148a.12.12 0 0 1-.169-.018.12.12 0 0 1 .018-.169l.182-.148Zm1.5 0-.197-.128a.12.12 0 0 1-.035-.166.12.12 0 0 1 .166-.035l.197.128.061-.227a.12.12 0 0 1 .232.062l-.061.227.234-.012a.12.12 0 0 1 .013.239l-.234.012.084.219a.12.12 0 1 1-.224.086l-.084-.219-.182.148a.12.12 0 0 1-.169-.018.12.12 0 0 1 .018-.169l.182-.148Zm1.5 0-.197-.128a.12.12 0 0 1-.035-.166.12.12 0 0 1 .166-.035l.197.128.061-.227a.12.12 0 0 1 .232.062l-.061.227.234-.012a.12.12 0 0 1 .013.239l-.234.012.084.219a.12.12 0 1 1-.224.086l-.084-.219-.182.148a.12.12 0 0 1-.169-.018.12.12 0 0 1 .018-.169l.182-.148Zm1.5 0-.197-.128a.12.12 0 0 1-.035-.166.12.12 0 0 1 .166-.035l.197.128.061-.227a.12.12 0 0 1 .232.062l-.061.227.234-.012a.12.12 0 0 1 .013.239l-.234.012.084.219a.12.12 0 1 1-.224.086l-.084-.219-.182.148a.12.12 0 0 1-.169-.018.12.12 0 0 1 .018-.169l.182-.148Zm1.5 0-.197-.128a.12.12 0 0 1-.035-.166.12.12 0 0 1 .166-.035l.197.128.061-.227a.12.12 0 0 1 .232.062l-.061.227.234-.012a.12.12 0 0 1 .013.239l-.234.012.084.219a.12.12 0 1 1-.224.086l-.084-.219-.182.148a.12.12 0 0 1-.169-.018.12.12 0 0 1 .018-.169l.182-.148ZM.232 10.01l-.197-.128A.12.12 0 0 1 0 9.716a.12.12 0 0 1 .166-.035l.197.128.061-.227a.12.12 0 0 1 .232.062l-.061.227.234-.012a.12.12 0 0 1 .013.239l-.234.012.084.219a.12.12 0 1 1-.224.086l-.084-.219-.182.148a.12.12 0 0 1-.169-.018.12.12 0 0 1 .018-.169l.182-.148Zm1.5 0-.197-.128a.12.12 0 0 1-.035-.166.12.12 0 0 1 .166-.035l.197.128.061-.227a.12.12 0 0 1 .232.062l-.061.227.234-.012a.12.12 0 0 1 .013.239l-.234.012.084.219a.12.12 0 1 1-.224.086l-.084-.219-.182.148a.12.12 0 0 1-.169-.018.12.12 0 0 1 .018-.169l.182-.148Zm1.5 0-.197-.128A.12.12 0 0 1 3 9.716a.12.12 0 0 1 .166-.035l.197.128.061-.227a.12.12 0 0 1 .232.062l-.061.227.234-.012a.12.12 0 0 1 .013.239l-.234.012.084.219a.12.12 0 1 1-.224.086l-.084-.219-.182.148a.12.12 0 0 1-.169-.018.12.12 0 0 1 .018-.169l.182-.148Zm1.5 0-.197-.128a.12.12 0 0 1-.035-.166.12.12 0 0 1 .166-.035l.197.128.061-.227a.12.12 0 0 1 .232.062l-.061.227.234-.012a.12.12 0 0 1 .013.239l-.234.012.084.219a.12.12 0 1 1-.224.086l-.084-.219-.182.148a.12.12 0 0 1-.169-.018.12.12 0 0 1 .018-.169l.182-.148Zm1.5 0-.197-.128A.12.12 0 0 1 6 9.716a.12.12 0 0 1 .166-.035l.197.128.061-.227a.12.12 0 0 1 .232.062l-.061.227.234-.012a.12.12 0 0 1 .013.239l-.234.012.084.219a.12.12 0 1 1-.224.086l-.084-.219-.182.148a.12.12 0 0 1-.169-.018.12.12 0 0 1 .018-.169l.182-.148Zm1.5 0-.197-.128a.12.12 0 0 1-.035-.166.12.12 0 0 1 .166-.035l.197.128.061-.227a.12.12 0 0 1 .232.062l-.061.227.234-.012a.12.12 0 0 1 .013.239l-.234.012.084.219a.12.12 0 1 1-.224.086l-.084-.219-.182.148a.12.12 0 0 1-.169-.018.12.12 0 0 1 .018-.169l.182-.148Zm1.5 0-.197-.128A.12.12 0 0 1 9 9.716a.12.12 0 0 1 .166-.035l.197.128.061-.227a.12.12 0 0 1 .232.062l-.061.227.234-.012a.12.12 0 0 1 .013.239l-.234.012.084.219a.12.12 0 1 1-.224.086l-.084-.219-.182.148a.12.12 0 0 1-.169-.018.12.12 0 0 1 .018-.169l.182-.148Zm1.5 0-.197-.128a.12.12 0 0 1-.035-.166.12.12 0 0 1 .166-.035l.197.128.061-.227a.12.12 0 0 1 .232.062l-.061.227.234-.012a.12.12 0 0 1 .013.239l-.234.012.084.219a.12.12 0 1 1-.224.086l-.084-.219-.182.148a.12.12 0 0 1-.169-.018.12.12 0 0 1 .018-.169l.182-.148Zm1.5 0-.197-.128A.12.12 0 0 1 12 9.716a.12.12 0 0 1 .166-.035l.197.128.061-.227a.12.12 0 0 1 .232.062l-.061.227.234-.012a.12.12 0 0 1 .013.239l-.234.012.084.219a.12.12 0 1 1-.224.086l-.084-.219-.182.148a.12.12 0 0 1-.169-.018.12.12 0 0 1 .018-.169l.182-.148Zm1.5 0-.197-.128a.12.12 0 0 1-.035-.166.12.12 0 0 1 .166-.035l.197.128.061-.227a.12.12 0 0 1 .232.062l-.061.227.234-.012a.12.12 0 0 1 .013.239l-.234.012.084.219a.12.12 0 1 1-.224.086l-.084-.219-.182.148a.12.12 0 0 1-.169-.018.12.12 0 0 1 .018-.169l.182-.148Z"/><path fill="#e5c200" d="m.232 10.01-.197-.128A.12.12 0 0 1 0 9.716a.12.12 0 0 1 .166-.035l.197.128.061-.227a.12.12 0 0 1 .232.062l-.061.227.234-.012a.12.12 0 0 1 .013.239l-.234.012.084.219a.12.12 0 1 1-.224.086l-.084-.219-.182.148a.12.12 0 0 1-.169-.018.12.12 0 0 1 .018-.169l.182-.148Zm1.5 0-.197-.128a.12.12 0 0 1-.035-.166.12.12 0 0 1 .166-.035l.197.128.061-.227a.12.12 0 0 1 .232.062l-.061.227.234-.012a.12.12 0 0 1 .013.239l-.234.012.084.219a.12.12 0 1 1-.224.086l-.084-.219-.182.148a.12.12 0 0 1-.169-.018.12.12 0 0 1 .018-.169l.182-.148Zm1.5 0-.197-.128A.12.12 0 0 1 3 9.716a.12.12 0 0 1 .166-.035l.197.128.061-.227a.12.12 0 0 1 .232.062l-.061.227.234-.012a.12.12 0 0 1 .013.239l-.234.012.084.219a.12.12 0 1 1-.224.086l-.084-.219-.182.148a.12.12 0 0 1-.169-.018.12.12 0 0 1 .018-.169l.182-.148Zm1.5 0-.197-.128a.12.12 0 0 1-.035-.166.12.12 0 0 1 .166-.035l.197.128.061-.227a.12.12 0 0 1 .232.062l-.061.227.234-.012a.12.12 0 0 1 .013.239l-.234.012.084.219a.12.12 0 1 1-.224.086l-.084-.219-.182.148a.12.12 0 0 1-.169-.018.12.12 0 0 1 .018-.169l.182-.148Zm1.5 0-.197-.128A.12.12 0 0 1 6 9.716a.12.12 0 0 1 .166-.035l.197.128.061-.227a.12.12 0 0 1 .232.062l-.061.227.234-.012a.12.12 0 0 1 .013.239l-.234.012.084.219a.12.12 0 1 1-.224.086l-.084-.219-.182.148a.12.12 0 0 1-.169-.018.12.12 0 0 1 .018-.169l.182-.148Zm1.5 0-.197-.128a.12.12 0 0 1-.035-.166.12.12 0 0 1 .166-.035l.197.128.061-.227a.12.12 0 0 1 .232.062l-.061.227.234-.012a.12.12 0 0 1 .013.239l-.234.012.084.219a.12.12 0 1 1-.224.086l-.084-.219-.182.148a.12.12 0 0 1-.169-.018.12.12 0 0 1 .018-.169l.182-.148Zm1.5 0-.197-.128A.12.12 0 0 1 9 9.716a.12.12 0 0 1 .166-.035l.197.128.061-.227a.12.12 0 0 1 .232.062l-.061.227.234-.012a.12.12 0 0 1 .013.239l-.234.012.084.219a.12.12 0 1 1-.224.086l-.084-.219-.182.148a.12.12 0 0 1-.169-.018.12.12 0 0 1 .018-.169l.182-.148Zm1.5 0-.197-.128a.12.12 0 0 1-.035-.166.12.12 0 0 1 .166-.035l.197.128.061-.227a.12.12 0 0 1 .232.062l-.061.227.234-.012a.12.12 0 0 1 .013.239l-.234.012.084.219a.12.12 0 1 1-.224.086l-.084-.219-.182.148a.12.12 0 0 1-.169-.018.12.12 0 0 1 .018-.169l.182-.148Zm1.5 0-.197-.128A.12.12 0 0 1 12 9.716a.12.12 0 0 1 .166-.035l.197.128.061-.227a.12.12 0 0 1 .232.062l-.061.227.234-.012a.12.12 0 0 1 .013.239l-.234.012.084.219a.12.12 0 1 1-.224.086l-.084-.219-.182.148a.12.12 0 0 1-.169-.018.12.12 0 0 1 .018-.169l.182-.148Zm1.5 0-.197-.128a.12.12 0 0 1-.035-.166.12.12 0 0 1 .166-.035l.197.128.061-.227a.12.12 0 0 1 .232.062l-.061.227.234-.012a.12.12 0 0 1 .013.239l-.234.012.084.219a.12.12 0 1 1-.224.086l-.084-.219-.182.148a.12.12 0 0 1-.169-.018.12.12 0 0 1 .018-.169l.182-.148ZM.758 11.012l-.197-.128a.12.12 0 0 1-.035-.166.12.12 0 0 1 .166-.035l.197.128.061-.227a.12.12 0 0 1 .232.062l-.061.227.234-.012a.12.12 0 0 1 .013.239l-.234.012.084.219a.12.12 0 1 1-.224.086l-.084-.219-.182.148a.12.12 0 0 1-.169-.018.12.12 0 0 1 .018-.169l.182-.148Zm1.5 0-.197-.128a.12.12 0 0 1-.035-.166.12.12 0 0 1 .166-.035l.197.128.061-.227a.12.12 0 0 1 .232.062l-.061.227.234-.012a.12.12 0 0 1 .013.239l-.234.012.084.219a.12.12 0 1 1-.224.086l-.084-.219-.182.148a.12.12 0 0 1-.169-.018.12.12 0 0 1 .018-.169l.182-.148Zm1.5 0-.197-.128a.12.12 0 0 1-.035-.166.12.12 0 0 1 .166-.035l.197.128.061-.227a.12.12 0 0 1 .232.062l-.061.227.234-.012a.12.12 0 0 1 .013.239l-.234.012.084.219a.12.12 0 1 1-.224.086l-.084-.219-.182.148a.12.12 0 0 1-.169-.018.12.12 0 0 1 .018-.169l.182-.148Zm1.5 0-.197-.128a.12.12 0 0 1-.035-.166.12.12 0 0 1 .166-.035l.197.128.061-.227a.12.12 0 0 1 .232.062l-.061.227.234-.012a.12.12 0 0 1 .013.239l-.234.012.084.219a.12.12 0 1 1-.224.086l-.084-.219-.182.148a.12.12 0 0 1-.169-.018.12.12 0 0 1 .018-.169l.182-.148Zm1.5 0-.197-.128a.12.12 0 0 1-.035-.166.12.12 0 0 1 .166-.035l.197.128.061-.227a.12.12 0 0 1 .232.062l-.061.227.234-.012a.12.12 0 0 1 .013.239l-.234.012.084.219a.12.12 0 1 1-.224.086l-.084-.219-.182.148a.12.12 0 0 1-.169-.018.12.12 0 0 1 .018-.169l.182-.148Zm1.5 0-.197-.128a.12.12 0 0 1-.035-.166.12.12 0 0 1 .166-.035l.197.128.061-.227a.12.12 0 0 1 .232.062l-.061.227.234-.012a.12.12 0 0 1 .013.239l-.234.012.084.219a.12.12 0 1 1-.224.086l-.084-.219-.182.148a.12.12 0 0 1-.169-.018.12.12 0 0 1 .018-.169l.182-.148Zm1.5 0-.197-.128a.12.12 0 0 1-.035-.166.12.12 0 0 1 .166-.035l.197.128.061-.227a.12.12 0 0 1 .232.062l-.061.227.234-.012a.12.12 0 0 1 .013.239l-.234.012.084.219a.12.12 0 1 1-.224.086l-.084-.219-.182.148a.12.12 0 0 1-.169-.018.12.12 0 0 1 .018-.169l.182-.148Zm1.5 0-.197-.128a.12.12 0 0 1-.035-.166.12.12 0 0 1 .166-.035l.197.128.061-.227a.12.12 0 0 1 .232.062l-.061.227.234-.012a.12.12 0 0 1 .013.239l-.234.012.084.219a.12.12 0 1 1-.224.086l-.084-.219-.182.148a.12.12 0 0 1-.169-.018.12.12 0 0 1 .018-.169l.182-.148Zm1.5 0-.197-.128a.12.12 0 0 1-.035-.166.12.12 0 0 1 .166-.035l.197.128.061-.227a.12.12 0 0 1 .232.062l-.061.227.234-.012a.12.12 0 0 1 .013.239l-.234.012.084.219a.12.12 0 1 1-.224.086l-.084-.219-.182.148a.12.12 0 0 1-.169-.018.12.12 0 0 1 .018-.169l.182-.148Zm1.5 0-.197-.128a.12.12 0 0 1-.035-.166.12.12 0 0 1 .166-.035l.197.128.061-.227a.12.12 0 0 1 .232.062l-.061.227.234-.012a.12.12 0 0 1 .013.239l-.234.012.084.219a.12.12 0 1 1-.224.086l-.084-.219-.182.148a.12.12 0 0 1-.169-.018.12.12 0 0 1 .018-.169l.182-.148Z"/><path fill="#e5c200" d="m.758 11.012-.197-.128a.12.12 0 0 1-.035-.166.12.12 0 0 1 .166-.035l.197.128.061-.227a.12.12 0 0 1 .232.062l-.061.227.234-.012a.12.12 0 0 1 .013.239l-.234.012.084.219a.12.12 0 1 1-.224.086l-.084-.219-.182.148a.12.12 0 0 1-.169-.018.12.12 0 0 1 .018-.169l.182-.148Zm1.5 0-.197-.128a.12.12 0 0 1-.035-.166.12.12 0 0 1 .166-.035l.197.128.061-.227a.12.12 0 0 1 .232.062l-.061.227.234-.012a.12.12 0 0 1 .013.239l-.234.012.084.219a.12.12 0 1 1-.224.086l-.084-.219-.182.148a.12.12 0 0 1-.169-.018.12.12 0 0 1 .018-.169l.182-.148Zm1.5 0-.197-.128a.12.12 0 0 1-.035-.166.12.12 0 0 1 .166-.035l.197.128.061-.227a.12.12 0 0 1 .232.062l-.061.227.234-.012a.12.12 0 0 1 .013.239l-.234.012.084.219a.12.12 0 1 1-.224.086l-.084-.219-.182.148a.12.12 0 0 1-.169-.018.12.12 0 0 1 .018-.169l.182-.148Zm1.5 0-.197-.128a.12.12 0 0 1-.035-.166.12.12 0 0 1 .166-.035l.197.128.061-.227a.12.12 0 0 1 .232.062l-.061.227.234-.012a.12.12 0 0 1 .013.239l-.234.012.084.219a.12.12 0 1 1-.224.086l-.084-.219-.182.148a.12.12 0 0 1-.169-.018.12.12 0 0 1 .018-.169l.182-.148Zm1.5 0-.197-.128a.12.12 0 0 1-.035-.166.12.12 0 0 1 .166-.035l.197.128.061-.227a.12.12 0 0 1 .232.062l-.061.227.234-.012a.12.12 0 0 1 .013.239l-.234.012.084.219a.12.12 0 1 1-.224.086l-.084-.219-.182.148a.12.12 0 0 1-.169-.018.12.12 0 0 1 .018-.169l.182-.148Zm1.5 0-.197-.128a.12.12 0 0 1-.035-.166.12.12 0 0 1 .166-.035l.197.128.061-.227a.12.12 0 0 1 .232.062l-.061.227.234-.012a.12.12 0 0 1 .013.239l-.234.012.084.219a.12.12 0 1 1-.224.086l-.084-.219-.182.148a.12.12 0 0 1-.169-.018.12.12 0 0 1 .018-.169l.182-.148Zm1.5 0-.197-.128a.12.12 0 0 1-.035-.166.12.12 0 0 1 .166-.035l.197.128.061-.227a.12.12 0 0 1 .232.062l-.061.227.234-.012a.12.12 0 0 1 .013.239l-.234.012.084.219a.12.12 0 1 1-.224.086l-.084-.219-.182.148a.12.12 0 0 1-.169-.018.12.12 0 0 1 .018-.169l.182-.148Zm1.5 0-.197-.128a.12.12 0 0 1-.035-.166.12.12 0 0 1 .166-.035l.197.128.061-.227a.12.12 0 0 1 .232.062l-.061.227.234-.012a.12.12 0 0 1 .013.239l-.234.012.084.219a.12.12 0 1 1-.224.086l-.084-.219-.182.148a.12.12 0 0 1-.169-.018.12.12 0 0 1 .018-.169l.182-.148Zm1.5 0-.197-.128a.12.12 0 0 1-.035-.166.12.12 0 0 1 .166-.035l.197.128.061-.227a.12.12 0 0 1 .232.062l-.061.227.234-.012a.12.12 0 0 1 .013.239l-.234.012.084.219a.12.12 0 1 1-.224.086l-.084-.219-.182.148a.12.12 0 0 1-.169-.018.12.12 0 0 1 .018-.169l.182-.148Zm1.5 0-.197-.128a.12.12 0 0 1-.035-.166.12.12 0 0 1 .166-.035l.197.128.061-.227a.12.12 0 0 1 .232.062l-.061.227.234-.012a.12.12 0 0 1 .013.239l-.234.012.084.219a.12.12 0 1 1-.224.086l-.084-.219-.182.148a.12.12 0 0 1-.169-.018.12.12 0 0 1 .018-.169l.182-.148Zm-13.013.999-.197-.128a.12.12 0 0 1-.035-.166.12.12 0 0 1 .166-.035l.197.128.061-.227a.12.12 0 0 1 .232.062l-.061.227.234-.012a.12.12 0 0 1 .013.239l-.234.012.084.219a.12.12 0 1 1-.224.086l-.084-.219-.182.148a.12.12 0 0 1-.169-.018.12.12 0 0 1 .018-.169zm1.5 0-.197-.128a.12.12 0 0 1-.035-.166.12.12 0 0 1 .166-.035l.197.128.061-.227a.12.12 0 0 1 .232.062l-.061.227.234-.012a.12.12 0 0 1 .013.239l-.234.012.084.219a.12.12 0 1 1-.224.086l-.084-.219-.182.148a.12.12 0 0 1-.169-.018.12.12 0 0 1 .018-.169zm1.5 0-.197-.128a.12.12 0 0 1-.035-.166.12.12 0 0 1 .166-.035l.197.128.061-.227a.12.12 0 0 1 .232.062l-.061.227.234-.012a.12.12 0 0 1 .013.239l-.234.012.084.219a.12.12 0 1 1-.224.086l-.084-.219-.182.148a.12.12 0 0 1-.169-.018.12.12 0 0 1 .018-.169zm1.5 0-.197-.128a.12.12 0 0 1-.035-.166.12.12 0 0 1 .166-.035l.197.128.061-.227a.12.12 0 0 1 .232.062l-.061.227.234-.012a.12.12 0 0 1 .013.239l-.234.012.084.219a.12.12 0 1 1-.224.086l-.084-.219-.182.148a.12.12 0 0 1-.169-.018.12.12 0 0 1 .018-.169zm1.5 0-.197-.128a.12.12 0 0 1-.035-.166.12.12 0 0 1 .166-.035l.197.128.061-.227a.12.12 0 0 1 .232.062l-.061.227.234-.012a.12.12 0 0 1 .013.239l-.234.012.084.219a.12.12 0 1 1-.224.086l-.084-.219-.182.148a.12.12 0 0 1-.169-.018.12.12 0 0 1 .018-.169zm1.5 0-.197-.128a.12.12 0 0 1-.035-.166.12.12 0 0 1 .166-.035l.197.128.061-.227a.12.12 0 0 1 .232.062l-.061.227.234-.012a.12.12 0 0 1 .013.239l-.234.012.084.219a.12.12 0 1 1-.224.086l-.084-.219-.182.148a.12.12 0 0 1-.169-.018.12.12 0 0 1 .018-.169zm1.5 0-.197-.128a.12.12 0 0 1-.035-.166.12.12 0 0 1 .166-.035l.197.128.061-.227a.12.12 0 0 1 .232.062l-.061.227.234-.012a.12.12 0 0 1 .013.239l-.234.012.084.219a.12.12 0 1 1-.224.086l-.084-.219-.182.148a.12.12 0 0 1-.169-.018.12.12 0 0 1 .018-.169zm1.5 0-.197-.128a.12.12 0 0 1-.035-.166.12.12 0 0 1 .166-.035l.197.128.061-.227a.12.12 0 0 1 .232.062l-.061.227.234-.012a.12.12 0 0 1 .013.239l-.234.012.084.219a.12.12 0 1 1-.224.086l-.084-.219-.182.148a.12.12 0 0 1-.169-.018.12.12 0 0 1 .018-.169zm1.5 0-.197-.128a.12.12 0 0 1-.035-.166.12.12 0 0 1 .166-.035l.197.128.061-.227a.12.12 0 0 1 .232.062l-.061.227.234-.012a.12.12 0 0 1 .013.239l-.234.012.084.219a.12.12 0 1 1-.224.086l-.084-.219-.182.148a.12.12 0 0 1-.169-.018.12.12 0 0 1 .018-.169zm1.5 0-.197-.128a.12.12 0 0 1-.035-.166.12.12 0 0 1 .166-.035l.197.128.061-.227a.12.12 0 0 1 .232.062l-.061.227.234-.012a.12.12 0 0 1 .013.239l-.234.012.084.219a.12.12 0 1 1-.224.086l-.084-.219-.182.148a.12.12 0 0 1-.169-.018.12.12 0 0 1 .018-.169z"/><path fill="#e5c200" d="m1.245 12.011-.197-.128a.12.12 0 0 1-.035-.166.12.12 0 0 1 .166-.035l.197.128.061-.227a.12.12 0 0 1 .232.062l-.061.227.234-.012a.12.12 0 0 1 .013.239l-.234.012.084.219a.12.12 0 1 1-.224.086l-.084-.219-.182.148a.12.12 0 0 1-.169-.018.12.12 0 0 1 .018-.169l.182-.148Zm1.5 0-.197-.128a.12.12 0 0 1-.035-.166.12.12 0 0 1 .166-.035l.197.128.061-.227a.12.12 0 0 1 .232.062l-.061.227.234-.012a.12.12 0 0 1 .013.239l-.234.012.084.219a.12.12 0 1 1-.224.086l-.084-.219-.182.148a.12.12 0 0 1-.169-.018.12.12 0 0 1 .018-.169l.182-.148Zm1.5 0-.197-.128a.12.12 0 0 1-.035-.166.12.12 0 0 1 .166-.035l.197.128.061-.227a.12.12 0 0 1 .232.062l-.061.227.234-.012a.12.12 0 0 1 .013.239l-.234.012.084.219a.12.12 0 1 1-.224.086l-.084-.219-.182.148a.12.12 0 0 1-.169-.018.12.12 0 0 1 .018-.169l.182-.148Zm1.5 0-.197-.128a.12.12 0 0 1-.035-.166.12.12 0 0 1 .166-.035l.197.128.061-.227a.12.12 0 0 1 .232.062l-.061.227.234-.012a.12.12 0 0 1 .013.239l-.234.012.084.219a.12.12 0 1 1-.224.086l-.084-.219-.182.148a.12.12 0 0 1-.169-.018.12.12 0 0 1 .018-.169l.182-.148Zm1.5 0-.197-.128a.12.12 0 0 1-.035-.166.12.12 0 0 1 .166-.035l.197.128.061-.227a.12.12 0 0 1 .232.062l-.061.227.234-.012a.12.12 0 0 1 .013.239l-.234.012.084.219a.12.12 0 1 1-.224.086l-.084-.219-.182.148a.12.12 0 0 1-.169-.018.12.12 0 0 1 .018-.169l.182-.148Zm1.5 0-.197-.128a.12.12 0 0 1-.035-.166.12.12 0 0 1 .166-.035l.197.128.061-.227a.12.12 0 0 1 .232.062l-.061.227.234-.012a.12.12 0 0 1 .013.239l-.234.012.084.219a.12.12 0 1 1-.224.086l-.084-.219-.182.148a.12.12 0 0 1-.169-.018.12.12 0 0 1 .018-.169l.182-.148Zm1.5 0-.197-.128a.12.12 0 0 1-.035-.166.12.12 0 0 1 .166-.035l.197.128.061-.227a.12.12 0 0 1 .232.062l-.061.227.234-.012a.12.12 0 0 1 .013.239l-.234.012.084.219a.12.12 0 1 1-.224.086l-.084-.219-.182.148a.12.12 0 0 1-.169-.018.12.12 0 0 1 .018-.169l.182-.148Zm1.5 0-.197-.128a.12.12 0 0 1-.035-.166.12.12 0 0 1 .166-.035l.197.128.061-.227a.12.12 0 0 1 .232.062l-.061.227.234-.012a.12.12 0 0 1 .013.239l-.234.012.084.219a.12.12 0 1 1-.224.086l-.084-.219-.182.148a.12.12 0 0 1-.169-.018.12.12 0 0 1 .018-.169l.182-.148Zm1.5 0-.197-.128a.12.12 0 0 1-.035-.166.12.12 0 0 1 .166-.035l.197.128.061-.227a.12.12 0 0 1 .232.062l-.061.227.234-.012a.12.12 0 0 1 .013.239l-.234.012.084.219a.12.12 0 1 1-.224.086l-.084-.219-.182.148a.12.12 0 0 1-.169-.018.12.12 0 0 1 .018-.169l.182-.148Zm1.5 0-.197-.128a.12.12 0 0 1-.035-.166.12.12 0 0 1 .166-.035l.197.128.061-.227a.12.12 0 0 1 .232.062l-.061.227.234-.012a.12.12 0 0 1 .013.239l-.234.012.084.219a.12.12 0 1 1-.224.086l-.084-.219-.182.148a.12.12 0 0 1-.169-.018.12.12 0 0 1 .018-.169l.182-.148ZM.232 13.01l-.197-.128A.12.12 0 0 1 0 12.716a.12.12 0 0 1 .166-.035l.197.128.061-.227a.12.12 0 0 1 .232.062l-.061.227.234-.012a.12.12 0 0 1 .013.239l-.234.012.084.219a.12.12 0 1 1-.224.086l-.084-.219-.182.148a.12.12 0 0 1-.169-.018.12.12 0 0 1 .018-.169l.182-.148Zm1.5 0-.197-.128a.12.12 0 0 1-.035-.166.12.12 0 0 1 .166-.035l.197.128.061-.227a.12.12 0 0 1 .232.062l-.061.227.234-.012a.12.12 0 0 1 .013.239l-.234.012.084.219a.12.12 0 1 1-.224.086l-.084-.219-.182.148a.12.12 0 0 1-.169-.018.12.12 0 0 1 .018-.169l.182-.148Zm1.5 0-.197-.128A.12.12 0 0 1 3 12.716a.12.12 0 0 1 .166-.035l.197.128.061-.227a.12.12 0 0 1 .232.062l-.061.227.234-.012a.12.12 0 0 1 .013.239l-.234.012.084.219a.12.12 0 1 1-.224.086l-.084-.219-.182.148a.12.12 0 0 1-.169-.018.12.12 0 0 1 .018-.169l.182-.148Zm1.5 0-.197-.128a.12.12 0 0 1-.035-.166.12.12 0 0 1 .166-.035l.197.128.061-.227a.12.12 0 0 1 .232.062l-.061.227.234-.012a.12.12 0 0 1 .013.239l-.234.012.084.219a.12.12 0 1 1-.224.086l-.084-.219-.182.148a.12.12 0 0 1-.169-.018.12.12 0 0 1 .018-.169l.182-.148Zm1.5 0-.197-.128A.12.12 0 0 1 6 12.716a.12.12 0 0 1 .166-.035l.197.128.061-.227a.12.12 0 0 1 .232.062l-.061.227.234-.012a.12.12 0 0 1 .013.239l-.234.012.084.219a.12.12 0 1 1-.224.086l-.084-.219-.182.148a.12.12 0 0 1-.169-.018.12.12 0 0 1 .018-.169l.182-.148Zm1.5 0-.197-.128a.12.12 0 0 1-.035-.166.12.12 0 0 1 .166-.035l.197.128.061-.227a.12.12 0 0 1 .232.062l-.061.227.234-.012a.12.12 0 0 1 .013.239l-.234.012.084.219a.12.12 0 1 1-.224.086l-.084-.219-.182.148a.12.12 0 0 1-.169-.018.12.12 0 0 1 .018-.169l.182-.148Zm1.5 0-.197-.128A.12.12 0 0 1 9 12.716a.12.12 0 0 1 .166-.035l.197.128.061-.227a.12.12 0 0 1 .232.062l-.061.227.234-.012a.12.12 0 0 1 .013.239l-.234.012.084.219a.12.12 0 1 1-.224.086l-.084-.219-.182.148a.12.12 0 0 1-.169-.018.12.12 0 0 1 .018-.169l.182-.148Zm1.5 0-.197-.128a.12.12 0 0 1-.035-.166.12.12 0 0 1 .166-.035l.197.128.061-.227a.12.12 0 0 1 .232.062l-.061.227.234-.012a.12.12 0 0 1 .013.239l-.234.012.084.219a.12.12 0 1 1-.224.086l-.084-.219-.182.148a.12.12 0 0 1-.169-.018.12.12 0 0 1 .018-.169l.182-.148Zm1.5 0-.197-.128a.12.12 0 0 1-.035-.166.12.12 0 0 1 .166-.035l.197.128.061-.227a.12.12 0 0 1 .232.062l-.061.227.234-.012a.12.12 0 0 1 .013.239l-.234.012.084.219a.12.12 0 1 1-.224.086l-.084-.219-.182.148a.12.12 0 0 1-.169-.018.12.12 0 0 1 .018-.169l.182-.148Zm1.5 0-.197-.128a.12.12 0 0 1-.035-.166.12.12 0 0 1 .166-.035l.197.128.061-.227a.12.12 0 0 1 .232.062l-.061.227.234-.012a.12.12 0 0 1 .013.239l-.234.012.084.219a.12.12 0 1 1-.224.086l-.084-.219-.182.148a.12.12 0 0 1-.169-.018.12.12 0 0 1 .018-.169l.182-.148Z"/><path fill="#e5c200" d="m.232 13.01-.197-.128A.12.12 0 0 1 0 12.716a.12.12 0 0 1 .166-.035l.197.128.061-.227a.12.12 0 0 1 .232.062l-.061.227.234-.012a.12.12 0 0 1 .013.239l-.234.012.084.219a.12.12 0 1 1-.224.086l-.084-.219-.182.148a.12.12 0 0 1-.169-.018.12.12 0 0 1 .018-.169l.182-.148Z"/><path fill="#e5c200" d="m.232 13.01-.197-.128A.12.12 0 0 1 0 12.716a.12.12 0 0 1 .166-.035l.197.128.061-.227a.12.12 0 0 1 .232.062l-.061.227.234-.012a.12.12 0 0 1 .013.239l-.234.012.084.219a.12.12 0 1 1-.224.086l-.084-.219-.182.148a.12.12 0 0 1-.169-.018.12.12 0 0 1 .018-.169l.182-.148Zm1.5 0-.197-.128a.12.12 0 0 1-.035-.166.12.12 0 0 1 .166-.035l.197.128.061-.227a.12.12 0 0 1 .232.062l-.061.227.234-.012a.12.12 0 0 1 .013.239l-.234.012.084.219a.12.12 0 1 1-.224.086l-.084-.219-.182.148a.12.12 0 0 1-.169-.018.12.12 0 0 1 .018-.169l.182-.148Zm1.5 0-.197-.128A.12.12 0 0 1 3 12.716a.12.12 0 0 1 .166-.035l.197.128.061-.227a.12.12 0 0 1 .232.062l-.061.227.234-.012a.12.12 0 0 1 .013.239l-.234.012.084.219a.12.12 0 1 1-.224.086l-.084-.219-.182.148a.12.12 0 0 1-.169-.018.12.12 0 0 1 .018-.169l.182-.148Zm1.5 0-.197-.128a.12.12 0 0 1-.035-.166.12.12 0 0 1 .166-.035l.197.128.061-.227a.12.12 0 0 1 .232.062l-.061.227.234-.012a.12.12 0 0 1 .013.239l-.234.012.084.219a.12.12 0 1 1-.224.086l-.084-.219-.182.148a.12.12 0 0 1-.169-.018.12.12 0 0 1 .018-.169l.182-.148Zm1.5 0-.197-.128A.12.12 0 0 1 6 12.716a.12.12 0 0 1 .166-.035l.197.128.061-.227a.12.12 0 0 1 .232.062l-.061.227.234-.012a.12.12 0 0 1 .013.239l-.234.012.084.219a.12.12 0 1 1-.224.086l-.084-.219-.182.148a.12.12 0 0 1-.169-.018.12.12 0 0 1 .018-.169l.182-.148Zm1.5 0-.197-.128a.12.12 0 0 1-.035-.166.12.12 0 0 1 .166-.035l.197.128.061-.227a.12.12 0 0 1 .232.062l-.061.227.234-.012a.12.12 0 0 1 .013.239l-.234.012.084.219a.12.12 0 1 1-.224.086l-.084-.219-.182.148a.12.12 0 0 1-.169-.018.12.12 0 0 1 .018-.169l.182-.148Zm1.5 0-.197-.128A.12.12 0 0 1 9 12.716a.12.12 0 0 1 .166-.035l.197.128.061-.227a.12.12 0 0 1 .232.062l-.061.227.234-.012a.12.12 0 0 1 .013.239l-.234.012.084.219a.12.12 0 1 1-.224.086l-.084-.219-.182.148a.12.12 0 0 1-.169-.018.12.12 0 0 1 .018-.169l.182-.148Zm1.5 0-.197-.128a.12.12 0 0 1-.035-.166.12.12 0 0 1 .166-.035l.197.128.061-.227a.12.12 0 0 1 .232.062l-.061.227.234-.012a.12.12 0 0 1 .013.239l-.234.012.084.219a.12.12 0 1 1-.224.086l-.084-.219-.182.148a.12.12 0 0 1-.169-.018.12.12 0 0 1 .018-.169l.182-.148Zm1.5 0-.197-.128a.12.12 0 0 1-.035-.166.12.12 0 0 1 .166-.035l.197.128.061-.227a.12.12 0 0 1 .232.062l-.061.227.234-.012a.12.12 0 0 1 .013.239l-.234.012.084.219a.12.12 0 1 1-.224.086l-.084-.219-.182.148a.12.12 0 0 1-.169-.018.12.12 0 0 1 .018-.169l.182-.148Zm1.5 0-.197-.128a.12.12 0 0 1-.035-.166.12.12 0 0 1 .166-.035l.197.128.061-.227a.12.12 0 0 1 .232.062l-.061.227.234-.012a.12.12 0 0 1 .013.239l-.234.012.084.219a.12.12 0 1 1-.224.086l-.084-.219-.182.148a.12.12 0 0 1-.169-.018.12.12 0 0 1 .018-.169l.182-.148ZM.758 14.012l-.197-.128a.12.12 0 0 1-.035-.166.12.12 0 0 1 .166-.035l.197.128.061-.227a.12.12 0 0 1 .232.062l-.061.227.234-.012a.12.12 0 0 1 .013.239l-.234.012.084.219a.12.12 0 1 1-.224.086l-.084-.219-.182.148a.12.12 0 0 1-.169-.018.12.12 0 0 1 .018-.169l.182-.148Zm1.5 0-.197-.128a.12.12 0 0 1-.035-.166.12.12 0 0 1 .166-.035l.197.128.061-.227a.12.12 0 0 1 .232.062l-.061.227.234-.012a.12.12 0 0 1 .013.239l-.234.012.084.219a.12.12 0 1 1-.224.086l-.084-.219-.182.148a.12.12 0 0 1-.169-.018.12.12 0 0 1 .018-.169l.182-.148Zm1.5 0-.197-.128a.12.12 0 0 1-.035-.166.12.12 0 0 1 .166-.035l.197.128.061-.227a.12.12 0 0 1 .232.062l-.061.227.234-.012a.12.12 0 0 1 .013.239l-.234.012.084.219a.12.12 0 1 1-.224.086l-.084-.219-.182.148a.12.12 0 0 1-.169-.018.12.12 0 0 1 .018-.169l.182-.148Zm1.5 0-.197-.128a.12.12 0 0 1-.035-.166.12.12 0 0 1 .166-.035l.197.128.061-.227a.12.12 0 0 1 .232.062l-.061.227.234-.012a.12.12 0 0 1 .013.239l-.234.012.084.219a.12.12 0 1 1-.224.086l-.084-.219-.182.148a.12.12 0 0 1-.169-.018.12.12 0 0 1 .018-.169l.182-.148Zm1.5 0-.197-.128a.12.12 0 0 1-.035-.166.12.12 0 0 1 .166-.035l.197.128.061-.227a.12.12 0 0 1 .232.062l-.061.227.234-.012a.12.12 0 0 1 .013.239l-.234.012.084.219a.12.12 0 1 1-.224.086l-.084-.219-.182.148a.12.12 0 0 1-.169-.018.12.12 0 0 1 .018-.169l.182-.148Zm1.5 0-.197-.128a.12.12 0 0 1-.035-.166.12.12 0 0 1 .166-.035l.197.128.061-.227a.12.12 0 0 1 .232.062l-.061.227.234-.012a.12.12 0 0 1 .013.239l-.234.012.084.219a.12.12 0 1 1-.224.086l-.084-.219-.182.148a.12.12 0 0 1-.169-.018.12.12 0 0 1 .018-.169l.182-.148Zm1.5 0-.197-.128a.12.12 0 0 1-.035-.166.12.12 0 0 1 .166-.035l.197.128.061-.227a.12.12 0 0 1 .232.062l-.061.227.234-.012a.12.12 0 0 1 .013.239l-.234.012.084.219a.12.12 0 1 1-.224.086l-.084-.219-.182.148a.12.12 0 0 1-.169-.018.12.12 0 0 1 .018-.169l.182-.148Zm1.5 0-.197-.128a.12.12 0 0 1-.035-.166.12.12 0 0 1 .166-.035l.197.128.061-.227a.12.12 0 0 1 .232.062l-.061.227.234-.012a.12.12 0 0 1 .013.239l-.234.012.084.219a.12.12 0 1 1-.224.086l-.084-.219-.182.148a.12.12 0 0 1-.169-.018.12.12 0 0 1 .018-.169l.182-.148Zm1.5 0-.197-.128a.12.12 0 0 1-.035-.166.12.12 0 0 1 .166-.035l.197.128.061-.227a.12.12 0 0 1 .232.062l-.061.227.234-.012a.12.12 0 0 1 .013.239l-.234.012.084.219a.12.12 0 1 1-.224.086l-.084-.219-.182.148a.12.12 0 0 1-.169-.018.12.12 0 0 1 .018-.169l.182-.148Zm1.5 0-.197-.128a.12.12 0 0 1-.035-.166.12.12 0 0 1 .166-.035l.197.128.061-.227a.12.12 0 0 1 .232.062l-.061.227.234-.012a.12.12 0 0 1 .013.239l-.234.012.084.219a.12.12 0 1 1-.224.086l-.084-.219-.182.148a.12.12 0 0 1-.169-.018.12.12 0 0 1 .018-.169l.182-.148Z"/><path fill="#e5c200" d="m.758 14.012-.197-.128a.12.12 0 0 1-.035-.166.12.12 0 0 1 .166-.035l.197.128.061-.227a.12.12 0 0 1 .232.062l-.061.227.234-.012a.12.12 0 0 1 .013.239l-.234.012.084.219a.12.12 0 1 1-.224.086l-.084-.219-.182.148a.12.12 0 0 1-.169-.018.12.12 0 0 1 .018-.169l.182-.148Zm1.5 0-.197-.128a.12.12 0 0 1-.035-.166.12.12 0 0 1 .166-.035l.197.128.061-.227a.12.12 0 0 1 .232.062l-.061.227.234-.012a.12.12 0 0 1 .013.239l-.234.012.084.219a.12.12 0 1 1-.224.086l-.084-.219-.182.148a.12.12 0 0 1-.169-.018.12.12 0 0 1 .018-.169l.182-.148Zm1.5 0-.197-.128a.12.12 0 0 1-.035-.166.12.12 0 0 1 .166-.035l.197.128.061-.227a.12.12 0 0 1 .232.062l-.061.227.234-.012a.12.12 0 0 1 .013.239l-.234.012.084.219a.12.12 0 1 1-.224.086l-.084-.219-.182.148a.12.12 0 0 1-.169-.018.12.12 0 0 1 .018-.169l.182-.148Zm1.5 0-.197-.128a.12.12 0 0 1-.035-.166.12.12 0 0 1 .166-.035l.197.128.061-.227a.12.12 0 0 1 .232.062l-.061.227.234-.012a.12.12 0 0 1 .013.239l-.234.012.084.219a.12.12 0 1 1-.224.086l-.084-.219-.182.148a.12.12 0 0 1-.169-.018.12.12 0 0 1 .018-.169l.182-.148Zm1.5 0-.197-.128a.12.12 0 0 1-.035-.166.12.12 0 0 1 .166-.035l.197.128.061-.227a.12.12 0 0 1 .232.062l-.061.227.234-.012a.12.12 0 0 1 .013.239l-.234.012.084.219a.12.12 0 1 1-.224.086l-.084-.219-.182.148a.12.12 0 0 1-.169-.018.12.12 0 0 1 .018-.169l.182-.148Zm1.5 0-.197-.128a.12.12 0 0 1-.035-.166.12.12 0 0 1 .166-.035l.197.128.061-.227a.12.12 0 0 1 .232.062l-.061.227.234-.012a.12.12 0 0 1 .013.239l-.234.012.084.219a.12.12 0 1 1-.224.086l-.084-.219-.182.148a.12.12 0 0 1-.169-.018.12.12 0 0 1 .018-.169l.182-.148Zm1.5 0-.197-.128a.12.12 0 0 1-.035-.166.12.12 0 0 1 .166-.035l.197.128.061-.227a.12.12 0 0 1 .232.062l-.061.227.234-.012a.12.12 0 0 1 .013.239l-.234.012.084.219a.12.12 0 1 1-.224.086l-.084-.219-.182.148a.12.12 0 0 1-.169-.018.12.12 0 0 1 .018-.169l.182-.148Zm1.5 0-.197-.128a.12.12 0 0 1-.035-.166.12.12 0 0 1 .166-.035l.197.128.061-.227a.12.12 0 0 1 .232.062l-.061.227.234-.012a.12.12 0 0 1 .013.239l-.234.012.084.219a.12.12 0 1 1-.224.086l-.084-.219-.182.148a.12.12 0 0 1-.169-.018.12.12 0 0 1 .018-.169l.182-.148Zm1.5 0-.197-.128a.12.12 0 0 1-.035-.166.12.12 0 0 1 .166-.035l.197.128.061-.227a.12.12 0 0 1 .232.062l-.061.227.234-.012a.12.12 0 0 1 .013.239l-.234.012.084.219a.12.12 0 1 1-.224.086l-.084-.219-.182.148a.12.12 0 0 1-.169-.018.12.12 0 0 1 .018-.169l.182-.148Zm1.5 0-.197-.128a.12.12 0 0 1-.035-.166.12.12 0 0 1 .166-.035l.197.128.061-.227a.12.12 0 0 1 .232.062l-.061.227.234-.012a.12.12 0 0 1 .013.239l-.234.012.084.219a.12.12 0 1 1-.224.086l-.084-.219-.182.148a.12.12 0 0 1-.169-.018.12.12 0 0 1 .018-.169l.182-.148Zm-13.013.999-.197-.128a.12.12 0 0 1-.035-.166.12.12 0 0 1 .166-.035l.197.128.061-.227a.12.12 0 0 1 .232.062l-.061.227.234-.012a.12.12 0 0 1 .013.239l-.234.012.084.219a.12.12 0 1 1-.224.086l-.084-.219-.182.148a.12.12 0 0 1-.169-.018.12.12 0 0 1 .018-.169zm1.5 0-.197-.128a.12.12 0 0 1-.035-.166.12.12 0 0 1 .166-.035l.197.128.061-.227a.12.12 0 0 1 .232.062l-.061.227.234-.012a.12.12 0 0 1 .013.239l-.234.012.084.219a.12.12 0 1 1-.224.086l-.084-.219-.182.148a.12.12 0 0 1-.169-.018.12.12 0 0 1 .018-.169zm1.5 0-.197-.128a.12.12 0 0 1-.035-.166.12.12 0 0 1 .166-.035l.197.128.061-.227a.12.12 0 0 1 .232.062l-.061.227.234-.012a.12.12 0 0 1 .013.239l-.234.012.084.219a.12.12 0 1 1-.224.086l-.084-.219-.182.148a.12.12 0 0 1-.169-.018.12.12 0 0 1 .018-.169zm1.5 0-.197-.128a.12.12 0 0 1-.035-.166.12.12 0 0 1 .166-.035l.197.128.061-.227a.12.12 0 0 1 .232.062l-.061.227.234-.012a.12.12 0 0 1 .013.239l-.234.012.084.219a.12.12 0 1 1-.224.086l-.084-.219-.182.148a.12.12 0 0 1-.169-.018.12.12 0 0 1 .018-.169zm1.5 0-.197-.128a.12.12 0 0 1-.035-.166.12.12 0 0 1 .166-.035l.197.128.061-.227a.12.12 0 0 1 .232.062l-.061.227.234-.012a.12.12 0 0 1 .013.239l-.234.012.084.219a.12.12 0 1 1-.224.086l-.084-.219-.182.148a.12.12 0 0 1-.169-.018.12.12 0 0 1 .018-.169zm1.5 0-.197-.128a.12.12 0 0 1-.035-.166.12.12 0 0 1 .166-.035l.197.128.061-.227a.12.12 0 0 1 .232.062l-.061.227.234-.012a.12.12 0 0 1 .013.239l-.234.012.084.219a.12.12 0 1 1-.224.086l-.084-.219-.182.148a.12.12 0 0 1-.169-.018.12.12 0 0 1 .018-.169zm1.5 0-.197-.128a.12.12 0 0 1-.035-.166.12.12 0 0 1 .166-.035l.197.128.061-.227a.12.12 0 0 1 .232.062l-.061.227.234-.012a.12.12 0 0 1 .013.239l-.234.012.084.219a.12.12 0 1 1-.224.086l-.084-.219-.182.148a.12.12 0 0 1-.169-.018.12.12 0 0 1 .018-.169zm1.5 0-.197-.128a.12.12 0 0 1-.035-.166.12.12 0 0 1 .166-.035l.197.128.061-.227a.12.12 0 0 1 .232.062l-.061.227.234-.012a.12.12 0 0 1 .013.239l-.234.012.084.219a.12.12 0 1 1-.224.086l-.084-.219-.182.148a.12.12 0 0 1-.169-.018.12.12 0 0 1 .018-.169zm1.5 0-.197-.128a.12.12 0 0 1-.035-.166.12.12 0 0 1 .166-.035l.197.128.061-.227a.12.12 0 0 1 .232.062l-.061.227.234-.012a.12.12 0 0 1 .013.239l-.234.012.084.219a.12.12 0 1 1-.224.086l-.084-.219-.182.148a.12.12 0 0 1-.169-.018.12.12 0 0 1 .018-.169zm1.5 0-.197-.128a.12.12 0 0 1-.035-.166.12.12 0 0 1 .166-.035l.197.128.061-.227a.12.12 0 0 1 .232.062l-.061.227.234-.012a.12.12 0 0 1 .013.239l-.234.012.084.219a.12.12 0 1 1-.224.086l-.084-.219-.182.148a.12.12 0 0 1-.169-.018.12.12 0 0 1 .018-.169z"/><path fill="#e5c200" d="m1.245 15.011-.197-.128a.12.12 0 0 1-.035-.166.12.12 0 0 1 .166-.035l.197.128.061-.227a.12.12 0 0 1 .232.062l-.061.227.234-.012a.12.12 0 0 1 .013.239l-.234.012.084.219a.12.12 0 1 1-.224.086l-.084-.219-.182.148a.12.12 0 0 1-.169-.018.12.12 0 0 1 .018-.169l.182-.148Z"/><path fill="#e5c200" d="m1.245 15.011-.197-.128a.12.12 0 0 1-.035-.166.12.12 0 0 1 .166-.035l.197.128.061-.227a.12.12 0 0 1 .232.062l-.061.227.234-.012a.12.12 0 0 1 .013.239l-.234.012.084.219a.12.12 0 1 1-.224.086l-.084-.219-.182.148a.12.12 0 0 1-.169-.018.12.12 0 0 1 .018-.169l.182-.148Zm-1.5.006-.197-.128a.12.12 0 0 1-.035-.166.12.12 0 0 1 .166-.035l.197.128.061-.227a.12.12 0 0 1 .232.062l-.061.227.234-.012a.12.12 0 0 1 .013.239l-.234.012.084.219a.12.12 0 1 1-.224.086l-.084-.219-.182.148a.12.12 0 0 1-.169-.018.12.12 0 0 1 .018-.169l.182-.148Zm3-.006-.197-.128a.12.12 0 0 1-.035-.166.12.12 0 0 1 .166-.035l.197.128.061-.227a.12.12 0 0 1 .232.062l-.061.227.234-.012a.12.12 0 0 1 .013.239l-.234.012.084.219a.12.12 0 1 1-.224.086l-.084-.219-.182.148a.12.12 0 0 1-.169-.018.12.12 0 0 1 .018-.169l.182-.148Zm1.5 0-.197-.128a.12.12 0 0 1-.035-.166.12.12 0 0 1 .166-.035l.197.128.061-.227a.12.12 0 0 1 .232.062l-.061.227.234-.012a.12.12 0 0 1 .013.239l-.234.012.084.219a.12.12 0 1 1-.224.086l-.084-.219-.182.148a.12.12 0 0 1-.169-.018.12.12 0 0 1 .018-.169l.182-.148Zm1.5 0-.197-.128a.12.12 0 0 1-.035-.166.12.12 0 0 1 .166-.035l.197.128.061-.227a.12.12 0 0 1 .232.062l-.061.227.234-.012a.12.12 0 0 1 .013.239l-.234.012.084.219a.12.12 0 1 1-.224.086l-.084-.219-.182.148a.12.12 0 0 1-.169-.018.12.12 0 0 1 .018-.169l.182-.148Zm1.5 0-.197-.128a.12.12 0 0 1-.035-.166.12.12 0 0 1 .166-.035l.197.128.061-.227a.12.12 0 0 1 .232.062l-.061.227.234-.012a.12.12 0 0 1 .013.239l-.234.012.084.219a.12.12 0 1 1-.224.086l-.084-.219-.182.148a.12.12 0 0 1-.169-.018.12.12 0 0 1 .018-.169l.182-.148Zm1.5 0-.197-.128a.12.12 0 0 1-.035-.166.12.12 0 0 1 .166-.035l.197.128.061-.227a.12.12 0 0 1 .232.062l-.061.227.234-.012a.12.12 0 0 1 .013.239l-.234.012.084.219a.12.12 0 1 1-.224.086l-.084-.219-.182.148a.12.12 0 0 1-.169-.018.12.12 0 0 1 .018-.169l.182-.148Zm1.5 0-.197-.128a.12.12 0 0 1-.035-.166.12.12 0 0 1 .166-.035l.197.128.061-.227a.12.12 0 0 1 .232.062l-.061.227.234-.012a.12.12 0 0 1 .013.239l-.234.012.084.219a.12.12 0 1 1-.224.086l-.084-.219-.182.148a.12.12 0 0 1-.169-.018.12.12 0 0 1 .018-.169l.182-.148Zm1.5 0-.197-.128a.12.12 0 0 1-.035-.166.12.12 0 0 1 .166-.035l.197.128.061-.227a.12.12 0 0 1 .232.062l-.061.227.234-.012a.12.12 0 0 1 .013.239l-.234.012.084.219a.12.12 0 1 1-.224.086l-.084-.219-.182.148a.12.12 0 0 1-.169-.018.12.12 0 0 1 .018-.169l.182-.148Zm1.5 0-.197-.128a.12.12 0 0 1-.035-.166.12.12 0 0 1 .166-.035l.197.128.061-.227a.12.12 0 0 1 .232.062l-.061.227.234-.012a.12.12 0 0 1 .013.239l-.234.012.084.219a.12.12 0 1 1-.224.086l-.084-.219-.182.148a.12.12 0 0 1-.169-.018.12.12 0 0 1 .018-.169l.182-.148Zm1.5 0-.197-.128a.12.12 0 0 1-.035-.166.12.12 0 0 1 .166-.035l.197.128.061-.227a.12.12 0 0 1 .232.062l-.061.227.234-.012a.12.12 0 0 1 .013.239l-.234.012.084.219a.12.12 0 1 1-.224.086l-.084-.219-.182.148a.12.12 0 0 1-.169-.018.12.12 0 0 1 .018-.169l.182-.148Z"/></svg>