<svg xmlns="http://www.w3.org/2000/svg" xml:space="preserve" fill-rule="evenodd" stroke-linejoin="round" stroke-miterlimit="2" clip-rule="evenodd" viewBox="0 0 100 100"><path fill="#e5c200" d="m9.259 13.157-2.827-1.836a1.723 1.723 0 0 1 1.877-2.889l2.827 1.836.872-3.256a1.723 1.723 0 0 1 3.327.891l-.872 3.256 3.366-.176a1.724 1.724 0 0 1 .18 3.44l-3.366.176 1.208 3.147a1.723 1.723 0 0 1-3.216 1.234l-1.208-3.147-2.619 2.121a1.723 1.723 0 0 1-2.167-2.677l2.619-2.121Zm12.707 17.219-.933 1.334a.832.832 0 0 1-1.363-.953l.933-1.334-1.557-.475a.832.832 0 0 1 .485-1.591l1.557.475-.03-1.627a.833.833 0 0 1 1.663-.031l.03 1.627 1.539-.531a.832.832 0 0 1 .543 1.573l-1.538.531.98 1.299a.831.831 0 1 1-1.328 1.002l-.98-1.299Zm10.46-14.069-2.41-.057a1.232 1.232 0 0 1 .059-2.463l2.41.057-.69-2.309a1.233 1.233 0 0 1 2.36-.706l.691 2.309 1.983-1.37a1.234 1.234 0 0 1 1.714.313 1.234 1.234 0 0 1-.313 1.714l-1.983 1.37 1.916 1.463a1.233 1.233 0 0 1-1.494 1.958l-1.916-1.462-.799 2.274a1.233 1.233 0 0 1-2.324-.816l.799-2.274Zm14.86 9.297-2.827-1.836a1.723 1.723 0 0 1 1.877-2.889l2.827 1.836.872-3.256a1.723 1.723 0 0 1 3.327.891l-.872 3.256 3.366-.176a1.724 1.724 0 0 1 .18 3.44l-3.366.176 1.208 3.147a1.723 1.723 0 0 1-3.216 1.234l-1.208-3.147-2.619 2.121a1.723 1.723 0 0 1-2.167-2.677zm-2.064 29.414-.933 1.334a.832.832 0 0 1-1.363-.953l.933-1.334-1.557-.475a.832.832 0 0 1 .485-1.591l1.557.475-.03-1.627a.833.833 0 0 1 1.663-.031l.03 1.627 1.539-.531a.832.832 0 0 1 .543 1.573l-1.538.531.98 1.299a.831.831 0 1 1-1.328 1.002zm11.085-11.94-2.41-.057a1.232 1.232 0 0 1 .059-2.463l2.41.057-.69-2.309a1.233 1.233 0 0 1 2.36-.706l.691 2.309 1.983-1.37a1.234 1.234 0 0 1 1.714.313 1.234 1.234 0 0 1-.313 1.714l-1.983 1.37 1.916 1.463a1.233 1.233 0 0 1-1.494 1.958l-1.916-1.462-.799 2.274a1.233 1.233 0 0 1-2.324-.816l.799-2.274ZM9.259 74.536 6.432 72.7a1.723 1.723 0 0 1 1.877-2.889l2.827 1.836.872-3.256a1.723 1.723 0 0 1 3.327.891l-.872 3.256 3.366-.176a1.724 1.724 0 0 1 .18 3.44l-3.366.176 1.208 3.147a1.723 1.723 0 0 1-3.216 1.234l-1.208-3.147-2.619 2.121a1.723 1.723 0 0 1-2.167-2.677l2.619-2.121Zm-.101 17.129-.933 1.334a.832.832 0 0 1-1.363-.953l.933-1.334-1.557-.475a.832.832 0 0 1 .485-1.591l1.557.475-.03-1.627a.833.833 0 0 1 1.663-.031l.03 1.627 1.539-.531a.832.832 0 0 1 .543 1.573l-1.538.531.98 1.299a.831.831 0 1 1-1.328 1.002zm23.115-27.05-2.41-.057a1.232 1.232 0 0 1 .059-2.463l2.41.057-.69-2.309a1.233 1.233 0 0 1 2.36-.706l.691 2.309 1.983-1.37a1.234 1.234 0 0 1 1.714.313 1.234 1.234 0 0 1-.313 1.714l-1.983 1.37 1.916 1.463a1.233 1.233 0 0 1-1.494 1.958L34.6 65.432l-.799 2.274a1.233 1.233 0 0 1-2.324-.816l.799-2.274Zm9.522 21.503-2.827-1.836a1.723 1.723 0 0 1 1.877-2.889l2.827 1.836.872-3.256a1.723 1.723 0 0 1 3.327.891l-.872 3.256 3.366-.176a1.724 1.724 0 0 1 .18 3.44l-3.366.176 1.208 3.147a1.723 1.723 0 0 1-3.216 1.234l-1.208-3.147-2.619 2.121a1.723 1.723 0 0 1-2.167-2.677zM74.61 32.993l-.933 1.334a.832.832 0 0 1-1.363-.953l.933-1.334-1.557-.475a.832.832 0 0 1 .485-1.591l1.557.475-.03-1.627a.833.833 0 0 1 1.663-.031l.03 1.627 1.539-.531a.832.832 0 0 1 .543 1.573l-1.538.531.98 1.299a.831.831 0 1 1-1.328 1.002l-.98-1.299Zm17.354-12.889-.933 1.334a.832.832 0 0 1-1.363-.953l.933-1.334-1.557-.475a.832.832 0 0 1 .485-1.591l1.557.475-.03-1.627a.833.833 0 0 1 1.663-.031l.03 1.627 1.539-.531a.832.832 0 0 1 .543 1.573l-1.538.531.98 1.299a.831.831 0 1 1-1.328 1.002l-.98-1.299Zm-5.492 44.955-.933 1.334a.832.832 0 0 1-1.363-.953l.933-1.334-1.557-.475a.832.832 0 0 1 .485-1.591l1.557.475-.03-1.627a.833.833 0 0 1 1.663-.031l.03 1.627 1.539-.531a.832.832 0 0 1 .543 1.573l-1.538.531.98 1.299a.831.831 0 1 1-1.328 1.002l-.98-1.299ZM69.637 92.672l-.933 1.334a.832.832 0 0 1-1.363-.953l.933-1.334-1.557-.475a.832.832 0 0 1 .485-1.591l1.557.475-.03-1.627a.833.833 0 0 1 1.663-.031l.03 1.627 1.539-.531a.832.832 0 0 1 .543 1.573l-1.538.531.98 1.299a.831.831 0 1 1-1.328 1.002l-.98-1.299ZM50.041 8.979l-.933 1.334a.832.832 0 0 1-1.363-.953l.933-1.334-1.557-.475a.832.832 0 0 1 .485-1.591l1.557.475-.03-1.627a.833.833 0 0 1 1.663-.031l.03 1.627 1.539-.531a.832.832 0 0 1 .543 1.573l-1.538.531.98 1.299a.831.831 0 1 1-1.328 1.002zm13.373 68.028-.933 1.334a.832.832 0 0 1-1.363-.953l.933-1.334-1.557-.475a.832.832 0 0 1 .485-1.591l1.557.475-.03-1.627a.833.833 0 0 1 1.663-.031l.03 1.627 1.539-.531a.832.832 0 0 1 .543 1.573l-1.538.531.98 1.299a.831.831 0 1 1-1.328 1.002l-.98-1.299Zm-34.712 5.136-.933 1.334a.832.832 0 0 1-1.363-.953l.933-1.334-1.557-.475a.832.832 0 0 1 .485-1.591l1.557.475-.03-1.627a.833.833 0 0 1 1.663-.031l.03 1.627 1.539-.531a.832.832 0 0 1 .543 1.573l-1.538.531.98 1.299a.831.831 0 1 1-1.328 1.002zm46.423-8.082-2.41-.057a1.232 1.232 0 0 1 .059-2.463l2.41.057-.69-2.309a1.233 1.233 0 0 1 2.36-.706l.691 2.309 1.983-1.37a1.234 1.234 0 0 1 1.714.313 1.234 1.234 0 0 1-.313 1.714l-1.983 1.37 1.916 1.463a1.233 1.233 0 0 1-1.494 1.958l-1.916-1.462-.799 2.274a1.233 1.233 0 0 1-2.324-.816l.799-2.274ZM71.703 53.35l-2.41-.057a1.232 1.232 0 0 1 .059-2.463l2.41.057-.69-2.309a1.233 1.233 0 0 1 2.36-.706l.691 2.309 1.983-1.37a1.234 1.234 0 0 1 1.714.313 1.234 1.234 0 0 1-.313 1.714l-1.983 1.37 1.916 1.463a1.233 1.233 0 0 1-1.494 1.958l-1.916-1.462-.799 2.274a1.233 1.233 0 0 1-2.324-.816l.799-2.274Zm13.366-13.286-2.827-1.836a1.723 1.723 0 0 1 1.877-2.889l2.827 1.836.872-3.256a1.723 1.723 0 0 1 3.327.891l-.872 3.256 3.366-.176a1.724 1.724 0 0 1 .18 3.44l-3.366.176 1.208 3.147a1.723 1.723 0 0 1-3.216 1.234l-1.208-3.147-2.619 2.121a1.723 1.723 0 0 1-2.167-2.677l2.619-2.121Zm0 47.836-2.827-1.836a1.723 1.723 0 0 1 1.877-2.889l2.827 1.836.872-3.256a1.723 1.723 0 0 1 3.327.891l-.872 3.256 3.366-.176a1.724 1.724 0 0 1 .18 3.44l-3.366.176 1.208 3.147a1.723 1.723 0 0 1-3.216 1.234l-1.208-3.147-2.619 2.121a1.723 1.723 0 0 1-2.167-2.677l2.619-2.121ZM55.787 60.775l-2.827-1.836a1.723 1.723 0 0 1 1.877-2.889l2.827 1.836.872-3.256a1.723 1.723 0 0 1 3.327.891l-.872 3.256 3.366-.176a1.724 1.724 0 0 1 .18 3.44l-3.366.176 1.208 3.147a1.723 1.723 0 0 1-3.216 1.234l-1.208-3.147-2.619 2.121a1.723 1.723 0 0 1-2.167-2.677l2.619-2.121Zm9.544-44.282-.933 1.334a.832.832 0 0 1-1.363-.953l.933-1.334-1.557-.475a.832.832 0 0 1 .485-1.591l1.557.475-.03-1.627a.833.833 0 0 1 1.663-.031l.03 1.627 1.539-.531a.832.832 0 0 1 .543 1.573l-1.538.531.98 1.299a.831.831 0 1 1-1.328 1.002zm14.767-6.175-2.41-.057a1.232 1.232 0 0 1 .059-2.463l2.41.057-.69-2.309a1.233 1.233 0 0 1 2.36-.706l.691 2.309 1.983-1.37a1.234 1.234 0 0 1 1.714.313 1.234 1.234 0 0 1-.313 1.714l-1.983 1.37 1.916 1.463a1.233 1.233 0 0 1-1.494 1.958l-1.916-1.462-.799 2.274a1.233 1.233 0 0 1-2.324-.816l.799-2.274Zm-49.85 29.168-2.827-1.836a1.723 1.723 0 0 1 1.877-2.889l2.827 1.836.872-3.256a1.723 1.723 0 0 1 3.327.891l-.872 3.256 3.366-.176a1.724 1.724 0 0 1 .18 3.44l-3.366.176 1.208 3.147a1.723 1.723 0 0 1-3.216 1.234l-1.208-3.147-2.619 2.121a1.723 1.723 0 0 1-2.167-2.677zM16.214 58.718l-.933 1.334a.832.832 0 0 1-1.363-.953l.933-1.334-1.557-.475a.832.832 0 0 1 .485-1.591l1.557.475-.03-1.627a.833.833 0 0 1 1.663-.031l.03 1.627 1.539-.531a.832.832 0 0 1 .543 1.573l-1.538.531.98 1.299a.831.831 0 1 1-1.328 1.002l-.98-1.299Zm-4.93-15.64-2.41-.057a1.232 1.232 0 0 1 .059-2.463l2.41.057-.69-2.309a1.233 1.233 0 0 1 2.36-.706l.691 2.309 1.983-1.37a1.234 1.234 0 0 1 1.714.313 1.234 1.234 0 0 1-.313 1.714l-1.983 1.37 1.916 1.463a1.233 1.233 0 0 1-1.494 1.958l-1.916-1.462-.799 2.274a1.233 1.233 0 0 1-2.324-.816l.799-2.274Z"/></svg>