<svg xmlns="http://www.w3.org/2000/svg" xml:space="preserve" fill-rule="evenodd" stroke-linejoin="round" stroke-miterlimit="2" clip-rule="evenodd" viewBox="0 0 15 15"><path fill="#e5c200" d="m-1.178.086-.984-.639a.6.6 0 0 1 .653-1.005l.984.639.304-1.133a.6.6 0 0 1 1.158.31L.633-.609 1.804-.67A.6.6 0 0 1 1.867.527L.696.588l.42 1.095a.599.599 0 1 1-1.119.429l-.42-1.095-.912.738a.599.599 0 1 1-.754-.932zm15 0-.984-.639a.6.6 0 0 1 .653-1.005l.984.639.304-1.133a.6.6 0 0 1 1.158.31l-.304 1.133 1.171-.061a.6.6 0 0 1 .063 1.197l-1.171.061.42 1.095a.599.599 0 1 1-1.119.429l-.42-1.095-.912.738a.599.599 0 1 1-.754-.932l.912-.738Zm0 15-.984-.639a.6.6 0 0 1 .653-1.005l.984.639.304-1.133a.6.6 0 0 1 1.158.31l-.304 1.133 1.171-.061a.6.6 0 0 1 .063 1.197l-1.171.061.42 1.095a.599.599 0 1 1-1.119.429l-.42-1.095-.912.738a.599.599 0 1 1-.754-.932l.912-.738Zm-15 0-.984-.639a.6.6 0 0 1 .653-1.005l.984.639.304-1.133a.6.6 0 0 1 1.158.31l-.304 1.133 1.171-.061a.6.6 0 0 1 .063 1.197l-1.171.061.42 1.095a.599.599 0 1 1-1.119.429l-.42-1.095-.912.738a.599.599 0 1 1-.754-.932zm0-7.5-.984-.639a.6.6 0 0 1 .653-1.005l.984.639.304-1.133a.6.6 0 0 1 1.158.31L.633 6.891l1.171-.061a.6.6 0 0 1 .063 1.197l-1.171.061.42 1.095a.599.599 0 1 1-1.119.429l-.42-1.095-.912.738a.599.599 0 1 1-.754-.932zm7.5 0-.984-.639a.6.6 0 0 1 .653-1.005l.984.639.304-1.133a.6.6 0 0 1 1.158.31l-.304 1.133 1.171-.061a.6.6 0 0 1 .063 1.197l-1.171.061.42 1.095a.599.599 0 1 1-1.119.429l-.42-1.095-.912.738a.599.599 0 1 1-.754-.932zm0-7.5-.984-.639a.6.6 0 0 1 .653-1.005l.984.639.304-1.133a.6.6 0 0 1 1.158.31L8.133-.609 9.304-.67A.6.6 0 0 1 9.367.527L8.196.588l.42 1.095a.599.599 0 1 1-1.119.429l-.42-1.095-.912.738a.599.599 0 1 1-.754-.932zm0 15-.984-.639a.6.6 0 0 1 .653-1.005l.984.639.304-1.133a.6.6 0 0 1 1.158.31l-.304 1.133 1.171-.061a.6.6 0 0 1 .063 1.197l-1.171.061.42 1.095a.599.599 0 1 1-1.119.429l-.42-1.095-.912.738a.599.599 0 1 1-.754-.932zm7.5-7.5-.984-.639a.6.6 0 0 1 .653-1.005l.984.639.304-1.133a.6.6 0 0 1 1.158.31l-.304 1.133 1.171-.061a.6.6 0 0 1 .063 1.197l-1.171.061.42 1.095a.599.599 0 1 1-1.119.429l-.42-1.095-.912.738a.599.599 0 1 1-.754-.932l.912-.738Z"/></svg>