<svg xmlns="http://www.w3.org/2000/svg" xml:space="preserve" fill-rule="evenodd" stroke-linejoin="round" stroke-miterlimit="2" clip-rule="evenodd" viewBox="0 0 15 15"><path fill="#e5c200" d="m2.814 4.728-1.42-.922a.866.866 0 0 1 .943-1.451l1.42.922.438-1.636a.867.867 0 0 1 1.672.448l-.438 1.636 1.691-.089a.865.865 0 0 1 .09 1.728l-1.691.089.607 1.581a.866.866 0 0 1-1.616.62l-.607-1.581-1.316 1.066a.865.865 0 0 1-1.089-1.345zm3.052 7.656-.468.67a.418.418 0 0 1-.685-.479l.468-.67-.782-.238a.418.418 0 0 1 .244-.8l.782.238-.015-.818a.418.418 0 0 1 .835-.015l.015.818.773-.267a.418.418 0 0 1 .272.79l-.773.267.493.653a.418.418 0 0 1-.667.503l-.493-.653Zm4.714-4.217-1.211-.029a.62.62 0 0 1 .029-1.237l1.211.029-.347-1.16a.619.619 0 1 1 1.186-.354l.347 1.16.996-.688a.62.62 0 0 1 .704 1.018l-.996.688.963.735a.618.618 0 1 1-.751.983l-.963-.735-.401 1.142a.62.62 0 0 1-1.168-.41z"/></svg>