<svg xmlns="http://www.w3.org/2000/svg" xml:space="preserve" fill-rule="evenodd" stroke-linejoin="round" stroke-miterlimit="2" clip-rule="evenodd" viewBox="0 0 100 100"><path fill="#59a42b" fill-rule="nonzero" d="M17.62 18.964c.92-2.98 2-4.48 3.22-4.47.64-.04 1.87.18 2.36.62-1.06.04-2.02 1.07-2.36 2.13-.12.39-.3 1.43-.52 3.12q-.555 1.11-1.08 2.55c-.5-1.64-1.04-2.96-1.62-3.95m2.33 6.52-.04-.18c-.1-.39-.2-.77-.3-1.13 1.46-4.46 3.07-6.69 4.82-6.68.64-.03 1.28.13 1.77.44-1.06.04-1.99.57-2.33 1.33-.22.52-.61 2.59-1.16 6.22zm-6.77-7.55c.42-.31.97-.47 1.51-.44 1.65 0 3.15 2.66 4.49 8h-3c-.47-3.64-.81-5.71-1.01-6.22-.29-.77-1.08-1.3-1.99-1.34m8.71 25.435c.92-2.98 2-4.48 3.22-4.47.64-.04 1.87.18 2.36.62-1.06.04-2.02 1.07-2.36 2.13-.12.39-.3 1.43-.52 3.12q-.555 1.11-1.08 2.55c-.5-1.64-1.04-2.96-1.62-3.95m2.33 6.52-.04-.18c-.1-.39-.2-.77-.3-1.13 1.46-4.46 3.07-6.69 4.82-6.68.64-.03 1.28.13 1.77.44-1.06.04-1.99.57-2.33 1.33-.22.52-.61 2.59-1.16 6.22zm-6.77-7.55c.42-.31.97-.47 1.51-.44 1.65 0 3.15 2.66 4.49 8h-3c-.47-3.64-.81-5.71-1.01-6.22-.29-.77-1.08-1.3-1.99-1.34M47.93-1.038c.92-2.98 2-4.48 3.22-4.47.64-.04 1.87.18 2.36.62-1.06.04-2.02 1.07-2.36 2.13-.12.39-.3 1.43-.52 3.12q-.555 1.11-1.08 2.55c-.5-1.64-1.04-2.96-1.62-3.95m2.33 6.52-.04-.18c-.1-.39-.2-.77-.3-1.13 1.46-4.46 3.07-6.69 4.82-6.68.64-.03 1.28.13 1.77.44-1.06.04-1.99.57-2.33 1.33-.22.52-.61 2.59-1.16 6.22zm-6.77-7.55c.42-.31.97-.47 1.51-.44 1.65 0 3.15 2.66 4.49 8h-3c-.47-3.64-.81-5.71-1.01-6.22-.29-.77-1.08-1.3-1.99-1.34m11.67 20.516c.92-2.98 2-4.48 3.22-4.47.64-.04 1.87.18 2.36.62-1.06.04-2.02 1.07-2.36 2.13-.12.39-.3 1.43-.52 3.12q-.555 1.11-1.08 2.55c-.5-1.64-1.04-2.96-1.62-3.95m2.33 6.52-.04-.18c-.1-.39-.2-.77-.3-1.13 1.46-4.46 3.07-6.69 4.82-6.68.64-.03 1.28.13 1.77.44-1.06.04-1.99.57-2.33 1.33-.22.52-.61 2.59-1.16 6.22zm-6.77-7.55c.42-.31.97-.47 1.51-.44 1.65 0 3.15 2.66 4.49 8h-3c-.47-3.64-.81-5.71-1.01-6.22-.29-.77-1.08-1.3-1.99-1.34M13.18 65.995c.92-2.98 2-4.48 3.22-4.47.64-.04 1.87.18 2.36.62-1.06.04-2.02 1.07-2.36 2.13-.12.39-.3 1.43-.52 3.12q-.555 1.11-1.08 2.55c-.5-1.64-1.04-2.96-1.62-3.95m2.33 6.52-.04-.18c-.1-.39-.2-.77-.3-1.13 1.46-4.46 3.07-6.69 4.82-6.68.64-.03 1.28.13 1.77.44-1.06.04-1.99.57-2.33 1.33-.22.52-.61 2.59-1.16 6.22zm-6.77-7.55c.42-.31.97-.47 1.51-.44 1.65 0 3.15 2.66 4.49 8h-3c-.47-3.64-.81-5.71-1.01-6.22-.29-.77-1.08-1.3-1.99-1.34m32.17-8.939c.92-2.98 2-4.48 3.22-4.47.64-.04 1.87.18 2.36.62-1.06.04-2.02 1.07-2.36 2.13-.12.39-.3 1.43-.52 3.12q-.555 1.11-1.08 2.55c-.5-1.64-1.04-2.96-1.62-3.95m2.33 6.52-.04-.18c-.1-.39-.2-.77-.3-1.13 1.46-4.46 3.07-6.69 4.82-6.68.64-.03 1.28.13 1.77.44-1.06.04-1.99.57-2.33 1.33-.22.52-.61 2.59-1.16 6.22zm-6.77-7.55c.42-.31.97-.47 1.51-.44 1.65 0 3.15 2.66 4.49 8h-3c-.47-3.64-.81-5.71-1.01-6.22-.29-.77-1.08-1.3-1.99-1.34m41.22-2.816c.92-2.98 2-4.48 3.22-4.47.64-.04 1.87.18 2.36.62-1.06.04-2.02 1.07-2.36 2.13-.12.39-.3 1.43-.52 3.12q-.555 1.11-1.08 2.55c-.5-1.64-1.04-2.96-1.62-3.95m2.33 6.52-.04-.18c-.1-.39-.2-.77-.3-1.13 1.46-4.46 3.07-6.69 4.82-6.68.64-.03 1.28.13 1.77.44-1.06.04-1.99.57-2.33 1.33-.22.52-.61 2.59-1.16 6.22zm-6.77-7.55c.42-.31.97-.47 1.51-.44 1.65 0 3.15 2.66 4.49 8h-3c-.47-3.64-.81-5.71-1.01-6.22-.29-.77-1.08-1.3-1.99-1.34M58.67 40.447c.92-2.98 2-4.48 3.22-4.47.64-.04 1.87.18 2.36.62-1.06.04-2.02 1.07-2.36 2.13-.12.39-.3 1.43-.52 3.12q-.555 1.11-1.08 2.55c-.5-1.64-1.04-2.96-1.62-3.95m2.33 6.52-.04-.18c-.1-.39-.2-.77-.3-1.13 1.46-4.46 3.07-6.69 4.82-6.68.64-.03 1.28.13 1.77.44-1.06.04-1.99.57-2.33 1.33-.22.52-.61 2.59-1.16 6.22zm-6.77-7.55c.42-.31.97-.47 1.51-.44 1.65 0 3.15 2.66 4.49 8h-3c-.47-3.64-.81-5.71-1.01-6.22-.29-.77-1.08-1.3-1.99-1.34M24.89 82.899c.92-2.98 2-4.48 3.22-4.47.64-.04 1.87.18 2.36.62-1.06.04-2.02 1.07-2.36 2.13-.12.39-.3 1.43-.52 3.12q-.555 1.11-1.08 2.55c-.5-1.64-1.04-2.96-1.62-3.95m2.33 6.52-.04-.18c-.1-.39-.2-.77-.3-1.13 1.46-4.46 3.07-6.69 4.82-6.68.64-.03 1.28.13 1.77.44-1.06.04-1.99.57-2.33 1.33-.22.52-.61 2.59-1.16 6.22zm-6.77-7.55c.42-.31.97-.47 1.51-.44 1.65 0 3.15 2.66 4.49 8h-3c-.47-3.64-.81-5.71-1.01-6.22-.29-.77-1.08-1.3-1.99-1.34m77.48-32.897c.92-2.98 2-4.48 3.22-4.47.64-.04 1.87.18 2.36.62-1.06.04-2.02 1.07-2.36 2.13-.12.39-.3 1.43-.52 3.12q-.555 1.11-1.08 2.55c-.5-1.64-1.04-2.96-1.62-3.95m2.33 6.52-.04-.18c-.1-.39-.2-.77-.3-1.13 1.46-4.46 3.07-6.69 4.82-6.68.64-.03 1.28.13 1.77.44-1.06.04-1.99.57-2.33 1.33-.22.52-.61 2.59-1.16 6.22zm-6.77-7.55c.42-.31.97-.47 1.51-.44 1.65 0 3.15 2.66 4.49 8h-3c-.47-3.64-.81-5.71-1.01-6.22-.29-.77-1.08-1.3-1.99-1.34m-95.56 1.03c.92-2.98 2-4.48 3.22-4.47.64-.04 1.87.18 2.36.62-1.06.04-2.02 1.07-2.36 2.13-.12.39-.3 1.43-.52 3.12q-.555 1.11-1.08 2.55c-.5-1.64-1.04-2.96-1.62-3.95m2.33 6.52-.04-.18c-.1-.39-.2-.77-.3-1.13 1.46-4.46 3.07-6.69 4.82-6.68.64-.03 1.28.13 1.77.44-1.06.04-1.99.57-2.33 1.33-.22.52-.61 2.59-1.16 6.22zm-6.77-7.55c.42-.31.97-.47 1.51-.44 1.65 0 3.15 2.66 4.49 8h-3c-.47-3.64-.81-5.71-1.01-6.22-.29-.77-1.08-1.3-1.99-1.34m86.2-17.973c.92-2.98 2-4.48 3.22-4.47.64-.04 1.87.18 2.36.62-1.06.04-2.02 1.07-2.36 2.13-.12.39-.3 1.43-.52 3.12q-.555 1.11-1.08 2.55c-.5-1.64-1.04-2.96-1.62-3.95m2.33 6.52-.04-.18c-.1-.39-.2-.77-.3-1.13 1.46-4.46 3.07-6.69 4.82-6.68.64-.03 1.28.13 1.77.44-1.06.04-1.99.57-2.33 1.33-.22.52-.61 2.59-1.16 6.22zm-6.77-7.55c.42-.31.97-.47 1.51-.44 1.65 0 3.15 2.66 4.49 8h-3c-.47-3.64-.81-5.71-1.01-6.22-.29-.77-1.08-1.3-1.99-1.34M47.93 98.972c.92-2.98 2-4.48 3.22-4.47.64-.04 1.87.18 2.36.62-1.06.04-2.02 1.07-2.36 2.13-.12.39-.3 1.43-.52 3.12q-.555 1.11-1.08 2.55c-.5-1.64-1.04-2.96-1.62-3.95m2.33 6.52-.04-.18c-.1-.39-.2-.77-.3-1.13 1.46-4.46 3.07-6.69 4.82-6.68.64-.03 1.28.13 1.77.44-1.06.04-1.99.57-2.33 1.33-.22.52-.61 2.59-1.16 6.22zm-6.77-7.55c.42-.31.97-.47 1.51-.44 1.65 0 3.15 2.66 4.49 8h-3c-.47-3.64-.81-5.71-1.01-6.22-.29-.77-1.08-1.3-1.99-1.34m21.18-22.443c.92-2.98 2-4.48 3.22-4.47.64-.04 1.87.18 2.36.62-1.06.04-2.02 1.07-2.36 2.13-.12.39-.3 1.43-.52 3.12q-.555 1.11-1.08 2.55c-.5-1.64-1.04-2.96-1.62-3.95m2.33 6.52-.04-.18c-.1-.39-.2-.77-.3-1.13 1.46-4.46 3.07-6.69 4.82-6.68.64-.03 1.28.13 1.77.44-1.06.04-1.99.57-2.33 1.33-.22.52-.61 2.59-1.16 6.22zm-6.77-7.55c.42-.31.97-.47 1.51-.44 1.65 0 3.15 2.66 4.49 8h-3c-.47-3.64-.81-5.71-1.01-6.22-.29-.77-1.08-1.3-1.99-1.34m-62.3 24.503c.92-2.98 2-4.48 3.22-4.47.64-.04 1.87.18 2.36.62-1.06.04-2.02 1.07-2.36 2.13-.12.39-.3 1.43-.52 3.12q-.555 1.11-1.08 2.55c-.5-1.64-1.04-2.96-1.62-3.95m2.33 6.52-.04-.18c-.1-.39-.2-.77-.3-1.13 1.46-4.46 3.07-6.69 4.82-6.68.64-.03 1.28.13 1.77.44-1.06.04-1.99.57-2.33 1.33-.22.52-.61 2.59-1.16 6.22zm-6.77-7.55c.42-.31.97-.47 1.51-.44 1.65 0 3.15 2.66 4.49 8h-3c-.47-3.64-.81-5.71-1.01-6.22-.29-.77-1.08-1.3-1.99-1.34m4.44-98.97c.92-2.98 2-4.48 3.22-4.47.64-.04 1.87.18 2.36.62-1.06.04-2.02 1.07-2.36 2.13-.12.39-.3 1.43-.52 3.12q-.555 1.11-1.08 2.55c-.5-1.64-1.04-2.96-1.62-3.95m2.33 6.52-.04-.18c-.1-.39-.2-.77-.3-1.13 1.46-4.46 3.07-6.69 4.82-6.68.64-.03 1.28.13 1.77.44-1.06.04-1.99.57-2.33 1.33-.22.52-.61 2.59-1.16 6.22zm-6.77-7.55c.42-.31.97-.47 1.51-.44 1.65 0 3.15 2.66 4.49 8h-3c-.47-3.64-.81-5.71-1.01-6.22-.29-.77-1.08-1.3-1.99-1.34m104.44 1.01c.92-2.98 2-4.48 3.22-4.47.64-.04 1.87.18 2.36.62-1.06.04-2.02 1.07-2.36 2.13-.12.39-.3 1.43-.52 3.12q-.555 1.11-1.08 2.55c-.5-1.64-1.04-2.96-1.62-3.95m2.33 6.52-.04-.18c-.1-.39-.2-.77-.3-1.13 1.46-4.46 3.07-6.69 4.82-6.68.64-.03 1.28.13 1.77.44-1.06.04-1.99.57-2.33 1.33-.22.52-.61 2.59-1.16 6.22zm-6.77-7.55c.42-.31.97-.47 1.51-.44 1.65 0 3.15 2.66 4.49 8h-3c-.47-3.64-.81-5.71-1.01-6.22-.29-.77-1.08-1.3-1.99-1.34m4.44 101.05c.92-2.98 2-4.48 3.22-4.47.64-.04 1.87.18 2.36.62-1.06.04-2.02 1.07-2.36 2.13-.12.39-.3 1.43-.52 3.12q-.555 1.11-1.08 2.55c-.5-1.64-1.04-2.96-1.62-3.95m2.33 6.52-.04-.18c-.1-.39-.2-.77-.3-1.13 1.46-4.46 3.07-6.69 4.82-6.68.64-.03 1.28.13 1.77.44-1.06.04-1.99.57-2.33 1.33-.22.52-.61 2.59-1.16 6.22zm-6.77-7.55c.42-.31.97-.47 1.51-.44 1.65 0 3.15 2.66 4.49 8h-3c-.47-3.64-.81-5.71-1.01-6.22-.29-.77-1.08-1.3-1.99-1.34"/></svg>