<svg xmlns="http://www.w3.org/2000/svg" xml:space="preserve" fill-rule="evenodd" stroke-linejoin="round" stroke-miterlimit="2" clip-rule="evenodd" viewBox="0 0 100 100"><path fill="#59a42b" fill-rule="nonzero" d="M17.62 18.96q1.38-4.48 3.22-4.47c.64-.04 1.87.18 2.36.62-1.06.04-2.02 1.07-2.36 2.13q-.19.6-.52 3.12-.56 1.11-1.08 2.55a19 19 0 0 0-1.62-3.95m2.33 6.52-.04-.18-.3-1.13q2.2-6.7 4.82-6.68a3 3 0 0 1 1.77.44c-1.06.04-1.99.57-2.33 1.33q-.33.79-1.16 6.22zm-6.77-7.55c.42-.3.97-.47 1.51-.44q2.48 0 4.49 8h-3q-.7-5.45-1.01-6.22a2.2 2.2 0 0 0-1.99-1.34m8.71 25.44q1.39-4.48 3.22-4.47c.64-.04 1.87.18 2.36.62-1.06.04-2.02 1.07-2.36 2.13q-.19.58-.52 3.12-.55 1.1-1.08 2.55a19 19 0 0 0-1.62-3.95m2.33 6.52-.04-.18-.3-1.13q2.2-6.7 4.82-6.68a3 3 0 0 1 1.77.44c-1.06.04-1.99.57-2.33 1.33q-.33.78-1.16 6.22zm-6.77-7.55c.42-.31.97-.47 1.51-.44q2.48 0 4.49 8h-3q-.7-5.46-1.01-6.22a2.2 2.2 0 0 0-1.99-1.34M47.93-1.04q1.38-4.48 3.22-4.47c.64-.04 1.87.18 2.36.62-1.06.04-2.02 1.07-2.36 2.13q-.18.6-.52 3.12-.56 1.11-1.08 2.55a19 19 0 0 0-1.62-3.95m2.33 6.52-.04-.18-.3-1.13q2.2-6.7 4.82-6.68a3 3 0 0 1 1.77.44c-1.06.04-1.99.57-2.33 1.33q-.33.79-1.16 6.22zm-6.77-7.55c.42-.3.97-.47 1.51-.44q2.48 0 4.49 8h-3q-.7-5.45-1.01-6.22a2.2 2.2 0 0 0-1.99-1.34m11.67 20.52q1.39-4.48 3.22-4.47c.64-.04 1.87.18 2.36.62-1.06.04-2.02 1.07-2.36 2.13q-.18.59-.52 3.12-.56 1.1-1.08 2.55a19 19 0 0 0-1.62-3.95m2.33 6.52-.04-.18-.3-1.13q2.2-6.7 4.82-6.68a3 3 0 0 1 1.77.44c-1.06.04-1.99.57-2.33 1.33q-.33.78-1.16 6.22zm-6.77-7.55c.42-.31.97-.47 1.51-.44q2.48 0 4.49 8h-3q-.7-5.46-1.01-6.22a2.2 2.2 0 0 0-1.99-1.34M13.18 66q1.38-4.48 3.22-4.47c.64-.04 1.87.18 2.36.62-1.06.04-2.02 1.07-2.36 2.13q-.19.59-.52 3.12-.56 1.1-1.08 2.55A19 19 0 0 0 13.18 66m2.33 6.52-.04-.18-.3-1.14q2.2-6.7 4.82-6.68a3 3 0 0 1 1.77.45c-1.06.04-1.99.57-2.33 1.33q-.33.78-1.16 6.22zm-6.77-7.55c.42-.31.97-.47 1.51-.44q2.48 0 4.49 8h-3q-.7-5.46-1.01-6.22a2.2 2.2 0 0 0-1.99-1.34m32.17-8.94q1.39-4.48 3.22-4.47c.64-.04 1.87.18 2.36.62-1.06.04-2.02 1.07-2.36 2.13q-.18.59-.52 3.12-.56 1.1-1.08 2.55a19 19 0 0 0-1.62-3.95m2.33 6.52-.04-.18-.3-1.13q2.2-6.7 4.82-6.68a3 3 0 0 1 1.77.44c-1.06.04-1.99.57-2.33 1.33q-.33.78-1.16 6.22zM36.47 55c.42-.31.97-.47 1.51-.44q2.48 0 4.49 8h-3q-.7-5.46-1.01-6.22A2.2 2.2 0 0 0 36.47 55m41.22-2.82q1.38-4.48 3.22-4.47c.64-.04 1.87.18 2.36.62-1.06.04-2.02 1.07-2.36 2.13q-.19.59-.52 3.12-.56 1.11-1.08 2.55a19 19 0 0 0-1.62-3.95m2.33 6.52-.04-.18-.3-1.13q2.2-6.7 4.82-6.68a3 3 0 0 1 1.77.44c-1.06.04-1.99.57-2.33 1.33q-.33.78-1.16 6.22zm-6.77-7.55c.42-.31.97-.47 1.51-.44q2.48 0 4.49 8h-3q-.7-5.46-1.01-6.22a2.2 2.2 0 0 0-1.99-1.34m-14.58-10.7q1.38-4.48 3.22-4.47c.64-.04 1.87.18 2.36.62-1.06.04-2.02 1.07-2.36 2.13q-.19.58-.52 3.12-.56 1.1-1.08 2.55a19 19 0 0 0-1.62-3.95M61 46.97l-.04-.18-.3-1.13q2.2-6.7 4.82-6.68a3 3 0 0 1 1.77.44c-1.06.04-1.99.57-2.33 1.33q-.33.78-1.16 6.22zm-6.77-7.55c.42-.31.97-.47 1.51-.44q2.48 0 4.49 8h-3q-.7-5.46-1.01-6.22a2.2 2.2 0 0 0-1.99-1.34M24.89 82.9q1.39-4.48 3.22-4.47c.64-.04 1.87.18 2.36.62-1.06.04-2.02 1.07-2.36 2.13q-.19.59-.52 3.12-.56 1.1-1.08 2.55a19 19 0 0 0-1.62-3.95m2.33 6.52-.04-.18-.3-1.13q2.2-6.7 4.82-6.68a3 3 0 0 1 1.77.44c-1.06.04-1.99.57-2.33 1.33q-.33.78-1.16 6.22zm-6.77-7.55c.42-.31.97-.47 1.51-.44q2.48 0 4.49 8h-3q-.7-5.46-1.01-6.22a2.2 2.2 0 0 0-1.99-1.34m77.48-32.9q1.38-4.48 3.22-4.47c.64-.04 1.87.18 2.36.62-1.06.04-2.02 1.07-2.36 2.13q-.19.6-.52 3.12-.55 1.11-1.08 2.55a19 19 0 0 0-1.62-3.95m2.33 6.52-.04-.18-.3-1.13q2.2-6.7 4.82-6.68a3 3 0 0 1 1.77.44c-1.06.04-1.99.57-2.33 1.33q-.33.79-1.16 6.22zm-6.77-7.55c.42-.3.97-.47 1.51-.44q2.48 0 4.49 8h-3q-.7-5.45-1.01-6.22a2.2 2.2 0 0 0-1.99-1.34m-95.56 1.03q1.38-4.48 3.22-4.47c.64-.04 1.87.18 2.36.62-1.06.04-2.02 1.07-2.36 2.13q-.19.6-.52 3.12-.55 1.11-1.08 2.55a19 19 0 0 0-1.62-3.95M.26 55.5l-.04-.18-.3-1.13q2.2-6.7 4.82-6.68a3 3 0 0 1 1.77.44c-1.06.04-1.99.57-2.33 1.33q-.33.79-1.16 6.22zm-6.77-7.55c.42-.3.97-.47 1.51-.44q2.48 0 4.49 8h-3q-.7-5.45-1.01-6.22a2.2 2.2 0 0 0-1.99-1.34m86.2-17.97q1.39-4.48 3.22-4.47c.64-.04 1.87.18 2.36.62-1.06.04-2.02 1.07-2.36 2.13q-.19.58-.52 3.12-.55 1.1-1.08 2.55a19 19 0 0 0-1.62-3.95m2.33 6.52-.04-.18-.3-1.13q2.2-6.7 4.82-6.68a3 3 0 0 1 1.77.44c-1.06.04-1.99.57-2.33 1.33q-.33.78-1.16 6.22zm-6.77-7.55c.42-.31.97-.47 1.51-.44q2.48 0 4.49 8h-3q-.7-5.46-1.01-6.22a2.2 2.2 0 0 0-1.99-1.34M47.93 98.97q1.38-4.48 3.22-4.47c.64-.04 1.87.18 2.36.62-1.06.04-2.02 1.07-2.36 2.13q-.18.6-.52 3.12-.56 1.11-1.08 2.55a19 19 0 0 0-1.62-3.95m2.33 6.52-.04-.18-.3-1.13q2.2-6.7 4.82-6.68a3 3 0 0 1 1.77.44c-1.06.04-1.99.57-2.33 1.33q-.33.78-1.16 6.22zm-6.77-7.55c.42-.3.97-.47 1.51-.44q2.48 0 4.49 8h-3q-.7-5.45-1.01-6.22a2.2 2.2 0 0 0-1.99-1.34M64.67 75.5q1.39-4.48 3.22-4.47c.64-.04 1.87.18 2.36.62-1.06.04-2.02 1.07-2.36 2.13q-.19.59-.52 3.12-.56 1.1-1.08 2.55a19 19 0 0 0-1.62-3.95M67 82.02l-.04-.18-.3-1.13q2.2-6.7 4.82-6.68a3 3 0 0 1 1.77.44c-1.06.04-1.99.57-2.33 1.33q-.33.78-1.16 6.22zm-6.77-7.55c.42-.31.97-.47 1.51-.44q2.48 0 4.49 8h-3q-.7-5.46-1.01-6.22a2.2 2.2 0 0 0-1.99-1.34m-62.3 24.5q1.38-4.48 3.22-4.47c.64-.04 1.87.18 2.36.62-1.06.04-2.02 1.07-2.36 2.13q-.19.6-.52 3.12-.56 1.11-1.08 2.55a19 19 0 0 0-1.62-3.95m2.33 6.52-.04-.18-.3-1.13q2.2-6.7 4.82-6.68a3 3 0 0 1 1.77.44c-1.06.04-1.99.57-2.33 1.33q-.33.78-1.16 6.22zm-6.77-7.55c.42-.3.97-.47 1.51-.44q2.48 0 4.49 8h-3q-.7-5.45-1.01-6.22a2.2 2.2 0 0 0-1.99-1.34m4.44-98.97Q-.69-5.5 1.15-5.5c.64-.04 1.87.18 2.36.62-1.06.04-2.02 1.07-2.36 2.13Q.96-2.15.63.37.07 1.48-.45 2.92a19 19 0 0 0-1.62-3.95M.26 5.5l-.04-.18-.3-1.13q2.2-6.7 4.82-6.68a3 3 0 0 1 1.77.44c-1.06.04-1.99.57-2.33 1.33Q3.85.06 3.02 5.5zm-6.77-7.55c.42-.3.97-.47 1.51-.44q2.48 0 4.49 8h-3Q-4.21.05-4.52-.72a2.2 2.2 0 0 0-1.99-1.34M97.93-1.05q1.38-4.48 3.22-4.47c.64-.04 1.87.18 2.36.62-1.06.04-2.02 1.07-2.36 2.13q-.19.6-.52 3.12-.56 1.11-1.08 2.55a19 19 0 0 0-1.62-3.95m2.33 6.52-.04-.18-.3-1.13q2.2-6.7 4.82-6.68a3 3 0 0 1 1.77.44c-1.06.04-1.99.57-2.33 1.33q-.33.79-1.16 6.22zm-6.77-7.55c.42-.3.97-.47 1.51-.44q2.48 0 4.49 8h-3q-.7-5.45-1.01-6.22a2.2 2.2 0 0 0-1.99-1.34m4.44 101.05q1.38-4.48 3.22-4.47c.64-.04 1.87.18 2.36.62-1.06.04-2.02 1.07-2.36 2.13q-.19.6-.52 3.12-.56 1.11-1.08 2.55a19 19 0 0 0-1.62-3.95m2.33 6.52-.04-.18-.3-1.13q2.2-6.7 4.82-6.68a3 3 0 0 1 1.77.44c-1.06.04-1.99.57-2.33 1.33q-.33.78-1.16 6.22zm-6.77-7.55c.42-.3.97-.47 1.51-.44q2.48 0 4.49 8h-3q-.7-5.45-1.01-6.22a2.2 2.2 0 0 0-1.99-1.34"/></svg>