<?xml version="1.0" encoding="UTF-8" standalone="no"?><!DOCTYPE svg PUBLIC "-//W3C//DTD SVG 1.1//EN" "http://www.w3.org/Graphics/SVG/1.1/DTD/svg11.dtd"><svg width="100%" height="100%" viewBox="0 0 100 100" version="1.1" xmlns="http://www.w3.org/2000/svg" xmlns:xlink="http://www.w3.org/1999/xlink" xml:space="preserve" xmlns:serif="http://www.serif.com/" style="fill-rule:evenodd;clip-rule:evenodd;stroke-linejoin:round;stroke-miterlimit:2;"><g><rect x="-25" y="-25" width="150" height="150" style="fill:#59a42b;fill-opacity:0.42;"/><path d="M17.62,18.964c0.92,-2.98 2,-4.48 3.22,-4.47c0.64,-0.04 1.87,0.18 2.36,0.62c-1.06,0.04 -2.02,1.07 -2.36,2.13c-0.12,0.39 -0.3,1.43 -0.52,3.12c-0.37,0.74 -0.73,1.59 -1.08,2.55c-0.5,-1.64 -1.04,-2.96 -1.62,-3.95Zm2.33,6.52l-0.04,-0.18c-0.1,-0.39 -0.2,-0.77 -0.3,-1.13c1.46,-4.46 3.07,-6.69 4.82,-6.68c0.64,-0.03 1.28,0.13 1.77,0.44c-1.06,0.04 -1.99,0.57 -2.33,1.33c-0.22,0.52 -0.61,2.59 -1.16,6.22l-2.76,0Zm-6.77,-7.55c0.42,-0.31 0.97,-0.47 1.51,-0.44c1.65,0 3.15,2.66 4.49,8l-3,0c-0.47,-3.64 -0.81,-5.71 -1.01,-6.22c-0.29,-0.77 -1.08,-1.3 -1.99,-1.34Z" style="fill:#59a42b;fill-rule:nonzero;"/><path d="M21.89,43.369c0.92,-2.98 2,-4.48 3.22,-4.47c0.64,-0.04 1.87,0.18 2.36,0.62c-1.06,0.04 -2.02,1.07 -2.36,2.13c-0.12,0.39 -0.3,1.43 -0.52,3.12c-0.37,0.74 -0.73,1.59 -1.08,2.55c-0.5,-1.64 -1.04,-2.96 -1.62,-3.95Zm2.33,6.52l-0.04,-0.18c-0.1,-0.39 -0.2,-0.77 -0.3,-1.13c1.46,-4.46 3.07,-6.69 4.82,-6.68c0.64,-0.03 1.28,0.13 1.77,0.44c-1.06,0.04 -1.99,0.57 -2.33,1.33c-0.22,0.52 -0.61,2.59 -1.16,6.22l-2.76,0Zm-6.77,-7.55c0.42,-0.31 0.97,-0.47 1.51,-0.44c1.65,0 3.15,2.66 4.49,8l-3,0c-0.47,-3.64 -0.81,-5.71 -1.01,-6.22c-0.29,-0.77 -1.08,-1.3 -1.99,-1.34Z" style="fill:#59a42b;fill-rule:nonzero;"/><path d="M47.93,-1.038c0.92,-2.98 2,-4.48 3.22,-4.47c0.64,-0.04 1.87,0.18 2.36,0.62c-1.06,0.04 -2.02,1.07 -2.36,2.13c-0.12,0.39 -0.3,1.43 -0.52,3.12c-0.37,0.74 -0.73,1.59 -1.08,2.55c-0.5,-1.64 -1.04,-2.96 -1.62,-3.95Zm2.33,6.52l-0.04,-0.18c-0.1,-0.39 -0.2,-0.77 -0.3,-1.13c1.46,-4.46 3.07,-6.69 4.82,-6.68c0.64,-0.03 1.28,0.13 1.77,0.44c-1.06,0.04 -1.99,0.57 -2.33,1.33c-0.22,0.52 -0.61,2.59 -1.16,6.22l-2.76,0Zm-6.77,-7.55c0.42,-0.31 0.97,-0.47 1.51,-0.44c1.65,0 3.15,2.66 4.49,8l-3,0c-0.47,-3.64 -0.81,-5.71 -1.01,-6.22c-0.29,-0.77 -1.08,-1.3 -1.99,-1.34Z" style="fill:#59a42b;fill-rule:nonzero;"/><path d="M55.16,18.448c0.92,-2.98 2,-4.48 3.22,-4.47c0.64,-0.04 1.87,0.18 2.36,0.62c-1.06,0.04 -2.02,1.07 -2.36,2.13c-0.12,0.39 -0.3,1.43 -0.52,3.12c-0.37,0.74 -0.73,1.59 -1.08,2.55c-0.5,-1.64 -1.04,-2.96 -1.62,-3.95Zm2.33,6.52l-0.04,-0.18c-0.1,-0.39 -0.2,-0.77 -0.3,-1.13c1.46,-4.46 3.07,-6.69 4.82,-6.68c0.64,-0.03 1.28,0.13 1.77,0.44c-1.06,0.04 -1.99,0.57 -2.33,1.33c-0.22,0.52 -0.61,2.59 -1.16,6.22l-2.76,0Zm-6.77,-7.55c0.42,-0.31 0.97,-0.47 1.51,-0.44c1.65,0 3.15,2.66 4.49,8l-3,0c-0.47,-3.64 -0.81,-5.71 -1.01,-6.22c-0.29,-0.77 -1.08,-1.3 -1.99,-1.34Z" style="fill:#59a42b;fill-rule:nonzero;"/><path d="M13.18,65.995c0.92,-2.98 2,-4.48 3.22,-4.47c0.64,-0.04 1.87,0.18 2.36,0.62c-1.06,0.04 -2.02,1.07 -2.36,2.13c-0.12,0.39 -0.3,1.43 -0.52,3.12c-0.37,0.74 -0.73,1.59 -1.08,2.55c-0.5,-1.64 -1.04,-2.96 -1.62,-3.95Zm2.33,6.52l-0.04,-0.18c-0.1,-0.39 -0.2,-0.77 -0.3,-1.13c1.46,-4.46 3.07,-6.69 4.82,-6.68c0.64,-0.03 1.28,0.13 1.77,0.44c-1.06,0.04 -1.99,0.57 -2.33,1.33c-0.22,0.52 -0.61,2.59 -1.16,6.22l-2.76,0Zm-6.77,-7.55c0.42,-0.31 0.97,-0.47 1.51,-0.44c1.65,0 3.15,2.66 4.49,8l-3,0c-0.47,-3.64 -0.81,-5.71 -1.01,-6.22c-0.29,-0.77 -1.08,-1.3 -1.99,-1.34Z" style="fill:#59a42b;fill-rule:nonzero;"/><path d="M40.91,56.026c0.92,-2.98 2,-4.48 3.22,-4.47c0.64,-0.04 1.87,0.18 2.36,0.62c-1.06,0.04 -2.02,1.07 -2.36,2.13c-0.12,0.39 -0.3,1.43 -0.52,3.12c-0.37,0.74 -0.73,1.59 -1.08,2.55c-0.5,-1.64 -1.04,-2.96 -1.62,-3.95Zm2.33,6.52l-0.04,-0.18c-0.1,-0.39 -0.2,-0.77 -0.3,-1.13c1.46,-4.46 3.07,-6.69 4.82,-6.68c0.64,-0.03 1.28,0.13 1.77,0.44c-1.06,0.04 -1.99,0.57 -2.33,1.33c-0.22,0.52 -0.61,2.59 -1.16,6.22l-2.76,0Zm-6.77,-7.55c0.42,-0.31 0.97,-0.47 1.51,-0.44c1.65,0 3.15,2.66 4.49,8l-3,0c-0.47,-3.64 -0.81,-5.71 -1.01,-6.22c-0.29,-0.77 -1.08,-1.3 -1.99,-1.34Z" style="fill:#59a42b;fill-rule:nonzero;"/><path d="M77.69,52.18c0.92,-2.98 2,-4.48 3.22,-4.47c0.64,-0.04 1.87,0.18 2.36,0.62c-1.06,0.04 -2.02,1.07 -2.36,2.13c-0.12,0.39 -0.3,1.43 -0.52,3.12c-0.37,0.74 -0.73,1.59 -1.08,2.55c-0.5,-1.64 -1.04,-2.96 -1.62,-3.95Zm2.33,6.52l-0.04,-0.18c-0.1,-0.39 -0.2,-0.77 -0.3,-1.13c1.46,-4.46 3.07,-6.69 4.82,-6.68c0.64,-0.03 1.28,0.13 1.77,0.44c-1.06,0.04 -1.99,0.57 -2.33,1.33c-0.22,0.52 -0.61,2.59 -1.16,6.22l-2.76,0Zm-6.77,-7.55c0.42,-0.31 0.97,-0.47 1.51,-0.44c1.65,0 3.15,2.66 4.49,8l-3,0c-0.47,-3.64 -0.81,-5.71 -1.01,-6.22c-0.29,-0.77 -1.08,-1.3 -1.99,-1.34Z" style="fill:#59a42b;fill-rule:nonzero;"/><path d="M58.67,40.447c0.92,-2.98 2,-4.48 3.22,-4.47c0.64,-0.04 1.87,0.18 2.36,0.62c-1.06,0.04 -2.02,1.07 -2.36,2.13c-0.12,0.39 -0.3,1.43 -0.52,3.12c-0.37,0.74 -0.73,1.59 -1.08,2.55c-0.5,-1.64 -1.04,-2.96 -1.62,-3.95Zm2.33,6.52l-0.04,-0.18c-0.1,-0.39 -0.2,-0.77 -0.3,-1.13c1.46,-4.46 3.07,-6.69 4.82,-6.68c0.64,-0.03 1.28,0.13 1.77,0.44c-1.06,0.04 -1.99,0.57 -2.33,1.33c-0.22,0.52 -0.61,2.59 -1.16,6.22l-2.76,0Zm-6.77,-7.55c0.42,-0.31 0.97,-0.47 1.51,-0.44c1.65,0 3.15,2.66 4.49,8l-3,0c-0.47,-3.64 -0.81,-5.71 -1.01,-6.22c-0.29,-0.77 -1.08,-1.3 -1.99,-1.34Z" style="fill:#59a42b;fill-rule:nonzero;"/><path d="M24.89,82.899c0.92,-2.98 2,-4.48 3.22,-4.47c0.64,-0.04 1.87,0.18 2.36,0.62c-1.06,0.04 -2.02,1.07 -2.36,2.13c-0.12,0.39 -0.3,1.43 -0.52,3.12c-0.37,0.74 -0.73,1.59 -1.08,2.55c-0.5,-1.64 -1.04,-2.96 -1.62,-3.95Zm2.33,6.52l-0.04,-0.18c-0.1,-0.39 -0.2,-0.77 -0.3,-1.13c1.46,-4.46 3.07,-6.69 4.82,-6.68c0.64,-0.03 1.28,0.13 1.77,0.44c-1.06,0.04 -1.99,0.57 -2.33,1.33c-0.22,0.52 -0.61,2.59 -1.16,6.22l-2.76,0Zm-6.77,-7.55c0.42,-0.31 0.97,-0.47 1.51,-0.44c1.65,0 3.15,2.66 4.49,8l-3,0c-0.47,-3.64 -0.81,-5.71 -1.01,-6.22c-0.29,-0.77 -1.08,-1.3 -1.99,-1.34Z" style="fill:#59a42b;fill-rule:nonzero;"/><path d="M97.93,58.972c0.92,-2.98 2,-4.48 3.22,-4.47c0.64,-0.04 1.87,0.18 2.36,0.62c-1.06,0.04 -2.02,1.07 -2.36,2.13c-0.12,0.39 -0.3,1.43 -0.52,3.12c-0.37,0.74 -0.73,1.59 -1.08,2.55c-0.5,-1.64 -1.04,-2.96 -1.62,-3.95Zm2.33,6.52l-0.04,-0.18c-0.1,-0.39 -0.2,-0.77 -0.3,-1.13c1.46,-4.46 3.07,-6.69 4.82,-6.68c0.64,-0.03 1.28,0.13 1.77,0.44c-1.06,0.04 -1.99,0.57 -2.33,1.33c-0.22,0.52 -0.61,2.59 -1.16,6.22l-2.76,0Zm-6.77,-7.55c0.42,-0.31 0.97,-0.47 1.51,-0.44c1.65,0 3.15,2.66 4.49,8l-3,0c-0.47,-3.64 -0.81,-5.71 -1.01,-6.22c-0.29,-0.77 -1.08,-1.3 -1.99,-1.34Z" style="fill:#59a42b;fill-rule:nonzero;"/><path d="M-2.07,37.972c0.92,-2.98 2,-4.48 3.22,-4.47c0.64,-0.04 1.87,0.18 2.36,0.62c-1.06,0.04 -2.02,1.07 -2.36,2.13c-0.12,0.39 -0.3,1.43 -0.52,3.12c-0.37,0.74 -0.73,1.59 -1.08,2.55c-0.5,-1.64 -1.04,-2.96 -1.62,-3.95Zm2.33,6.52l-0.04,-0.18c-0.1,-0.39 -0.2,-0.77 -0.3,-1.13c1.46,-4.46 3.07,-6.69 4.82,-6.68c0.64,-0.03 1.28,0.13 1.77,0.44c-1.06,0.04 -1.99,0.57 -2.33,1.33c-0.22,0.52 -0.61,2.59 -1.16,6.22l-2.76,0Zm-6.77,-7.55c0.42,-0.31 0.97,-0.47 1.51,-0.44c1.65,0 3.15,2.66 4.49,8l-3,0c-0.47,-3.64 -0.81,-5.71 -1.01,-6.22c-0.29,-0.77 -1.08,-1.3 -1.99,-1.34Z" style="fill:#59a42b;fill-rule:nonzero;"/><path d="M79.69,29.969c0.92,-2.98 2,-4.48 3.22,-4.47c0.64,-0.04 1.87,0.18 2.36,0.62c-1.06,0.04 -2.02,1.07 -2.36,2.13c-0.12,0.39 -0.3,1.43 -0.52,3.12c-0.37,0.74 -0.73,1.59 -1.08,2.55c-0.5,-1.64 -1.04,-2.96 -1.62,-3.95Zm2.33,6.52l-0.04,-0.18c-0.1,-0.39 -0.2,-0.77 -0.3,-1.13c1.46,-4.46 3.07,-6.69 4.82,-6.68c0.64,-0.03 1.28,0.13 1.77,0.44c-1.06,0.04 -1.99,0.57 -2.33,1.33c-0.22,0.52 -0.61,2.59 -1.16,6.22l-2.76,0Zm-6.77,-7.55c0.42,-0.31 0.97,-0.47 1.51,-0.44c1.65,0 3.15,2.66 4.49,8l-3,0c-0.47,-3.64 -0.81,-5.71 -1.01,-6.22c-0.29,-0.77 -1.08,-1.3 -1.99,-1.34Z" style="fill:#59a42b;fill-rule:nonzero;"/><path d="M47.93,98.972c0.92,-2.98 2,-4.48 3.22,-4.47c0.64,-0.04 1.87,0.18 2.36,0.62c-1.06,0.04 -2.02,1.07 -2.36,2.13c-0.12,0.39 -0.3,1.43 -0.52,3.12c-0.37,0.74 -0.73,1.59 -1.08,2.55c-0.5,-1.64 -1.04,-2.96 -1.62,-3.95Zm2.33,6.52l-0.04,-0.18c-0.1,-0.39 -0.2,-0.77 -0.3,-1.13c1.46,-4.46 3.07,-6.69 4.82,-6.68c0.64,-0.03 1.28,0.13 1.77,0.44c-1.06,0.04 -1.99,0.57 -2.33,1.33c-0.22,0.52 -0.61,2.59 -1.16,6.22l-2.76,0Zm-6.77,-7.55c0.42,-0.31 0.97,-0.47 1.51,-0.44c1.65,0 3.15,2.66 4.49,8l-3,0c-0.47,-3.64 -0.81,-5.71 -1.01,-6.22c-0.29,-0.77 -1.08,-1.3 -1.99,-1.34Z" style="fill:#59a42b;fill-rule:nonzero;"/><path d="M64.67,75.499c0.92,-2.98 2,-4.48 3.22,-4.47c0.64,-0.04 1.87,0.18 2.36,0.62c-1.06,0.04 -2.02,1.07 -2.36,2.13c-0.12,0.39 -0.3,1.43 -0.52,3.12c-0.37,0.74 -0.73,1.59 -1.08,2.55c-0.5,-1.64 -1.04,-2.96 -1.62,-3.95Zm2.33,6.52l-0.04,-0.18c-0.1,-0.39 -0.2,-0.77 -0.3,-1.13c1.46,-4.46 3.07,-6.69 4.82,-6.68c0.64,-0.03 1.28,0.13 1.77,0.44c-1.06,0.04 -1.99,0.57 -2.33,1.33c-0.22,0.52 -0.61,2.59 -1.16,6.22l-2.76,0Zm-6.77,-7.55c0.42,-0.31 0.97,-0.47 1.51,-0.44c1.65,0 3.15,2.66 4.49,8l-3,0c-0.47,-3.64 -0.81,-5.71 -1.01,-6.22c-0.29,-0.77 -1.08,-1.3 -1.99,-1.34Z" style="fill:#59a42b;fill-rule:nonzero;"/><path d="M-2.07,98.972c0.92,-2.98 2,-4.48 3.22,-4.47c0.64,-0.04 1.87,0.18 2.36,0.62c-1.06,0.04 -2.02,1.07 -2.36,2.13c-0.12,0.39 -0.3,1.43 -0.52,3.12c-0.37,0.74 -0.73,1.59 -1.08,2.55c-0.5,-1.64 -1.04,-2.96 -1.62,-3.95Zm2.33,6.52l-0.04,-0.18c-0.1,-0.39 -0.2,-0.77 -0.3,-1.13c1.46,-4.46 3.07,-6.69 4.82,-6.68c0.64,-0.03 1.28,0.13 1.77,0.44c-1.06,0.04 -1.99,0.57 -2.33,1.33c-0.22,0.52 -0.61,2.59 -1.16,6.22l-2.76,0Zm-6.77,-7.55c0.42,-0.31 0.97,-0.47 1.51,-0.44c1.65,0 3.15,2.66 4.49,8l-3,0c-0.47,-3.64 -0.81,-5.71 -1.01,-6.22c-0.29,-0.77 -1.08,-1.3 -1.99,-1.34Z" style="fill:#59a42b;fill-rule:nonzero;"/><path d="M-2.07,-1.028c0.92,-2.98 2,-4.48 3.22,-4.47c0.64,-0.04 1.87,0.18 2.36,0.62c-1.06,0.04 -2.02,1.07 -2.36,2.13c-0.12,0.39 -0.3,1.43 -0.52,3.12c-0.37,0.74 -0.73,1.59 -1.08,2.55c-0.5,-1.64 -1.04,-2.96 -1.62,-3.95Zm2.33,6.52l-0.04,-0.18c-0.1,-0.39 -0.2,-0.77 -0.3,-1.13c1.46,-4.46 3.07,-6.69 4.82,-6.68c0.64,-0.03 1.28,0.13 1.77,0.44c-1.06,0.04 -1.99,0.57 -2.33,1.33c-0.22,0.52 -0.61,2.59 -1.16,6.22l-2.76,0Zm-6.77,-7.55c0.42,-0.31 0.97,-0.47 1.51,-0.44c1.65,0 3.15,2.66 4.49,8l-3,0c-0.47,-3.64 -0.81,-5.71 -1.01,-6.22c-0.29,-0.77 -1.08,-1.3 -1.99,-1.34Z" style="fill:#59a42b;fill-rule:nonzero;"/><path d="M97.93,-1.048c0.92,-2.98 2,-4.48 3.22,-4.47c0.64,-0.04 1.87,0.18 2.36,0.62c-1.06,0.04 -2.02,1.07 -2.36,2.13c-0.12,0.39 -0.3,1.43 -0.52,3.12c-0.37,0.74 -0.73,1.59 -1.08,2.55c-0.5,-1.64 -1.04,-2.96 -1.62,-3.95Zm2.33,6.52l-0.04,-0.18c-0.1,-0.39 -0.2,-0.77 -0.3,-1.13c1.46,-4.46 3.07,-6.69 4.82,-6.68c0.64,-0.03 1.28,0.13 1.77,0.44c-1.06,0.04 -1.99,0.57 -2.33,1.33c-0.22,0.52 -0.61,2.59 -1.16,6.22l-2.76,0Zm-6.77,-7.55c0.42,-0.31 0.97,-0.47 1.51,-0.44c1.65,0 3.15,2.66 4.49,8l-3,0c-0.47,-3.64 -0.81,-5.71 -1.01,-6.22c-0.29,-0.77 -1.08,-1.3 -1.99,-1.34Z" style="fill:#59a42b;fill-rule:nonzero;"/><path d="M97.93,98.972c0.92,-2.98 2,-4.48 3.22,-4.47c0.64,-0.04 1.87,0.18 2.36,0.62c-1.06,0.04 -2.02,1.07 -2.36,2.13c-0.12,0.39 -0.3,1.43 -0.52,3.12c-0.37,0.74 -0.73,1.59 -1.08,2.55c-0.5,-1.64 -1.04,-2.96 -1.62,-3.95Zm2.33,6.52l-0.04,-0.18c-0.1,-0.39 -0.2,-0.77 -0.3,-1.13c1.46,-4.46 3.07,-6.69 4.82,-6.68c0.64,-0.03 1.28,0.13 1.77,0.44c-1.06,0.04 -1.99,0.57 -2.33,1.33c-0.22,0.52 -0.61,2.59 -1.16,6.22l-2.76,0Zm-6.77,-7.55c0.42,-0.31 0.97,-0.47 1.51,-0.44c1.65,0 3.15,2.66 4.49,8l-3,0c-0.47,-3.64 -0.81,-5.71 -1.01,-6.22c-0.29,-0.77 -1.08,-1.3 -1.99,-1.34Z" style="fill:#59a42b;fill-rule:nonzero;"/></g></svg>