<?xml version="1.0" encoding="UTF-8" standalone="no"?><!DOCTYPE svg PUBLIC "-//W3C//DTD SVG 1.1//EN" "http://www.w3.org/Graphics/SVG/1.1/DTD/svg11.dtd"><svg width="100%" height="100%" viewBox="0 0 15 15" version="1.1" xmlns="http://www.w3.org/2000/svg" xmlns:xlink="http://www.w3.org/1999/xlink" xml:space="preserve" xmlns:serif="http://www.serif.com/" style="fill-rule:evenodd;clip-rule:evenodd;stroke-linejoin:round;stroke-miterlimit:2;"><path d="M1.19,1.169c-0.031,-0.016 -0.068,-0.014 -0.097,0.004c-0.03,0.018 -0.047,0.05 -0.047,0.085c-0,1.32 -0,10.288 -0,11.119c0,0.038 0.021,0.072 0.055,0.089c0.385,0.192 2.647,1.325 2.647,1.325l5.669,-1.078c-0,0 1.989,0.993 2.548,1.272c0.031,0.015 0.068,0.014 0.097,-0.004c0.029,-0.018 0.047,-0.05 0.047,-0.085c0,-1.319 0,-10.288 0,-11.119c0,-0.038 -0.021,-0.073 -0.055,-0.089c-0.384,-0.192 -2.634,-1.317 -2.634,-1.317l-5.674,1.08c0,0 -1.996,-1 -2.556,-1.281Z" style="fill:#bfbfbf;"/><path d="M3.746,2.449l0.001,11.342l5.669,-1.078l0.003,-11.344l-5.674,1.08" style="fill:#a6a6a6;"/><path d="M6.043,9.64c-0.032,0.015 -0.07,0.01 -0.095,-0.014c-0.026,-0.024 -0.035,-0.061 -0.022,-0.094c0.246,-0.651 1.005,-2.657 1.005,-2.657l5.177,-5.645l0.593,-0.226l0.61,0.174l0.418,0.384l0.226,0.593l-0.174,0.61l-5.177,5.645c0,0 -1.933,0.929 -2.56,1.231Z" style="fill:url(#_Linear1);"/><defs><linearGradient id="_Linear1" x1="0" y1="0" x2="1" y2="0" gradientUnits="userSpaceOnUse" gradientTransform="matrix(7.598826,-8.279042,8.279042,7.598826,5.920005,9.648757)"><stop offset="0" style="stop-color:#000;stop-opacity:1"/><stop offset="1" style="stop-color:#fff;stop-opacity:1"/></linearGradient></defs></svg>