<svg xmlns="http://www.w3.org/2000/svg" xml:space="preserve" fill-rule="evenodd" stroke-linejoin="round" stroke-miterlimit="2" clip-rule="evenodd" viewBox="0 0 32 32"><path fill="#090909" d="M16 15a1 1 0 1 1 0 2 1 1 0 0 1 0-2m0-16a1 1 0 1 1 0 2 1 1 0 0 1 0-2M0-1a1 1 0 1 1 0 2 1 1 0 0 1 0-2m0 32a1 1 0 1 1 0 2 1 1 0 0 1 0-2m16 0a1 1 0 1 1 0 2 1 1 0 0 1 0-2m16 0a1 1 0 1 1 0 2 1 1 0 0 1 0-2m0-16a1 1 0 1 1 0 2 1 1 0 0 1 0-2m0-16a1 1 0 1 1 0 2 1 1 0 0 1 0-2M0 15a1 1 0 1 1 0 2 1 1 0 0 1 0-2m8-8a1 1 0 1 1 0 2 1 1 0 0 1 0-2m0 16a1 1 0 1 1 0 2 1 1 0 0 1 0-2m16 0a1 1 0 1 1 0 2 1 1 0 0 1 0-2m0-16a1 1 0 1 1 0 2 1 1 0 0 1 0-2"/></svg>