<svg xmlns="http://www.w3.org/2000/svg" xml:space="preserve" fill-rule="evenodd" stroke-linejoin="round" stroke-miterlimit="2" clip-rule="evenodd" viewBox="0 0 32 32"><path fill="#e5c200" d="m4.628 5.389-.556 1.53a.833.833 0 0 1-1.564-.568l.555-1.53-1.627-.056a.833.833 0 0 1 .057-1.663l1.627.056-.45-1.564a.832.832 0 0 1 1.598-.46l.45 1.564 1.349-.911a.832.832 0 0 1 .931 1.379l-1.349.911 1.283 1.001a.831.831 0 1 1-1.023 1.311L4.626 5.388Zm0 16-.556 1.53a.833.833 0 0 1-1.564-.568l.555-1.53-1.627-.056a.833.833 0 0 1 .057-1.663l1.627.056-.45-1.564a.832.832 0 0 1 1.598-.46l.45 1.564 1.349-.911a.832.832 0 0 1 .931 1.379l-1.349.911 1.283 1.001a.831.831 0 1 1-1.023 1.311l-1.283-1.001Zm16 0-.556 1.53a.833.833 0 0 1-1.564-.568l.555-1.53-1.627-.056a.833.833 0 0 1 .057-1.663l1.627.056-.45-1.564a.832.832 0 0 1 1.598-.46l.45 1.564 1.349-.911a.832.832 0 0 1 .931 1.379l-1.349.911 1.283 1.001a.831.831 0 1 1-1.023 1.311l-1.283-1.001Zm0-16-.556 1.53a.833.833 0 0 1-1.564-.568l.555-1.53-1.627-.056a.833.833 0 0 1 .057-1.663l1.627.056-.45-1.564a.832.832 0 0 1 1.598-.46l.45 1.564 1.349-.911a.832.832 0 0 1 .931 1.379l-1.349.911 1.283 1.001a.831.831 0 1 1-1.023 1.311l-1.283-1.001Zm-8 8-.556 1.53a.833.833 0 0 1-1.564-.568l.555-1.53-1.627-.056a.833.833 0 0 1 .057-1.663l1.627.056-.45-1.564a.832.832 0 0 1 1.598-.46l.45 1.564 1.349-.911a.832.832 0 0 1 .931 1.379l-1.349.911 1.283 1.001a.831.831 0 1 1-1.023 1.311l-1.283-1.001Zm0 16-.556 1.53a.833.833 0 0 1-1.564-.568l.555-1.53-1.627-.056a.833.833 0 0 1 .057-1.663l1.627.056-.45-1.564a.832.832 0 0 1 1.598-.46l.45 1.564 1.349-.911a.832.832 0 0 1 .931 1.379l-1.349.911 1.283 1.001a.831.831 0 1 1-1.023 1.311l-1.283-1.001Zm16 0-.556 1.53a.833.833 0 0 1-1.564-.568l.555-1.53-1.627-.056a.833.833 0 0 1 .057-1.663l1.627.056-.45-1.564a.832.832 0 0 1 1.598-.46l.45 1.564 1.349-.911a.832.832 0 0 1 .931 1.379l-1.349.911 1.283 1.001a.831.831 0 1 1-1.023 1.311l-1.283-1.001Zm0-16-.556 1.53a.833.833 0 0 1-1.564-.568l.555-1.53-1.627-.056a.833.833 0 0 1 .057-1.663l1.627.056-.45-1.564a.832.832 0 0 1 1.598-.46l.45 1.564 1.349-.911a.832.832 0 0 1 .931 1.379l-1.349.911 1.283 1.001a.831.831 0 1 1-1.023 1.311l-1.283-1.001Z"/></svg>