<svg xmlns="http://www.w3.org/2000/svg" xml:space="preserve" fill-rule="evenodd" stroke-linecap="round" stroke-linejoin="round" stroke-miterlimit="1.5" clip-rule="evenodd" viewBox="0 0 32 32"><path fill="none" stroke="#000" d="m17 28.5 1.106.553c1.227.613 2.622-.689 3.789-.106l1.106.553M1 26.5l1.106.553c1.227.613 2.622-.689 3.789-.106l1.106.553M25 20.5l1.106.553c1.227.613 2.622-.689 3.789-.106l1.106.553M9 18.5l1.106.553c1.227.613 2.622-.689 3.789-.106l1.106.553m1.999-7 1.106.553c1.227.613 2.622-.689 3.789-.106l1.106.553M1 10.5l1.106.553c1.227.613 2.622-.689 3.789-.106l1.106.553M25 4.5l1.106.553c1.227.613 2.622-.689 3.789-.106l1.106.553M9 2.5l1.106.553c1.227.613 2.622-.689 3.789-.106l1.106.553"/></svg>