<?xml version="1.0" encoding="UTF-8" standalone="no"?><!DOCTYPE svg PUBLIC "-//W3C//DTD SVG 1.1//EN" "http://www.w3.org/Graphics/SVG/1.1/DTD/svg11.dtd"><svg width="100%" height="100%" viewBox="0 0 50 50" version="1.1" xmlns="http://www.w3.org/2000/svg" xmlns:xlink="http://www.w3.org/1999/xlink" xml:space="preserve" xmlns:serif="http://www.serif.com/" style="fill-rule:evenodd;clip-rule:evenodd;stroke-linecap:round;stroke-linejoin:round;stroke-miterlimit:1.5;"><g><rect x="0" y="0" width="50" height="50" style="fill:#008050;fill-opacity:0.12;"/><path d="M16.5,32l22.5,0" style="fill:none;stroke:#171717;stroke-opacity:0.73;stroke-width:1px;"/><path d="M9,20l22.5,0" style="fill:none;stroke:#171717;stroke-opacity:0.73;stroke-width:1px;"/><path d="M36,14l19,0" style="fill:none;stroke:#171717;stroke-opacity:0.73;stroke-width:1px;"/><path d="M14,8l19,-0" style="fill:none;stroke:#171717;stroke-opacity:0.73;stroke-width:1px;"/><path d="M45,4l19,0" style="fill:none;stroke:#171717;stroke-opacity:0.73;stroke-width:1px;"/><path d="M-5,4l19,0" style="fill:none;stroke:#171717;stroke-opacity:0.73;stroke-width:1px;"/><path d="M-13.5,14l19,-0" style="fill:none;stroke:#171717;stroke-opacity:0.73;stroke-width:1px;"/><path d="M35,36l22,0" style="fill:none;stroke:#171717;stroke-opacity:0.73;stroke-width:1px;"/><path d="M-15,36l22,0" style="fill:none;stroke:#171717;stroke-opacity:0.73;stroke-width:1px;"/><path d="M-8,46l18,0" style="fill:none;stroke:#171717;stroke-opacity:0.73;stroke-width:1px;"/><path d="M42,46l18,0" style="fill:none;stroke:#171717;stroke-opacity:0.73;stroke-width:1px;"/><path d="M17.5,49l22.5,0" style="fill:none;stroke:#171717;stroke-opacity:0.73;stroke-width:1px;"/><path d="M17.5,-1l22.5,-0" style="fill:none;stroke:#171717;stroke-opacity:0.73;stroke-width:1px;"/><path d="M10.5,41l22.5,0" style="fill:none;stroke:#171717;stroke-opacity:0.73;stroke-width:1px;"/><path d="M40,26l22.5,0" style="fill:none;stroke:#171717;stroke-opacity:0.73;stroke-width:1px;"/><path d="M-10,26l22.5,0" style="fill:none;stroke:#171717;stroke-opacity:0.73;stroke-width:1px;"/></g></svg>