<svg xmlns="http://www.w3.org/2000/svg" xml:space="preserve" fill-rule="evenodd" stroke-linejoin="round" stroke-miterlimit="2" clip-rule="evenodd" viewBox="0 0 87 87"><path fill="green" fill-opacity=".12" d="M0 0h86.9v86.9H0z"/><g fill="#359505" fill-opacity=".3"><circle cx="19.451" cy="62.891" r="10.525"/><circle cx="55.409" cy="68.525" r="10.525"/><circle cx="15.183" cy="38.951" r="10.525"/><circle cx="41.952" cy="48.944" r="11.487"/><circle cx="48.944" cy="24.808" r="10.808"/><circle cx="68.821" cy="39.954" r="11.487"/><circle cx="26.47" cy="17.979" r="11.487"/><circle cx="-1.149" cy="22.974" r="11.487"/><circle cx="85.052" cy="22.974" r="11.487"/><circle cx="64.925" cy="3.995" r="11.487"/><circle cx="64.925" cy="90.896" r="11.487"/><circle cx="6.493" cy="85.901" r="11.487"/><circle cx="6.493" r="11.487"/><circle cx="77.91" cy="62.928" r="11.487"/><circle cx="-8.191" cy="62.928" r="11.487"/><circle cx="36.858" cy="81.906" r="11.487"/><circle cx="36.858" cy="-4.994" r="11.487"/><circle cx="92.893" cy="85.901" r="11.487"/><circle cx="92.893" r="11.487"/></g></svg>