<?xml version="1.0" encoding="UTF-8" standalone="no"?><!DOCTYPE svg PUBLIC "-//W3C//DTD SVG 1.1//EN" "http://www.w3.org/Graphics/SVG/1.1/DTD/svg11.dtd"><svg width="100%" height="100%" viewBox="0 0 87 87" version="1.1" xmlns="http://www.w3.org/2000/svg" xmlns:xlink="http://www.w3.org/1999/xlink" xml:space="preserve" xmlns:serif="http://www.serif.com/" style="fill-rule:evenodd;clip-rule:evenodd;stroke-linejoin:round;stroke-miterlimit:2;"><g><rect x="0" y="0" width="86.9" height="86.9" style="fill:#008000;fill-opacity:0.12;"/><g><circle cx="19.451" cy="62.891" r="10.525" style="fill:#359505;fill-opacity:0.3;"/><circle cx="55.409" cy="68.525" r="10.525" style="fill:#359505;fill-opacity:0.3;"/><circle cx="15.183" cy="38.951" r="10.525" style="fill:#359505;fill-opacity:0.3;"/><circle cx="41.952" cy="48.944" r="11.487" style="fill:#359505;fill-opacity:0.3;"/><circle cx="48.944" cy="24.808" r="10.808" style="fill:#359505;fill-opacity:0.3;"/><circle cx="68.821" cy="39.954" r="11.487" style="fill:#359505;fill-opacity:0.3;"/><circle cx="26.47" cy="17.979" r="11.487" style="fill:#359505;fill-opacity:0.3;"/><circle cx="-1.149" cy="22.974" r="11.487" style="fill:#359505;fill-opacity:0.3;"/><circle cx="85.052" cy="22.974" r="11.487" style="fill:#359505;fill-opacity:0.3;"/><circle cx="64.925" cy="3.995" r="11.487" style="fill:#359505;fill-opacity:0.3;"/><circle cx="64.925" cy="90.896" r="11.487" style="fill:#359505;fill-opacity:0.3;"/><circle cx="6.493" cy="85.901" r="11.487" style="fill:#359505;fill-opacity:0.3;"/><circle cx="6.493" cy="0" r="11.487" style="fill:#359505;fill-opacity:0.3;"/><circle cx="77.91" cy="62.928" r="11.487" style="fill:#359505;fill-opacity:0.3;"/><circle cx="-8.191" cy="62.928" r="11.487" style="fill:#359505;fill-opacity:0.3;"/><circle cx="36.858" cy="81.906" r="11.487" style="fill:#359505;fill-opacity:0.3;"/><circle cx="36.858" cy="-4.994" r="11.487" style="fill:#359505;fill-opacity:0.3;"/><circle cx="92.893" cy="85.901" r="11.487" style="fill:#359505;fill-opacity:0.3;"/><circle cx="92.893" cy="0" r="11.487" style="fill:#359505;fill-opacity:0.3;"/></g></g></svg>